G04 #@! TF.GenerationSoftware,KiCad,Pcbnew,(5.1.4)-1*
G04 #@! TF.CreationDate,2019-10-17T16:47:07-04:00*
G04 #@! TF.ProjectId,SegMan,5365674d-616e-42e6-9b69-6361645f7063,1.0*
G04 #@! TF.SameCoordinates,Original*
G04 #@! TF.FileFunction,Soldermask,Bot*
G04 #@! TF.FilePolarity,Negative*
%FSLAX46Y46*%
G04 Gerber Fmt 4.6, Leading zero omitted, Abs format (unit mm)*
G04 Created by KiCad (PCBNEW (5.1.4)-1) date 2019-10-17 16:47:07*
%MOMM*%
%LPD*%
G04 APERTURE LIST*
%ADD10C,0.100000*%
G04 APERTURE END LIST*
D10*
G36*
X82998903Y-139475213D02*
G01*
X83221177Y-139519426D01*
X83639932Y-139692880D01*
X84016802Y-139944696D01*
X84337304Y-140265198D01*
X84589120Y-140642068D01*
X84762574Y-141060823D01*
X84851000Y-141505371D01*
X84851000Y-141958629D01*
X84762574Y-142403177D01*
X84589120Y-142821932D01*
X84337304Y-143198802D01*
X84016802Y-143519304D01*
X83639932Y-143771120D01*
X83221177Y-143944574D01*
X82998903Y-143988787D01*
X82776630Y-144033000D01*
X82323370Y-144033000D01*
X82101097Y-143988787D01*
X81878823Y-143944574D01*
X81460068Y-143771120D01*
X81083198Y-143519304D01*
X80762696Y-143198802D01*
X80510880Y-142821932D01*
X80337426Y-142403177D01*
X80249000Y-141958629D01*
X80249000Y-141505371D01*
X80337426Y-141060823D01*
X80510880Y-140642068D01*
X80762696Y-140265198D01*
X81083198Y-139944696D01*
X81460068Y-139692880D01*
X81878823Y-139519426D01*
X82101097Y-139475213D01*
X82323370Y-139431000D01*
X82776630Y-139431000D01*
X82998903Y-139475213D01*
X82998903Y-139475213D01*
G37*
G36*
X194758903Y-139475213D02*
G01*
X194981177Y-139519426D01*
X195399932Y-139692880D01*
X195776802Y-139944696D01*
X196097304Y-140265198D01*
X196349120Y-140642068D01*
X196522574Y-141060823D01*
X196611000Y-141505371D01*
X196611000Y-141958629D01*
X196522574Y-142403177D01*
X196349120Y-142821932D01*
X196097304Y-143198802D01*
X195776802Y-143519304D01*
X195399932Y-143771120D01*
X194981177Y-143944574D01*
X194758903Y-143988787D01*
X194536630Y-144033000D01*
X194083370Y-144033000D01*
X193861097Y-143988787D01*
X193638823Y-143944574D01*
X193220068Y-143771120D01*
X192843198Y-143519304D01*
X192522696Y-143198802D01*
X192270880Y-142821932D01*
X192097426Y-142403177D01*
X192009000Y-141958629D01*
X192009000Y-141505371D01*
X192097426Y-141060823D01*
X192270880Y-140642068D01*
X192522696Y-140265198D01*
X192843198Y-139944696D01*
X193220068Y-139692880D01*
X193638823Y-139519426D01*
X193861097Y-139475213D01*
X194083370Y-139431000D01*
X194536630Y-139431000D01*
X194758903Y-139475213D01*
X194758903Y-139475213D01*
G37*
G36*
X89852420Y-139381143D02*
G01*
X89984556Y-139421227D01*
X89984558Y-139421228D01*
X90106338Y-139486320D01*
X90106340Y-139486321D01*
X90106339Y-139486321D01*
X90213080Y-139573920D01*
X90279172Y-139654454D01*
X90300680Y-139680661D01*
X90323310Y-139723000D01*
X90365773Y-139802443D01*
X90405857Y-139934579D01*
X90416000Y-140037568D01*
X90416000Y-142206432D01*
X90405857Y-142309421D01*
X90365773Y-142441557D01*
X90365772Y-142441559D01*
X90300680Y-142563339D01*
X90213080Y-142670080D01*
X90106339Y-142757680D01*
X89984559Y-142822772D01*
X89984557Y-142822773D01*
X89852421Y-142862857D01*
X89715000Y-142876391D01*
X89577580Y-142862857D01*
X89445444Y-142822773D01*
X89445442Y-142822772D01*
X89323662Y-142757680D01*
X89216921Y-142670080D01*
X89129321Y-142563339D01*
X89064229Y-142441559D01*
X89064228Y-142441557D01*
X89024144Y-142309421D01*
X89014001Y-142206432D01*
X89014000Y-140037569D01*
X89024143Y-139934580D01*
X89064227Y-139802444D01*
X89115939Y-139705697D01*
X89129320Y-139680662D01*
X89150828Y-139654454D01*
X89216920Y-139573920D01*
X89323660Y-139486321D01*
X89323659Y-139486321D01*
X89323661Y-139486320D01*
X89445441Y-139421228D01*
X89445443Y-139421227D01*
X89577579Y-139381143D01*
X89715000Y-139367609D01*
X89852420Y-139381143D01*
X89852420Y-139381143D01*
G37*
G36*
X122872420Y-139381143D02*
G01*
X123004556Y-139421227D01*
X123004558Y-139421228D01*
X123126338Y-139486320D01*
X123126340Y-139486321D01*
X123126339Y-139486321D01*
X123233080Y-139573920D01*
X123299172Y-139654454D01*
X123320680Y-139680661D01*
X123343310Y-139723000D01*
X123385773Y-139802443D01*
X123425857Y-139934579D01*
X123436000Y-140037568D01*
X123436000Y-142206432D01*
X123425857Y-142309421D01*
X123385773Y-142441557D01*
X123385772Y-142441559D01*
X123320680Y-142563339D01*
X123233080Y-142670080D01*
X123126339Y-142757680D01*
X123004559Y-142822772D01*
X123004557Y-142822773D01*
X122872421Y-142862857D01*
X122735000Y-142876391D01*
X122597580Y-142862857D01*
X122465444Y-142822773D01*
X122465442Y-142822772D01*
X122343662Y-142757680D01*
X122236921Y-142670080D01*
X122149321Y-142563339D01*
X122084229Y-142441559D01*
X122084228Y-142441557D01*
X122044144Y-142309421D01*
X122034001Y-142206432D01*
X122034000Y-140037569D01*
X122044143Y-139934580D01*
X122084227Y-139802444D01*
X122135939Y-139705697D01*
X122149320Y-139680662D01*
X122170828Y-139654454D01*
X122236920Y-139573920D01*
X122343660Y-139486321D01*
X122343659Y-139486321D01*
X122343661Y-139486320D01*
X122465441Y-139421228D01*
X122465443Y-139421227D01*
X122597579Y-139381143D01*
X122735000Y-139367609D01*
X122872420Y-139381143D01*
X122872420Y-139381143D01*
G37*
G36*
X99652420Y-139381143D02*
G01*
X99784556Y-139421227D01*
X99784558Y-139421228D01*
X99906338Y-139486320D01*
X99906340Y-139486321D01*
X99906339Y-139486321D01*
X100013080Y-139573920D01*
X100079172Y-139654454D01*
X100100680Y-139680661D01*
X100123310Y-139723000D01*
X100165773Y-139802443D01*
X100205857Y-139934579D01*
X100216000Y-140037568D01*
X100216000Y-142206432D01*
X100205857Y-142309421D01*
X100165773Y-142441557D01*
X100165772Y-142441559D01*
X100100680Y-142563339D01*
X100013080Y-142670080D01*
X99906339Y-142757680D01*
X99784559Y-142822772D01*
X99784557Y-142822773D01*
X99652421Y-142862857D01*
X99515000Y-142876391D01*
X99377580Y-142862857D01*
X99245444Y-142822773D01*
X99245442Y-142822772D01*
X99123662Y-142757680D01*
X99016921Y-142670080D01*
X98929321Y-142563339D01*
X98864229Y-142441559D01*
X98864228Y-142441557D01*
X98824144Y-142309421D01*
X98814001Y-142206432D01*
X98814000Y-140037569D01*
X98824143Y-139934580D01*
X98864227Y-139802444D01*
X98915939Y-139705697D01*
X98929320Y-139680662D01*
X98950828Y-139654454D01*
X99016920Y-139573920D01*
X99123660Y-139486321D01*
X99123659Y-139486321D01*
X99123661Y-139486320D01*
X99245441Y-139421228D01*
X99245443Y-139421227D01*
X99377579Y-139381143D01*
X99515000Y-139367609D01*
X99652420Y-139381143D01*
X99652420Y-139381143D01*
G37*
G36*
X132672420Y-139381143D02*
G01*
X132804556Y-139421227D01*
X132804558Y-139421228D01*
X132926338Y-139486320D01*
X132926340Y-139486321D01*
X132926339Y-139486321D01*
X133033080Y-139573920D01*
X133099172Y-139654454D01*
X133120680Y-139680661D01*
X133143310Y-139723000D01*
X133185773Y-139802443D01*
X133225857Y-139934579D01*
X133236000Y-140037568D01*
X133236000Y-142206432D01*
X133225857Y-142309421D01*
X133185773Y-142441557D01*
X133185772Y-142441559D01*
X133120680Y-142563339D01*
X133033080Y-142670080D01*
X132926339Y-142757680D01*
X132804559Y-142822772D01*
X132804557Y-142822773D01*
X132672421Y-142862857D01*
X132535000Y-142876391D01*
X132397580Y-142862857D01*
X132265444Y-142822773D01*
X132265442Y-142822772D01*
X132143662Y-142757680D01*
X132036921Y-142670080D01*
X131949321Y-142563339D01*
X131884229Y-142441559D01*
X131884228Y-142441557D01*
X131844144Y-142309421D01*
X131834001Y-142206432D01*
X131834000Y-140037569D01*
X131844143Y-139934580D01*
X131884227Y-139802444D01*
X131935939Y-139705697D01*
X131949320Y-139680662D01*
X131970828Y-139654454D01*
X132036920Y-139573920D01*
X132143660Y-139486321D01*
X132143659Y-139486321D01*
X132143661Y-139486320D01*
X132265441Y-139421228D01*
X132265443Y-139421227D01*
X132397579Y-139381143D01*
X132535000Y-139367609D01*
X132672420Y-139381143D01*
X132672420Y-139381143D01*
G37*
G36*
X129011366Y-136137695D02*
G01*
X129168460Y-136185349D01*
X129313231Y-136262731D01*
X129440128Y-136366872D01*
X129544269Y-136493769D01*
X129621651Y-136638540D01*
X129669305Y-136795634D01*
X129686000Y-136965140D01*
X129686000Y-138878860D01*
X129669305Y-139048366D01*
X129621651Y-139205460D01*
X129544269Y-139350231D01*
X129440128Y-139477128D01*
X129313231Y-139581269D01*
X129168460Y-139658651D01*
X129011366Y-139706305D01*
X128841860Y-139723000D01*
X126428140Y-139723000D01*
X126258634Y-139706305D01*
X126101540Y-139658651D01*
X125956769Y-139581269D01*
X125829872Y-139477128D01*
X125725731Y-139350231D01*
X125648349Y-139205460D01*
X125600695Y-139048366D01*
X125584000Y-138878860D01*
X125584000Y-136965140D01*
X125600695Y-136795634D01*
X125648349Y-136638540D01*
X125725731Y-136493769D01*
X125829872Y-136366872D01*
X125956769Y-136262731D01*
X126101540Y-136185349D01*
X126258634Y-136137695D01*
X126428140Y-136121000D01*
X128841860Y-136121000D01*
X129011366Y-136137695D01*
X129011366Y-136137695D01*
G37*
G36*
X95991366Y-136137695D02*
G01*
X96148460Y-136185349D01*
X96293231Y-136262731D01*
X96420128Y-136366872D01*
X96524269Y-136493769D01*
X96601651Y-136638540D01*
X96649305Y-136795634D01*
X96666000Y-136965140D01*
X96666000Y-138878860D01*
X96649305Y-139048366D01*
X96601651Y-139205460D01*
X96524269Y-139350231D01*
X96420128Y-139477128D01*
X96293231Y-139581269D01*
X96148460Y-139658651D01*
X95991366Y-139706305D01*
X95821860Y-139723000D01*
X93408140Y-139723000D01*
X93238634Y-139706305D01*
X93081540Y-139658651D01*
X92936769Y-139581269D01*
X92809872Y-139477128D01*
X92705731Y-139350231D01*
X92628349Y-139205460D01*
X92580695Y-139048366D01*
X92564000Y-138878860D01*
X92564000Y-136965140D01*
X92580695Y-136795634D01*
X92628349Y-136638540D01*
X92705731Y-136493769D01*
X92809872Y-136366872D01*
X92936769Y-136262731D01*
X93081540Y-136185349D01*
X93238634Y-136137695D01*
X93408140Y-136121000D01*
X95821860Y-136121000D01*
X95991366Y-136137695D01*
X95991366Y-136137695D01*
G37*
G36*
X154415443Y-127248519D02*
G01*
X154481627Y-127255037D01*
X154651466Y-127306557D01*
X154807991Y-127390222D01*
X154843729Y-127419552D01*
X154945186Y-127502814D01*
X155028448Y-127604271D01*
X155057778Y-127640009D01*
X155141443Y-127796534D01*
X155192963Y-127966373D01*
X155210359Y-128143000D01*
X155192963Y-128319627D01*
X155141443Y-128489466D01*
X155057778Y-128645991D01*
X155028448Y-128681729D01*
X154945186Y-128783186D01*
X154843729Y-128866448D01*
X154807991Y-128895778D01*
X154651466Y-128979443D01*
X154481627Y-129030963D01*
X154415442Y-129037482D01*
X154349260Y-129044000D01*
X154260740Y-129044000D01*
X154194558Y-129037482D01*
X154128373Y-129030963D01*
X153958534Y-128979443D01*
X153802009Y-128895778D01*
X153766271Y-128866448D01*
X153664814Y-128783186D01*
X153581552Y-128681729D01*
X153552222Y-128645991D01*
X153468557Y-128489466D01*
X153417037Y-128319627D01*
X153399641Y-128143000D01*
X153417037Y-127966373D01*
X153468557Y-127796534D01*
X153552222Y-127640009D01*
X153581552Y-127604271D01*
X153664814Y-127502814D01*
X153766271Y-127419552D01*
X153802009Y-127390222D01*
X153958534Y-127306557D01*
X154128373Y-127255037D01*
X154194557Y-127248519D01*
X154260740Y-127242000D01*
X154349260Y-127242000D01*
X154415443Y-127248519D01*
X154415443Y-127248519D01*
G37*
G36*
X177910443Y-127248519D02*
G01*
X177976627Y-127255037D01*
X178146466Y-127306557D01*
X178302991Y-127390222D01*
X178338729Y-127419552D01*
X178440186Y-127502814D01*
X178523448Y-127604271D01*
X178552778Y-127640009D01*
X178636443Y-127796534D01*
X178687963Y-127966373D01*
X178705359Y-128143000D01*
X178687963Y-128319627D01*
X178636443Y-128489466D01*
X178552778Y-128645991D01*
X178523448Y-128681729D01*
X178440186Y-128783186D01*
X178338729Y-128866448D01*
X178302991Y-128895778D01*
X178146466Y-128979443D01*
X177976627Y-129030963D01*
X177910442Y-129037482D01*
X177844260Y-129044000D01*
X177755740Y-129044000D01*
X177689558Y-129037482D01*
X177623373Y-129030963D01*
X177453534Y-128979443D01*
X177297009Y-128895778D01*
X177261271Y-128866448D01*
X177159814Y-128783186D01*
X177076552Y-128681729D01*
X177047222Y-128645991D01*
X176963557Y-128489466D01*
X176912037Y-128319627D01*
X176894641Y-128143000D01*
X176912037Y-127966373D01*
X176963557Y-127796534D01*
X177047222Y-127640009D01*
X177076552Y-127604271D01*
X177159814Y-127502814D01*
X177261271Y-127419552D01*
X177297009Y-127390222D01*
X177453534Y-127306557D01*
X177623373Y-127255037D01*
X177689557Y-127248519D01*
X177755740Y-127242000D01*
X177844260Y-127242000D01*
X177910443Y-127248519D01*
X177910443Y-127248519D01*
G37*
G36*
X154415442Y-124708518D02*
G01*
X154481627Y-124715037D01*
X154651466Y-124766557D01*
X154807991Y-124850222D01*
X154843729Y-124879552D01*
X154945186Y-124962814D01*
X155028448Y-125064271D01*
X155057778Y-125100009D01*
X155141443Y-125256534D01*
X155192963Y-125426373D01*
X155210359Y-125603000D01*
X155192963Y-125779627D01*
X155141443Y-125949466D01*
X155057778Y-126105991D01*
X155028448Y-126141729D01*
X154945186Y-126243186D01*
X154843729Y-126326448D01*
X154807991Y-126355778D01*
X154651466Y-126439443D01*
X154481627Y-126490963D01*
X154415442Y-126497482D01*
X154349260Y-126504000D01*
X154260740Y-126504000D01*
X154194558Y-126497482D01*
X154128373Y-126490963D01*
X153958534Y-126439443D01*
X153802009Y-126355778D01*
X153766271Y-126326448D01*
X153664814Y-126243186D01*
X153581552Y-126141729D01*
X153552222Y-126105991D01*
X153468557Y-125949466D01*
X153417037Y-125779627D01*
X153399641Y-125603000D01*
X153417037Y-125426373D01*
X153468557Y-125256534D01*
X153552222Y-125100009D01*
X153581552Y-125064271D01*
X153664814Y-124962814D01*
X153766271Y-124879552D01*
X153802009Y-124850222D01*
X153958534Y-124766557D01*
X154128373Y-124715037D01*
X154194558Y-124708518D01*
X154260740Y-124702000D01*
X154349260Y-124702000D01*
X154415442Y-124708518D01*
X154415442Y-124708518D01*
G37*
G36*
X177910442Y-124708518D02*
G01*
X177976627Y-124715037D01*
X178146466Y-124766557D01*
X178302991Y-124850222D01*
X178338729Y-124879552D01*
X178440186Y-124962814D01*
X178523448Y-125064271D01*
X178552778Y-125100009D01*
X178636443Y-125256534D01*
X178687963Y-125426373D01*
X178705359Y-125603000D01*
X178687963Y-125779627D01*
X178636443Y-125949466D01*
X178552778Y-126105991D01*
X178523448Y-126141729D01*
X178440186Y-126243186D01*
X178338729Y-126326448D01*
X178302991Y-126355778D01*
X178146466Y-126439443D01*
X177976627Y-126490963D01*
X177910442Y-126497482D01*
X177844260Y-126504000D01*
X177755740Y-126504000D01*
X177689558Y-126497482D01*
X177623373Y-126490963D01*
X177453534Y-126439443D01*
X177297009Y-126355778D01*
X177261271Y-126326448D01*
X177159814Y-126243186D01*
X177076552Y-126141729D01*
X177047222Y-126105991D01*
X176963557Y-125949466D01*
X176912037Y-125779627D01*
X176894641Y-125603000D01*
X176912037Y-125426373D01*
X176963557Y-125256534D01*
X177047222Y-125100009D01*
X177076552Y-125064271D01*
X177159814Y-124962814D01*
X177261271Y-124879552D01*
X177297009Y-124850222D01*
X177453534Y-124766557D01*
X177623373Y-124715037D01*
X177689558Y-124708518D01*
X177755740Y-124702000D01*
X177844260Y-124702000D01*
X177910442Y-124708518D01*
X177910442Y-124708518D01*
G37*
G36*
X177910442Y-122168518D02*
G01*
X177976627Y-122175037D01*
X178146466Y-122226557D01*
X178302991Y-122310222D01*
X178338729Y-122339552D01*
X178440186Y-122422814D01*
X178507939Y-122505373D01*
X178552778Y-122560009D01*
X178636443Y-122716534D01*
X178687963Y-122886373D01*
X178705359Y-123063000D01*
X178687963Y-123239627D01*
X178636443Y-123409466D01*
X178552778Y-123565991D01*
X178549518Y-123569963D01*
X178440186Y-123703186D01*
X178338729Y-123786448D01*
X178302991Y-123815778D01*
X178146466Y-123899443D01*
X177976627Y-123950963D01*
X177910443Y-123957481D01*
X177844260Y-123964000D01*
X177755740Y-123964000D01*
X177689557Y-123957481D01*
X177623373Y-123950963D01*
X177453534Y-123899443D01*
X177297009Y-123815778D01*
X177261271Y-123786448D01*
X177159814Y-123703186D01*
X177050482Y-123569963D01*
X177047222Y-123565991D01*
X176963557Y-123409466D01*
X176912037Y-123239627D01*
X176894641Y-123063000D01*
X176912037Y-122886373D01*
X176963557Y-122716534D01*
X177047222Y-122560009D01*
X177092061Y-122505373D01*
X177159814Y-122422814D01*
X177261271Y-122339552D01*
X177297009Y-122310222D01*
X177453534Y-122226557D01*
X177623373Y-122175037D01*
X177689558Y-122168518D01*
X177755740Y-122162000D01*
X177844260Y-122162000D01*
X177910442Y-122168518D01*
X177910442Y-122168518D01*
G37*
G36*
X154415442Y-122168518D02*
G01*
X154481627Y-122175037D01*
X154651466Y-122226557D01*
X154807991Y-122310222D01*
X154843729Y-122339552D01*
X154945186Y-122422814D01*
X155012939Y-122505373D01*
X155057778Y-122560009D01*
X155141443Y-122716534D01*
X155192963Y-122886373D01*
X155210359Y-123063000D01*
X155192963Y-123239627D01*
X155141443Y-123409466D01*
X155057778Y-123565991D01*
X155054518Y-123569963D01*
X154945186Y-123703186D01*
X154843729Y-123786448D01*
X154807991Y-123815778D01*
X154651466Y-123899443D01*
X154481627Y-123950963D01*
X154415443Y-123957481D01*
X154349260Y-123964000D01*
X154260740Y-123964000D01*
X154194557Y-123957481D01*
X154128373Y-123950963D01*
X153958534Y-123899443D01*
X153802009Y-123815778D01*
X153766271Y-123786448D01*
X153664814Y-123703186D01*
X153555482Y-123569963D01*
X153552222Y-123565991D01*
X153468557Y-123409466D01*
X153417037Y-123239627D01*
X153399641Y-123063000D01*
X153417037Y-122886373D01*
X153468557Y-122716534D01*
X153552222Y-122560009D01*
X153597061Y-122505373D01*
X153664814Y-122422814D01*
X153766271Y-122339552D01*
X153802009Y-122310222D01*
X153958534Y-122226557D01*
X154128373Y-122175037D01*
X154194558Y-122168518D01*
X154260740Y-122162000D01*
X154349260Y-122162000D01*
X154415442Y-122168518D01*
X154415442Y-122168518D01*
G37*
G36*
X130481564Y-121671389D02*
G01*
X130672833Y-121750615D01*
X130672835Y-121750616D01*
X130737819Y-121794037D01*
X130844973Y-121865635D01*
X130991365Y-122012027D01*
X131106385Y-122184167D01*
X131185611Y-122375436D01*
X131226000Y-122578484D01*
X131226000Y-122785516D01*
X131185611Y-122988564D01*
X131106385Y-123179833D01*
X131106384Y-123179835D01*
X130991365Y-123351973D01*
X130844973Y-123498365D01*
X130672835Y-123613384D01*
X130672834Y-123613385D01*
X130672833Y-123613385D01*
X130481564Y-123692611D01*
X130278516Y-123733000D01*
X130071484Y-123733000D01*
X129868436Y-123692611D01*
X129677167Y-123613385D01*
X129677166Y-123613385D01*
X129677165Y-123613384D01*
X129505027Y-123498365D01*
X129358635Y-123351973D01*
X129243616Y-123179835D01*
X129243615Y-123179833D01*
X129164389Y-122988564D01*
X129124000Y-122785516D01*
X129124000Y-122578484D01*
X129164389Y-122375436D01*
X129243615Y-122184167D01*
X129358635Y-122012027D01*
X129505027Y-121865635D01*
X129612181Y-121794037D01*
X129677165Y-121750616D01*
X129677167Y-121750615D01*
X129868436Y-121671389D01*
X130071484Y-121631000D01*
X130278516Y-121631000D01*
X130481564Y-121671389D01*
X130481564Y-121671389D01*
G37*
G36*
X140641564Y-121671389D02*
G01*
X140832833Y-121750615D01*
X140832835Y-121750616D01*
X140897819Y-121794037D01*
X141004973Y-121865635D01*
X141151365Y-122012027D01*
X141266385Y-122184167D01*
X141345611Y-122375436D01*
X141386000Y-122578484D01*
X141386000Y-122785516D01*
X141345611Y-122988564D01*
X141266385Y-123179833D01*
X141266384Y-123179835D01*
X141151365Y-123351973D01*
X141004973Y-123498365D01*
X140832835Y-123613384D01*
X140832834Y-123613385D01*
X140832833Y-123613385D01*
X140641564Y-123692611D01*
X140438516Y-123733000D01*
X140231484Y-123733000D01*
X140028436Y-123692611D01*
X139837167Y-123613385D01*
X139837166Y-123613385D01*
X139837165Y-123613384D01*
X139665027Y-123498365D01*
X139518635Y-123351973D01*
X139403616Y-123179835D01*
X139403615Y-123179833D01*
X139324389Y-122988564D01*
X139284000Y-122785516D01*
X139284000Y-122578484D01*
X139324389Y-122375436D01*
X139403615Y-122184167D01*
X139518635Y-122012027D01*
X139665027Y-121865635D01*
X139772181Y-121794037D01*
X139837165Y-121750616D01*
X139837167Y-121750615D01*
X140028436Y-121671389D01*
X140231484Y-121631000D01*
X140438516Y-121631000D01*
X140641564Y-121671389D01*
X140641564Y-121671389D01*
G37*
G36*
X97461564Y-121671389D02*
G01*
X97652833Y-121750615D01*
X97652835Y-121750616D01*
X97717819Y-121794037D01*
X97824973Y-121865635D01*
X97971365Y-122012027D01*
X98086385Y-122184167D01*
X98165611Y-122375436D01*
X98206000Y-122578484D01*
X98206000Y-122785516D01*
X98165611Y-122988564D01*
X98086385Y-123179833D01*
X98086384Y-123179835D01*
X97971365Y-123351973D01*
X97824973Y-123498365D01*
X97652835Y-123613384D01*
X97652834Y-123613385D01*
X97652833Y-123613385D01*
X97461564Y-123692611D01*
X97258516Y-123733000D01*
X97051484Y-123733000D01*
X96848436Y-123692611D01*
X96657167Y-123613385D01*
X96657166Y-123613385D01*
X96657165Y-123613384D01*
X96485027Y-123498365D01*
X96338635Y-123351973D01*
X96223616Y-123179835D01*
X96223615Y-123179833D01*
X96144389Y-122988564D01*
X96104000Y-122785516D01*
X96104000Y-122578484D01*
X96144389Y-122375436D01*
X96223615Y-122184167D01*
X96338635Y-122012027D01*
X96485027Y-121865635D01*
X96592181Y-121794037D01*
X96657165Y-121750616D01*
X96657167Y-121750615D01*
X96848436Y-121671389D01*
X97051484Y-121631000D01*
X97258516Y-121631000D01*
X97461564Y-121671389D01*
X97461564Y-121671389D01*
G37*
G36*
X107621564Y-121671389D02*
G01*
X107812833Y-121750615D01*
X107812835Y-121750616D01*
X107877819Y-121794037D01*
X107984973Y-121865635D01*
X108131365Y-122012027D01*
X108246385Y-122184167D01*
X108325611Y-122375436D01*
X108366000Y-122578484D01*
X108366000Y-122785516D01*
X108325611Y-122988564D01*
X108246385Y-123179833D01*
X108246384Y-123179835D01*
X108131365Y-123351973D01*
X107984973Y-123498365D01*
X107812835Y-123613384D01*
X107812834Y-123613385D01*
X107812833Y-123613385D01*
X107621564Y-123692611D01*
X107418516Y-123733000D01*
X107211484Y-123733000D01*
X107008436Y-123692611D01*
X106817167Y-123613385D01*
X106817166Y-123613385D01*
X106817165Y-123613384D01*
X106645027Y-123498365D01*
X106498635Y-123351973D01*
X106383616Y-123179835D01*
X106383615Y-123179833D01*
X106304389Y-122988564D01*
X106264000Y-122785516D01*
X106264000Y-122578484D01*
X106304389Y-122375436D01*
X106383615Y-122184167D01*
X106498635Y-122012027D01*
X106645027Y-121865635D01*
X106752181Y-121794037D01*
X106817165Y-121750616D01*
X106817167Y-121750615D01*
X107008436Y-121671389D01*
X107211484Y-121631000D01*
X107418516Y-121631000D01*
X107621564Y-121671389D01*
X107621564Y-121671389D01*
G37*
G36*
X193150443Y-121787519D02*
G01*
X193216627Y-121794037D01*
X193386466Y-121845557D01*
X193542991Y-121929222D01*
X193578729Y-121958552D01*
X193680186Y-122041814D01*
X193763448Y-122143271D01*
X193792778Y-122179009D01*
X193876443Y-122335534D01*
X193927963Y-122505373D01*
X193945359Y-122682000D01*
X193927963Y-122858627D01*
X193876443Y-123028466D01*
X193792778Y-123184991D01*
X193763448Y-123220729D01*
X193680186Y-123322186D01*
X193578729Y-123405448D01*
X193542991Y-123434778D01*
X193386466Y-123518443D01*
X193216627Y-123569963D01*
X193150443Y-123576481D01*
X193084260Y-123583000D01*
X192995740Y-123583000D01*
X192929557Y-123576481D01*
X192863373Y-123569963D01*
X192693534Y-123518443D01*
X192537009Y-123434778D01*
X192501271Y-123405448D01*
X192399814Y-123322186D01*
X192316552Y-123220729D01*
X192287222Y-123184991D01*
X192203557Y-123028466D01*
X192152037Y-122858627D01*
X192134641Y-122682000D01*
X192152037Y-122505373D01*
X192203557Y-122335534D01*
X192287222Y-122179009D01*
X192316552Y-122143271D01*
X192399814Y-122041814D01*
X192501271Y-121958552D01*
X192537009Y-121929222D01*
X192693534Y-121845557D01*
X192863373Y-121794037D01*
X192929557Y-121787519D01*
X192995740Y-121781000D01*
X193084260Y-121781000D01*
X193150443Y-121787519D01*
X193150443Y-121787519D01*
G37*
G36*
X177910442Y-119628518D02*
G01*
X177976627Y-119635037D01*
X178146466Y-119686557D01*
X178302991Y-119770222D01*
X178338729Y-119799552D01*
X178440186Y-119882814D01*
X178507939Y-119965373D01*
X178552778Y-120020009D01*
X178636443Y-120176534D01*
X178687963Y-120346373D01*
X178705359Y-120523000D01*
X178687963Y-120699627D01*
X178636443Y-120869466D01*
X178552778Y-121025991D01*
X178549518Y-121029963D01*
X178440186Y-121163186D01*
X178338729Y-121246448D01*
X178302991Y-121275778D01*
X178146466Y-121359443D01*
X177976627Y-121410963D01*
X177910442Y-121417482D01*
X177844260Y-121424000D01*
X177755740Y-121424000D01*
X177689558Y-121417482D01*
X177623373Y-121410963D01*
X177453534Y-121359443D01*
X177297009Y-121275778D01*
X177261271Y-121246448D01*
X177159814Y-121163186D01*
X177050482Y-121029963D01*
X177047222Y-121025991D01*
X176963557Y-120869466D01*
X176912037Y-120699627D01*
X176894641Y-120523000D01*
X176912037Y-120346373D01*
X176963557Y-120176534D01*
X177047222Y-120020009D01*
X177092061Y-119965373D01*
X177159814Y-119882814D01*
X177261271Y-119799552D01*
X177297009Y-119770222D01*
X177453534Y-119686557D01*
X177623373Y-119635037D01*
X177689558Y-119628518D01*
X177755740Y-119622000D01*
X177844260Y-119622000D01*
X177910442Y-119628518D01*
X177910442Y-119628518D01*
G37*
G36*
X154415442Y-119628518D02*
G01*
X154481627Y-119635037D01*
X154651466Y-119686557D01*
X154807991Y-119770222D01*
X154843729Y-119799552D01*
X154945186Y-119882814D01*
X155012939Y-119965373D01*
X155057778Y-120020009D01*
X155141443Y-120176534D01*
X155192963Y-120346373D01*
X155210359Y-120523000D01*
X155192963Y-120699627D01*
X155141443Y-120869466D01*
X155057778Y-121025991D01*
X155054518Y-121029963D01*
X154945186Y-121163186D01*
X154843729Y-121246448D01*
X154807991Y-121275778D01*
X154651466Y-121359443D01*
X154481627Y-121410963D01*
X154415442Y-121417482D01*
X154349260Y-121424000D01*
X154260740Y-121424000D01*
X154194558Y-121417482D01*
X154128373Y-121410963D01*
X153958534Y-121359443D01*
X153802009Y-121275778D01*
X153766271Y-121246448D01*
X153664814Y-121163186D01*
X153555482Y-121029963D01*
X153552222Y-121025991D01*
X153468557Y-120869466D01*
X153417037Y-120699627D01*
X153399641Y-120523000D01*
X153417037Y-120346373D01*
X153468557Y-120176534D01*
X153552222Y-120020009D01*
X153597061Y-119965373D01*
X153664814Y-119882814D01*
X153766271Y-119799552D01*
X153802009Y-119770222D01*
X153958534Y-119686557D01*
X154128373Y-119635037D01*
X154194558Y-119628518D01*
X154260740Y-119622000D01*
X154349260Y-119622000D01*
X154415442Y-119628518D01*
X154415442Y-119628518D01*
G37*
G36*
X193150443Y-119247519D02*
G01*
X193216627Y-119254037D01*
X193386466Y-119305557D01*
X193542991Y-119389222D01*
X193578729Y-119418552D01*
X193680186Y-119501814D01*
X193763448Y-119603271D01*
X193792778Y-119639009D01*
X193876443Y-119795534D01*
X193927963Y-119965373D01*
X193945359Y-120142000D01*
X193927963Y-120318627D01*
X193876443Y-120488466D01*
X193792778Y-120644991D01*
X193763448Y-120680729D01*
X193680186Y-120782186D01*
X193578729Y-120865448D01*
X193542991Y-120894778D01*
X193386466Y-120978443D01*
X193216627Y-121029963D01*
X193150442Y-121036482D01*
X193084260Y-121043000D01*
X192995740Y-121043000D01*
X192929558Y-121036482D01*
X192863373Y-121029963D01*
X192693534Y-120978443D01*
X192537009Y-120894778D01*
X192501271Y-120865448D01*
X192399814Y-120782186D01*
X192316552Y-120680729D01*
X192287222Y-120644991D01*
X192203557Y-120488466D01*
X192152037Y-120318627D01*
X192134641Y-120142000D01*
X192152037Y-119965373D01*
X192203557Y-119795534D01*
X192287222Y-119639009D01*
X192316552Y-119603271D01*
X192399814Y-119501814D01*
X192501271Y-119418552D01*
X192537009Y-119389222D01*
X192693534Y-119305557D01*
X192863373Y-119254037D01*
X192929557Y-119247519D01*
X192995740Y-119241000D01*
X193084260Y-119241000D01*
X193150443Y-119247519D01*
X193150443Y-119247519D01*
G37*
G36*
X154415442Y-117088518D02*
G01*
X154481627Y-117095037D01*
X154651466Y-117146557D01*
X154807991Y-117230222D01*
X154843729Y-117259552D01*
X154945186Y-117342814D01*
X155012939Y-117425373D01*
X155057778Y-117480009D01*
X155141443Y-117636534D01*
X155192963Y-117806373D01*
X155210359Y-117983000D01*
X155192963Y-118159627D01*
X155141443Y-118329466D01*
X155057778Y-118485991D01*
X155054518Y-118489963D01*
X154945186Y-118623186D01*
X154843729Y-118706448D01*
X154807991Y-118735778D01*
X154651466Y-118819443D01*
X154481627Y-118870963D01*
X154415442Y-118877482D01*
X154349260Y-118884000D01*
X154260740Y-118884000D01*
X154194558Y-118877482D01*
X154128373Y-118870963D01*
X153958534Y-118819443D01*
X153802009Y-118735778D01*
X153766271Y-118706448D01*
X153664814Y-118623186D01*
X153555482Y-118489963D01*
X153552222Y-118485991D01*
X153468557Y-118329466D01*
X153417037Y-118159627D01*
X153399641Y-117983000D01*
X153417037Y-117806373D01*
X153468557Y-117636534D01*
X153552222Y-117480009D01*
X153597061Y-117425373D01*
X153664814Y-117342814D01*
X153766271Y-117259552D01*
X153802009Y-117230222D01*
X153958534Y-117146557D01*
X154128373Y-117095037D01*
X154194558Y-117088518D01*
X154260740Y-117082000D01*
X154349260Y-117082000D01*
X154415442Y-117088518D01*
X154415442Y-117088518D01*
G37*
G36*
X177910442Y-117088518D02*
G01*
X177976627Y-117095037D01*
X178146466Y-117146557D01*
X178302991Y-117230222D01*
X178338729Y-117259552D01*
X178440186Y-117342814D01*
X178507939Y-117425373D01*
X178552778Y-117480009D01*
X178636443Y-117636534D01*
X178687963Y-117806373D01*
X178705359Y-117983000D01*
X178687963Y-118159627D01*
X178636443Y-118329466D01*
X178552778Y-118485991D01*
X178549518Y-118489963D01*
X178440186Y-118623186D01*
X178338729Y-118706448D01*
X178302991Y-118735778D01*
X178146466Y-118819443D01*
X177976627Y-118870963D01*
X177910442Y-118877482D01*
X177844260Y-118884000D01*
X177755740Y-118884000D01*
X177689558Y-118877482D01*
X177623373Y-118870963D01*
X177453534Y-118819443D01*
X177297009Y-118735778D01*
X177261271Y-118706448D01*
X177159814Y-118623186D01*
X177050482Y-118489963D01*
X177047222Y-118485991D01*
X176963557Y-118329466D01*
X176912037Y-118159627D01*
X176894641Y-117983000D01*
X176912037Y-117806373D01*
X176963557Y-117636534D01*
X177047222Y-117480009D01*
X177092061Y-117425373D01*
X177159814Y-117342814D01*
X177261271Y-117259552D01*
X177297009Y-117230222D01*
X177453534Y-117146557D01*
X177623373Y-117095037D01*
X177689558Y-117088518D01*
X177755740Y-117082000D01*
X177844260Y-117082000D01*
X177910442Y-117088518D01*
X177910442Y-117088518D01*
G37*
G36*
X193150442Y-116707518D02*
G01*
X193216627Y-116714037D01*
X193386466Y-116765557D01*
X193542991Y-116849222D01*
X193578729Y-116878552D01*
X193680186Y-116961814D01*
X193763448Y-117063271D01*
X193792778Y-117099009D01*
X193876443Y-117255534D01*
X193927963Y-117425373D01*
X193945359Y-117602000D01*
X193927963Y-117778627D01*
X193876443Y-117948466D01*
X193792778Y-118104991D01*
X193763448Y-118140729D01*
X193680186Y-118242186D01*
X193578729Y-118325448D01*
X193542991Y-118354778D01*
X193386466Y-118438443D01*
X193216627Y-118489963D01*
X193150443Y-118496481D01*
X193084260Y-118503000D01*
X192995740Y-118503000D01*
X192929557Y-118496481D01*
X192863373Y-118489963D01*
X192693534Y-118438443D01*
X192537009Y-118354778D01*
X192501271Y-118325448D01*
X192399814Y-118242186D01*
X192316552Y-118140729D01*
X192287222Y-118104991D01*
X192203557Y-117948466D01*
X192152037Y-117778627D01*
X192134641Y-117602000D01*
X192152037Y-117425373D01*
X192203557Y-117255534D01*
X192287222Y-117099009D01*
X192316552Y-117063271D01*
X192399814Y-116961814D01*
X192501271Y-116878552D01*
X192537009Y-116849222D01*
X192693534Y-116765557D01*
X192863373Y-116714037D01*
X192929558Y-116707518D01*
X192995740Y-116701000D01*
X193084260Y-116701000D01*
X193150442Y-116707518D01*
X193150442Y-116707518D01*
G37*
G36*
X154415443Y-114548519D02*
G01*
X154481627Y-114555037D01*
X154651466Y-114606557D01*
X154807991Y-114690222D01*
X154843729Y-114719552D01*
X154945186Y-114802814D01*
X155012939Y-114885373D01*
X155057778Y-114940009D01*
X155141443Y-115096534D01*
X155192963Y-115266373D01*
X155210359Y-115443000D01*
X155192963Y-115619627D01*
X155141443Y-115789466D01*
X155057778Y-115945991D01*
X155054518Y-115949963D01*
X154945186Y-116083186D01*
X154843729Y-116166448D01*
X154807991Y-116195778D01*
X154651466Y-116279443D01*
X154481627Y-116330963D01*
X154415442Y-116337482D01*
X154349260Y-116344000D01*
X154260740Y-116344000D01*
X154194558Y-116337482D01*
X154128373Y-116330963D01*
X153958534Y-116279443D01*
X153802009Y-116195778D01*
X153766271Y-116166448D01*
X153664814Y-116083186D01*
X153555482Y-115949963D01*
X153552222Y-115945991D01*
X153468557Y-115789466D01*
X153417037Y-115619627D01*
X153399641Y-115443000D01*
X153417037Y-115266373D01*
X153468557Y-115096534D01*
X153552222Y-114940009D01*
X153597061Y-114885373D01*
X153664814Y-114802814D01*
X153766271Y-114719552D01*
X153802009Y-114690222D01*
X153958534Y-114606557D01*
X154128373Y-114555037D01*
X154194557Y-114548519D01*
X154260740Y-114542000D01*
X154349260Y-114542000D01*
X154415443Y-114548519D01*
X154415443Y-114548519D01*
G37*
G36*
X177910443Y-114548519D02*
G01*
X177976627Y-114555037D01*
X178146466Y-114606557D01*
X178302991Y-114690222D01*
X178338729Y-114719552D01*
X178440186Y-114802814D01*
X178507939Y-114885373D01*
X178552778Y-114940009D01*
X178636443Y-115096534D01*
X178687963Y-115266373D01*
X178705359Y-115443000D01*
X178687963Y-115619627D01*
X178636443Y-115789466D01*
X178552778Y-115945991D01*
X178549518Y-115949963D01*
X178440186Y-116083186D01*
X178338729Y-116166448D01*
X178302991Y-116195778D01*
X178146466Y-116279443D01*
X177976627Y-116330963D01*
X177910442Y-116337482D01*
X177844260Y-116344000D01*
X177755740Y-116344000D01*
X177689558Y-116337482D01*
X177623373Y-116330963D01*
X177453534Y-116279443D01*
X177297009Y-116195778D01*
X177261271Y-116166448D01*
X177159814Y-116083186D01*
X177050482Y-115949963D01*
X177047222Y-115945991D01*
X176963557Y-115789466D01*
X176912037Y-115619627D01*
X176894641Y-115443000D01*
X176912037Y-115266373D01*
X176963557Y-115096534D01*
X177047222Y-114940009D01*
X177092061Y-114885373D01*
X177159814Y-114802814D01*
X177261271Y-114719552D01*
X177297009Y-114690222D01*
X177453534Y-114606557D01*
X177623373Y-114555037D01*
X177689557Y-114548519D01*
X177755740Y-114542000D01*
X177844260Y-114542000D01*
X177910443Y-114548519D01*
X177910443Y-114548519D01*
G37*
G36*
X193150442Y-114167518D02*
G01*
X193216627Y-114174037D01*
X193386466Y-114225557D01*
X193542991Y-114309222D01*
X193578729Y-114338552D01*
X193680186Y-114421814D01*
X193763448Y-114523271D01*
X193792778Y-114559009D01*
X193876443Y-114715534D01*
X193927963Y-114885373D01*
X193945359Y-115062000D01*
X193927963Y-115238627D01*
X193876443Y-115408466D01*
X193792778Y-115564991D01*
X193763448Y-115600729D01*
X193680186Y-115702186D01*
X193578729Y-115785448D01*
X193542991Y-115814778D01*
X193386466Y-115898443D01*
X193216627Y-115949963D01*
X193150443Y-115956481D01*
X193084260Y-115963000D01*
X192995740Y-115963000D01*
X192929557Y-115956481D01*
X192863373Y-115949963D01*
X192693534Y-115898443D01*
X192537009Y-115814778D01*
X192501271Y-115785448D01*
X192399814Y-115702186D01*
X192316552Y-115600729D01*
X192287222Y-115564991D01*
X192203557Y-115408466D01*
X192152037Y-115238627D01*
X192134641Y-115062000D01*
X192152037Y-114885373D01*
X192203557Y-114715534D01*
X192287222Y-114559009D01*
X192316552Y-114523271D01*
X192399814Y-114421814D01*
X192501271Y-114338552D01*
X192537009Y-114309222D01*
X192693534Y-114225557D01*
X192863373Y-114174037D01*
X192929558Y-114167518D01*
X192995740Y-114161000D01*
X193084260Y-114161000D01*
X193150442Y-114167518D01*
X193150442Y-114167518D01*
G37*
G36*
X177910442Y-112008518D02*
G01*
X177976627Y-112015037D01*
X178146466Y-112066557D01*
X178302991Y-112150222D01*
X178338729Y-112179552D01*
X178440186Y-112262814D01*
X178507939Y-112345373D01*
X178552778Y-112400009D01*
X178636443Y-112556534D01*
X178687963Y-112726373D01*
X178705359Y-112903000D01*
X178687963Y-113079627D01*
X178636443Y-113249466D01*
X178552778Y-113405991D01*
X178549518Y-113409963D01*
X178440186Y-113543186D01*
X178338729Y-113626448D01*
X178302991Y-113655778D01*
X178146466Y-113739443D01*
X177976627Y-113790963D01*
X177910442Y-113797482D01*
X177844260Y-113804000D01*
X177755740Y-113804000D01*
X177689558Y-113797482D01*
X177623373Y-113790963D01*
X177453534Y-113739443D01*
X177297009Y-113655778D01*
X177261271Y-113626448D01*
X177159814Y-113543186D01*
X177050482Y-113409963D01*
X177047222Y-113405991D01*
X176963557Y-113249466D01*
X176912037Y-113079627D01*
X176894641Y-112903000D01*
X176912037Y-112726373D01*
X176963557Y-112556534D01*
X177047222Y-112400009D01*
X177092061Y-112345373D01*
X177159814Y-112262814D01*
X177261271Y-112179552D01*
X177297009Y-112150222D01*
X177453534Y-112066557D01*
X177623373Y-112015037D01*
X177689558Y-112008518D01*
X177755740Y-112002000D01*
X177844260Y-112002000D01*
X177910442Y-112008518D01*
X177910442Y-112008518D01*
G37*
G36*
X154415442Y-112008518D02*
G01*
X154481627Y-112015037D01*
X154651466Y-112066557D01*
X154807991Y-112150222D01*
X154843729Y-112179552D01*
X154945186Y-112262814D01*
X155012939Y-112345373D01*
X155057778Y-112400009D01*
X155141443Y-112556534D01*
X155192963Y-112726373D01*
X155210359Y-112903000D01*
X155192963Y-113079627D01*
X155141443Y-113249466D01*
X155057778Y-113405991D01*
X155054518Y-113409963D01*
X154945186Y-113543186D01*
X154843729Y-113626448D01*
X154807991Y-113655778D01*
X154651466Y-113739443D01*
X154481627Y-113790963D01*
X154415442Y-113797482D01*
X154349260Y-113804000D01*
X154260740Y-113804000D01*
X154194558Y-113797482D01*
X154128373Y-113790963D01*
X153958534Y-113739443D01*
X153802009Y-113655778D01*
X153766271Y-113626448D01*
X153664814Y-113543186D01*
X153555482Y-113409963D01*
X153552222Y-113405991D01*
X153468557Y-113249466D01*
X153417037Y-113079627D01*
X153399641Y-112903000D01*
X153417037Y-112726373D01*
X153468557Y-112556534D01*
X153552222Y-112400009D01*
X153597061Y-112345373D01*
X153664814Y-112262814D01*
X153766271Y-112179552D01*
X153802009Y-112150222D01*
X153958534Y-112066557D01*
X154128373Y-112015037D01*
X154194558Y-112008518D01*
X154260740Y-112002000D01*
X154349260Y-112002000D01*
X154415442Y-112008518D01*
X154415442Y-112008518D01*
G37*
G36*
X193150442Y-111627518D02*
G01*
X193216627Y-111634037D01*
X193386466Y-111685557D01*
X193542991Y-111769222D01*
X193578729Y-111798552D01*
X193680186Y-111881814D01*
X193763448Y-111983271D01*
X193792778Y-112019009D01*
X193876443Y-112175534D01*
X193927963Y-112345373D01*
X193945359Y-112522000D01*
X193927963Y-112698627D01*
X193876443Y-112868466D01*
X193792778Y-113024991D01*
X193763448Y-113060729D01*
X193680186Y-113162186D01*
X193578729Y-113245448D01*
X193542991Y-113274778D01*
X193386466Y-113358443D01*
X193216627Y-113409963D01*
X193150442Y-113416482D01*
X193084260Y-113423000D01*
X192995740Y-113423000D01*
X192929558Y-113416482D01*
X192863373Y-113409963D01*
X192693534Y-113358443D01*
X192537009Y-113274778D01*
X192501271Y-113245448D01*
X192399814Y-113162186D01*
X192316552Y-113060729D01*
X192287222Y-113024991D01*
X192203557Y-112868466D01*
X192152037Y-112698627D01*
X192134641Y-112522000D01*
X192152037Y-112345373D01*
X192203557Y-112175534D01*
X192287222Y-112019009D01*
X192316552Y-111983271D01*
X192399814Y-111881814D01*
X192501271Y-111798552D01*
X192537009Y-111769222D01*
X192693534Y-111685557D01*
X192863373Y-111634037D01*
X192929558Y-111627518D01*
X192995740Y-111621000D01*
X193084260Y-111621000D01*
X193150442Y-111627518D01*
X193150442Y-111627518D01*
G37*
G36*
X93943254Y-108009818D02*
G01*
X94316511Y-108164426D01*
X94316513Y-108164427D01*
X94324054Y-108169466D01*
X94652436Y-108388884D01*
X94938116Y-108674564D01*
X95162574Y-109010489D01*
X95317182Y-109383746D01*
X95396000Y-109779993D01*
X95396000Y-110184007D01*
X95317182Y-110580254D01*
X95162574Y-110953511D01*
X95162573Y-110953513D01*
X94938116Y-111289436D01*
X94652436Y-111575116D01*
X94316513Y-111799573D01*
X94316512Y-111799574D01*
X94316511Y-111799574D01*
X93943254Y-111954182D01*
X93547007Y-112033000D01*
X93142993Y-112033000D01*
X92746746Y-111954182D01*
X92373489Y-111799574D01*
X92373488Y-111799574D01*
X92373487Y-111799573D01*
X92037564Y-111575116D01*
X91751884Y-111289436D01*
X91527427Y-110953513D01*
X91527426Y-110953511D01*
X91372818Y-110580254D01*
X91294000Y-110184007D01*
X91294000Y-109779993D01*
X91372818Y-109383746D01*
X91527426Y-109010489D01*
X91751884Y-108674564D01*
X92037564Y-108388884D01*
X92365946Y-108169466D01*
X92373487Y-108164427D01*
X92373489Y-108164426D01*
X92746746Y-108009818D01*
X93142993Y-107931000D01*
X93547007Y-107931000D01*
X93943254Y-108009818D01*
X93943254Y-108009818D01*
G37*
G36*
X126963254Y-108009818D02*
G01*
X127336511Y-108164426D01*
X127336513Y-108164427D01*
X127344054Y-108169466D01*
X127672436Y-108388884D01*
X127958116Y-108674564D01*
X128182574Y-109010489D01*
X128337182Y-109383746D01*
X128416000Y-109779993D01*
X128416000Y-110184007D01*
X128337182Y-110580254D01*
X128182574Y-110953511D01*
X128182573Y-110953513D01*
X127958116Y-111289436D01*
X127672436Y-111575116D01*
X127336513Y-111799573D01*
X127336512Y-111799574D01*
X127336511Y-111799574D01*
X126963254Y-111954182D01*
X126567007Y-112033000D01*
X126162993Y-112033000D01*
X125766746Y-111954182D01*
X125393489Y-111799574D01*
X125393488Y-111799574D01*
X125393487Y-111799573D01*
X125057564Y-111575116D01*
X124771884Y-111289436D01*
X124547427Y-110953513D01*
X124547426Y-110953511D01*
X124392818Y-110580254D01*
X124314000Y-110184007D01*
X124314000Y-109779993D01*
X124392818Y-109383746D01*
X124547426Y-109010489D01*
X124771884Y-108674564D01*
X125057564Y-108388884D01*
X125385946Y-108169466D01*
X125393487Y-108164427D01*
X125393489Y-108164426D01*
X125766746Y-108009818D01*
X126162993Y-107931000D01*
X126567007Y-107931000D01*
X126963254Y-108009818D01*
X126963254Y-108009818D01*
G37*
G36*
X177910443Y-109468519D02*
G01*
X177976627Y-109475037D01*
X178146466Y-109526557D01*
X178302991Y-109610222D01*
X178338729Y-109639552D01*
X178440186Y-109722814D01*
X178523448Y-109824271D01*
X178552778Y-109860009D01*
X178636443Y-110016534D01*
X178687963Y-110186373D01*
X178705359Y-110363000D01*
X178687963Y-110539627D01*
X178636443Y-110709466D01*
X178552778Y-110865991D01*
X178538819Y-110883000D01*
X178440186Y-111003186D01*
X178338729Y-111086448D01*
X178302991Y-111115778D01*
X178146466Y-111199443D01*
X177976627Y-111250963D01*
X177910443Y-111257481D01*
X177844260Y-111264000D01*
X177755740Y-111264000D01*
X177689557Y-111257481D01*
X177623373Y-111250963D01*
X177453534Y-111199443D01*
X177297009Y-111115778D01*
X177261271Y-111086448D01*
X177159814Y-111003186D01*
X177061181Y-110883000D01*
X177047222Y-110865991D01*
X176963557Y-110709466D01*
X176912037Y-110539627D01*
X176894641Y-110363000D01*
X176912037Y-110186373D01*
X176963557Y-110016534D01*
X177047222Y-109860009D01*
X177076552Y-109824271D01*
X177159814Y-109722814D01*
X177261271Y-109639552D01*
X177297009Y-109610222D01*
X177453534Y-109526557D01*
X177623373Y-109475037D01*
X177689557Y-109468519D01*
X177755740Y-109462000D01*
X177844260Y-109462000D01*
X177910443Y-109468519D01*
X177910443Y-109468519D01*
G37*
G36*
X154415443Y-109468519D02*
G01*
X154481627Y-109475037D01*
X154651466Y-109526557D01*
X154807991Y-109610222D01*
X154843729Y-109639552D01*
X154945186Y-109722814D01*
X155028448Y-109824271D01*
X155057778Y-109860009D01*
X155141443Y-110016534D01*
X155192963Y-110186373D01*
X155210359Y-110363000D01*
X155192963Y-110539627D01*
X155141443Y-110709466D01*
X155057778Y-110865991D01*
X155043819Y-110883000D01*
X154945186Y-111003186D01*
X154843729Y-111086448D01*
X154807991Y-111115778D01*
X154651466Y-111199443D01*
X154481627Y-111250963D01*
X154415443Y-111257481D01*
X154349260Y-111264000D01*
X154260740Y-111264000D01*
X154194557Y-111257481D01*
X154128373Y-111250963D01*
X153958534Y-111199443D01*
X153802009Y-111115778D01*
X153766271Y-111086448D01*
X153664814Y-111003186D01*
X153566181Y-110883000D01*
X153552222Y-110865991D01*
X153468557Y-110709466D01*
X153417037Y-110539627D01*
X153399641Y-110363000D01*
X153417037Y-110186373D01*
X153468557Y-110016534D01*
X153552222Y-109860009D01*
X153581552Y-109824271D01*
X153664814Y-109722814D01*
X153766271Y-109639552D01*
X153802009Y-109610222D01*
X153958534Y-109526557D01*
X154128373Y-109475037D01*
X154194557Y-109468519D01*
X154260740Y-109462000D01*
X154349260Y-109462000D01*
X154415443Y-109468519D01*
X154415443Y-109468519D01*
G37*
G36*
X193941000Y-110883000D02*
G01*
X192139000Y-110883000D01*
X192139000Y-109081000D01*
X193941000Y-109081000D01*
X193941000Y-110883000D01*
X193941000Y-110883000D01*
G37*
G36*
X186575000Y-110121000D02*
G01*
X184773000Y-110121000D01*
X184773000Y-108319000D01*
X186575000Y-108319000D01*
X186575000Y-110121000D01*
X186575000Y-110121000D01*
G37*
G36*
X111723254Y-105469818D02*
G01*
X112096511Y-105624426D01*
X112096513Y-105624427D01*
X112338307Y-105785989D01*
X112432436Y-105848884D01*
X112718116Y-106134564D01*
X112942574Y-106470489D01*
X113097182Y-106843746D01*
X113176000Y-107239993D01*
X113176000Y-107644007D01*
X113097182Y-108040254D01*
X112978827Y-108325989D01*
X112942573Y-108413513D01*
X112718116Y-108749436D01*
X112432436Y-109035116D01*
X112096513Y-109259573D01*
X112096512Y-109259574D01*
X112096511Y-109259574D01*
X111723254Y-109414182D01*
X111327007Y-109493000D01*
X110922993Y-109493000D01*
X110526746Y-109414182D01*
X110153489Y-109259574D01*
X110153488Y-109259574D01*
X110153487Y-109259573D01*
X109817564Y-109035116D01*
X109531884Y-108749436D01*
X109307427Y-108413513D01*
X109271173Y-108325989D01*
X109152818Y-108040254D01*
X109074000Y-107644007D01*
X109074000Y-107239993D01*
X109152818Y-106843746D01*
X109307426Y-106470489D01*
X109531884Y-106134564D01*
X109817564Y-105848884D01*
X109911693Y-105785989D01*
X110153487Y-105624427D01*
X110153489Y-105624426D01*
X110526746Y-105469818D01*
X110922993Y-105391000D01*
X111327007Y-105391000D01*
X111723254Y-105469818D01*
X111723254Y-105469818D01*
G37*
G36*
X144743254Y-105469818D02*
G01*
X145116511Y-105624426D01*
X145116513Y-105624427D01*
X145358307Y-105785989D01*
X145452436Y-105848884D01*
X145738116Y-106134564D01*
X145962574Y-106470489D01*
X146117182Y-106843746D01*
X146196000Y-107239993D01*
X146196000Y-107644007D01*
X146117182Y-108040254D01*
X145998827Y-108325989D01*
X145962573Y-108413513D01*
X145738116Y-108749436D01*
X145452436Y-109035116D01*
X145116513Y-109259573D01*
X145116512Y-109259574D01*
X145116511Y-109259574D01*
X144743254Y-109414182D01*
X144347007Y-109493000D01*
X143942993Y-109493000D01*
X143546746Y-109414182D01*
X143173489Y-109259574D01*
X143173488Y-109259574D01*
X143173487Y-109259573D01*
X142837564Y-109035116D01*
X142551884Y-108749436D01*
X142327427Y-108413513D01*
X142291173Y-108325989D01*
X142172818Y-108040254D01*
X142094000Y-107644007D01*
X142094000Y-107239993D01*
X142172818Y-106843746D01*
X142327426Y-106470489D01*
X142551884Y-106134564D01*
X142837564Y-105848884D01*
X142931693Y-105785989D01*
X143173487Y-105624427D01*
X143173489Y-105624426D01*
X143546746Y-105469818D01*
X143942993Y-105391000D01*
X144347007Y-105391000D01*
X144743254Y-105469818D01*
X144743254Y-105469818D01*
G37*
G36*
X177910443Y-106928519D02*
G01*
X177976627Y-106935037D01*
X178146466Y-106986557D01*
X178302991Y-107070222D01*
X178338729Y-107099552D01*
X178440186Y-107182814D01*
X178523448Y-107284271D01*
X178552778Y-107320009D01*
X178636443Y-107476534D01*
X178687963Y-107646373D01*
X178705359Y-107823000D01*
X178687963Y-107999627D01*
X178636443Y-108169466D01*
X178552778Y-108325991D01*
X178523448Y-108361729D01*
X178440186Y-108463186D01*
X178338729Y-108546448D01*
X178302991Y-108575778D01*
X178146466Y-108659443D01*
X177976627Y-108710963D01*
X177910443Y-108717481D01*
X177844260Y-108724000D01*
X177755740Y-108724000D01*
X177689557Y-108717481D01*
X177623373Y-108710963D01*
X177453534Y-108659443D01*
X177297009Y-108575778D01*
X177261271Y-108546448D01*
X177159814Y-108463186D01*
X177076552Y-108361729D01*
X177047222Y-108325991D01*
X176963557Y-108169466D01*
X176912037Y-107999627D01*
X176894641Y-107823000D01*
X176912037Y-107646373D01*
X176963557Y-107476534D01*
X177047222Y-107320009D01*
X177076552Y-107284271D01*
X177159814Y-107182814D01*
X177261271Y-107099552D01*
X177297009Y-107070222D01*
X177453534Y-106986557D01*
X177623373Y-106935037D01*
X177689557Y-106928519D01*
X177755740Y-106922000D01*
X177844260Y-106922000D01*
X177910443Y-106928519D01*
X177910443Y-106928519D01*
G37*
G36*
X154415443Y-106928519D02*
G01*
X154481627Y-106935037D01*
X154651466Y-106986557D01*
X154807991Y-107070222D01*
X154843729Y-107099552D01*
X154945186Y-107182814D01*
X155028448Y-107284271D01*
X155057778Y-107320009D01*
X155141443Y-107476534D01*
X155192963Y-107646373D01*
X155210359Y-107823000D01*
X155192963Y-107999627D01*
X155141443Y-108169466D01*
X155057778Y-108325991D01*
X155028448Y-108361729D01*
X154945186Y-108463186D01*
X154843729Y-108546448D01*
X154807991Y-108575778D01*
X154651466Y-108659443D01*
X154481627Y-108710963D01*
X154415443Y-108717481D01*
X154349260Y-108724000D01*
X154260740Y-108724000D01*
X154194557Y-108717481D01*
X154128373Y-108710963D01*
X153958534Y-108659443D01*
X153802009Y-108575778D01*
X153766271Y-108546448D01*
X153664814Y-108463186D01*
X153581552Y-108361729D01*
X153552222Y-108325991D01*
X153468557Y-108169466D01*
X153417037Y-107999627D01*
X153399641Y-107823000D01*
X153417037Y-107646373D01*
X153468557Y-107476534D01*
X153552222Y-107320009D01*
X153581552Y-107284271D01*
X153664814Y-107182814D01*
X153766271Y-107099552D01*
X153802009Y-107070222D01*
X153958534Y-106986557D01*
X154128373Y-106935037D01*
X154194557Y-106928519D01*
X154260740Y-106922000D01*
X154349260Y-106922000D01*
X154415443Y-106928519D01*
X154415443Y-106928519D01*
G37*
G36*
X154415443Y-104388519D02*
G01*
X154481627Y-104395037D01*
X154651466Y-104446557D01*
X154807991Y-104530222D01*
X154843729Y-104559552D01*
X154945186Y-104642814D01*
X155012939Y-104725373D01*
X155057778Y-104780009D01*
X155141443Y-104936534D01*
X155192963Y-105106373D01*
X155210359Y-105283000D01*
X155192963Y-105459627D01*
X155141443Y-105629466D01*
X155057778Y-105785991D01*
X155054518Y-105789963D01*
X154945186Y-105923186D01*
X154843729Y-106006448D01*
X154807991Y-106035778D01*
X154651466Y-106119443D01*
X154481627Y-106170963D01*
X154415442Y-106177482D01*
X154349260Y-106184000D01*
X154260740Y-106184000D01*
X154194558Y-106177482D01*
X154128373Y-106170963D01*
X153958534Y-106119443D01*
X153802009Y-106035778D01*
X153766271Y-106006448D01*
X153664814Y-105923186D01*
X153555482Y-105789963D01*
X153552222Y-105785991D01*
X153468557Y-105629466D01*
X153417037Y-105459627D01*
X153399641Y-105283000D01*
X153417037Y-105106373D01*
X153468557Y-104936534D01*
X153552222Y-104780009D01*
X153597061Y-104725373D01*
X153664814Y-104642814D01*
X153766271Y-104559552D01*
X153802009Y-104530222D01*
X153958534Y-104446557D01*
X154128373Y-104395037D01*
X154194558Y-104388518D01*
X154260740Y-104382000D01*
X154349260Y-104382000D01*
X154415443Y-104388519D01*
X154415443Y-104388519D01*
G37*
G36*
X177910443Y-104388519D02*
G01*
X177976627Y-104395037D01*
X178146466Y-104446557D01*
X178302991Y-104530222D01*
X178338729Y-104559552D01*
X178440186Y-104642814D01*
X178507939Y-104725373D01*
X178552778Y-104780009D01*
X178636443Y-104936534D01*
X178687963Y-105106373D01*
X178705359Y-105283000D01*
X178687963Y-105459627D01*
X178636443Y-105629466D01*
X178552778Y-105785991D01*
X178549518Y-105789963D01*
X178440186Y-105923186D01*
X178338729Y-106006448D01*
X178302991Y-106035778D01*
X178146466Y-106119443D01*
X177976627Y-106170963D01*
X177910442Y-106177482D01*
X177844260Y-106184000D01*
X177755740Y-106184000D01*
X177689558Y-106177482D01*
X177623373Y-106170963D01*
X177453534Y-106119443D01*
X177297009Y-106035778D01*
X177261271Y-106006448D01*
X177159814Y-105923186D01*
X177050482Y-105789963D01*
X177047222Y-105785991D01*
X176963557Y-105629466D01*
X176912037Y-105459627D01*
X176894641Y-105283000D01*
X176912037Y-105106373D01*
X176963557Y-104936534D01*
X177047222Y-104780009D01*
X177092061Y-104725373D01*
X177159814Y-104642814D01*
X177261271Y-104559552D01*
X177297009Y-104530222D01*
X177453534Y-104446557D01*
X177623373Y-104395037D01*
X177689558Y-104388518D01*
X177755740Y-104382000D01*
X177844260Y-104382000D01*
X177910443Y-104388519D01*
X177910443Y-104388519D01*
G37*
G36*
X193150443Y-104007519D02*
G01*
X193216627Y-104014037D01*
X193386466Y-104065557D01*
X193542991Y-104149222D01*
X193578729Y-104178552D01*
X193680186Y-104261814D01*
X193763448Y-104363271D01*
X193792778Y-104399009D01*
X193876443Y-104555534D01*
X193927963Y-104725373D01*
X193945359Y-104902000D01*
X193927963Y-105078627D01*
X193876443Y-105248466D01*
X193792778Y-105404991D01*
X193763448Y-105440729D01*
X193680186Y-105542186D01*
X193579975Y-105624426D01*
X193542991Y-105654778D01*
X193386466Y-105738443D01*
X193216627Y-105789963D01*
X193150442Y-105796482D01*
X193084260Y-105803000D01*
X192995740Y-105803000D01*
X192929558Y-105796482D01*
X192863373Y-105789963D01*
X192693534Y-105738443D01*
X192537009Y-105654778D01*
X192500025Y-105624426D01*
X192399814Y-105542186D01*
X192316552Y-105440729D01*
X192287222Y-105404991D01*
X192203557Y-105248466D01*
X192152037Y-105078627D01*
X192134641Y-104902000D01*
X192152037Y-104725373D01*
X192203557Y-104555534D01*
X192287222Y-104399009D01*
X192316552Y-104363271D01*
X192399814Y-104261814D01*
X192501271Y-104178552D01*
X192537009Y-104149222D01*
X192693534Y-104065557D01*
X192863373Y-104014037D01*
X192929558Y-104007518D01*
X192995740Y-104001000D01*
X193084260Y-104001000D01*
X193150443Y-104007519D01*
X193150443Y-104007519D01*
G37*
G36*
X177910443Y-101848519D02*
G01*
X177976627Y-101855037D01*
X178146466Y-101906557D01*
X178302991Y-101990222D01*
X178338729Y-102019552D01*
X178440186Y-102102814D01*
X178507939Y-102185373D01*
X178552778Y-102240009D01*
X178636443Y-102396534D01*
X178687963Y-102566373D01*
X178705359Y-102743000D01*
X178687963Y-102919627D01*
X178636443Y-103089466D01*
X178552778Y-103245991D01*
X178549518Y-103249963D01*
X178440186Y-103383186D01*
X178338729Y-103466448D01*
X178302991Y-103495778D01*
X178146466Y-103579443D01*
X177976627Y-103630963D01*
X177910442Y-103637482D01*
X177844260Y-103644000D01*
X177755740Y-103644000D01*
X177689558Y-103637482D01*
X177623373Y-103630963D01*
X177453534Y-103579443D01*
X177297009Y-103495778D01*
X177261271Y-103466448D01*
X177159814Y-103383186D01*
X177050482Y-103249963D01*
X177047222Y-103245991D01*
X176963557Y-103089466D01*
X176912037Y-102919627D01*
X176894641Y-102743000D01*
X176912037Y-102566373D01*
X176963557Y-102396534D01*
X177047222Y-102240009D01*
X177092061Y-102185373D01*
X177159814Y-102102814D01*
X177261271Y-102019552D01*
X177297009Y-101990222D01*
X177453534Y-101906557D01*
X177623373Y-101855037D01*
X177689557Y-101848519D01*
X177755740Y-101842000D01*
X177844260Y-101842000D01*
X177910443Y-101848519D01*
X177910443Y-101848519D01*
G37*
G36*
X154415443Y-101848519D02*
G01*
X154481627Y-101855037D01*
X154651466Y-101906557D01*
X154807991Y-101990222D01*
X154843729Y-102019552D01*
X154945186Y-102102814D01*
X155012939Y-102185373D01*
X155057778Y-102240009D01*
X155141443Y-102396534D01*
X155192963Y-102566373D01*
X155210359Y-102743000D01*
X155192963Y-102919627D01*
X155141443Y-103089466D01*
X155057778Y-103245991D01*
X155054518Y-103249963D01*
X154945186Y-103383186D01*
X154843729Y-103466448D01*
X154807991Y-103495778D01*
X154651466Y-103579443D01*
X154481627Y-103630963D01*
X154415442Y-103637482D01*
X154349260Y-103644000D01*
X154260740Y-103644000D01*
X154194558Y-103637482D01*
X154128373Y-103630963D01*
X153958534Y-103579443D01*
X153802009Y-103495778D01*
X153766271Y-103466448D01*
X153664814Y-103383186D01*
X153555482Y-103249963D01*
X153552222Y-103245991D01*
X153468557Y-103089466D01*
X153417037Y-102919627D01*
X153399641Y-102743000D01*
X153417037Y-102566373D01*
X153468557Y-102396534D01*
X153552222Y-102240009D01*
X153597061Y-102185373D01*
X153664814Y-102102814D01*
X153766271Y-102019552D01*
X153802009Y-101990222D01*
X153958534Y-101906557D01*
X154128373Y-101855037D01*
X154194557Y-101848519D01*
X154260740Y-101842000D01*
X154349260Y-101842000D01*
X154415443Y-101848519D01*
X154415443Y-101848519D01*
G37*
G36*
X193150442Y-101467518D02*
G01*
X193216627Y-101474037D01*
X193386466Y-101525557D01*
X193542991Y-101609222D01*
X193578729Y-101638552D01*
X193680186Y-101721814D01*
X193763448Y-101823271D01*
X193792778Y-101859009D01*
X193876443Y-102015534D01*
X193927963Y-102185373D01*
X193945359Y-102362000D01*
X193927963Y-102538627D01*
X193876443Y-102708466D01*
X193792778Y-102864991D01*
X193763448Y-102900729D01*
X193680186Y-103002186D01*
X193578729Y-103085448D01*
X193542991Y-103114778D01*
X193386466Y-103198443D01*
X193216627Y-103249963D01*
X193150442Y-103256482D01*
X193084260Y-103263000D01*
X192995740Y-103263000D01*
X192929558Y-103256482D01*
X192863373Y-103249963D01*
X192693534Y-103198443D01*
X192537009Y-103114778D01*
X192501271Y-103085448D01*
X192399814Y-103002186D01*
X192316552Y-102900729D01*
X192287222Y-102864991D01*
X192203557Y-102708466D01*
X192152037Y-102538627D01*
X192134641Y-102362000D01*
X192152037Y-102185373D01*
X192203557Y-102015534D01*
X192287222Y-101859009D01*
X192316552Y-101823271D01*
X192399814Y-101721814D01*
X192501271Y-101638552D01*
X192537009Y-101609222D01*
X192693534Y-101525557D01*
X192863373Y-101474037D01*
X192929558Y-101467518D01*
X192995740Y-101461000D01*
X193084260Y-101461000D01*
X193150442Y-101467518D01*
X193150442Y-101467518D01*
G37*
G36*
X177910443Y-99308519D02*
G01*
X177976627Y-99315037D01*
X178146466Y-99366557D01*
X178302991Y-99450222D01*
X178338729Y-99479552D01*
X178440186Y-99562814D01*
X178507939Y-99645373D01*
X178552778Y-99700009D01*
X178636443Y-99856534D01*
X178687963Y-100026373D01*
X178705359Y-100203000D01*
X178687963Y-100379627D01*
X178636443Y-100549466D01*
X178552778Y-100705991D01*
X178549518Y-100709963D01*
X178440186Y-100843186D01*
X178338729Y-100926448D01*
X178302991Y-100955778D01*
X178146466Y-101039443D01*
X177976627Y-101090963D01*
X177910443Y-101097481D01*
X177844260Y-101104000D01*
X177755740Y-101104000D01*
X177689557Y-101097481D01*
X177623373Y-101090963D01*
X177453534Y-101039443D01*
X177297009Y-100955778D01*
X177261271Y-100926448D01*
X177159814Y-100843186D01*
X177050482Y-100709963D01*
X177047222Y-100705991D01*
X176963557Y-100549466D01*
X176912037Y-100379627D01*
X176894641Y-100203000D01*
X176912037Y-100026373D01*
X176963557Y-99856534D01*
X177047222Y-99700009D01*
X177092061Y-99645373D01*
X177159814Y-99562814D01*
X177261271Y-99479552D01*
X177297009Y-99450222D01*
X177453534Y-99366557D01*
X177623373Y-99315037D01*
X177689557Y-99308519D01*
X177755740Y-99302000D01*
X177844260Y-99302000D01*
X177910443Y-99308519D01*
X177910443Y-99308519D01*
G37*
G36*
X154415443Y-99308519D02*
G01*
X154481627Y-99315037D01*
X154651466Y-99366557D01*
X154807991Y-99450222D01*
X154843729Y-99479552D01*
X154945186Y-99562814D01*
X155012939Y-99645373D01*
X155057778Y-99700009D01*
X155141443Y-99856534D01*
X155192963Y-100026373D01*
X155210359Y-100203000D01*
X155192963Y-100379627D01*
X155141443Y-100549466D01*
X155057778Y-100705991D01*
X155054518Y-100709963D01*
X154945186Y-100843186D01*
X154843729Y-100926448D01*
X154807991Y-100955778D01*
X154651466Y-101039443D01*
X154481627Y-101090963D01*
X154415443Y-101097481D01*
X154349260Y-101104000D01*
X154260740Y-101104000D01*
X154194557Y-101097481D01*
X154128373Y-101090963D01*
X153958534Y-101039443D01*
X153802009Y-100955778D01*
X153766271Y-100926448D01*
X153664814Y-100843186D01*
X153555482Y-100709963D01*
X153552222Y-100705991D01*
X153468557Y-100549466D01*
X153417037Y-100379627D01*
X153399641Y-100203000D01*
X153417037Y-100026373D01*
X153468557Y-99856534D01*
X153552222Y-99700009D01*
X153597061Y-99645373D01*
X153664814Y-99562814D01*
X153766271Y-99479552D01*
X153802009Y-99450222D01*
X153958534Y-99366557D01*
X154128373Y-99315037D01*
X154194557Y-99308519D01*
X154260740Y-99302000D01*
X154349260Y-99302000D01*
X154415443Y-99308519D01*
X154415443Y-99308519D01*
G37*
G36*
X193150442Y-98927518D02*
G01*
X193216627Y-98934037D01*
X193386466Y-98985557D01*
X193542991Y-99069222D01*
X193578729Y-99098552D01*
X193680186Y-99181814D01*
X193763448Y-99283271D01*
X193792778Y-99319009D01*
X193876443Y-99475534D01*
X193927963Y-99645373D01*
X193945359Y-99822000D01*
X193927963Y-99998627D01*
X193876443Y-100168466D01*
X193792778Y-100324991D01*
X193763448Y-100360729D01*
X193680186Y-100462186D01*
X193578729Y-100545448D01*
X193542991Y-100574778D01*
X193386466Y-100658443D01*
X193216627Y-100709963D01*
X193150443Y-100716481D01*
X193084260Y-100723000D01*
X192995740Y-100723000D01*
X192929558Y-100716482D01*
X192863373Y-100709963D01*
X192693534Y-100658443D01*
X192537009Y-100574778D01*
X192501271Y-100545448D01*
X192399814Y-100462186D01*
X192316552Y-100360729D01*
X192287222Y-100324991D01*
X192203557Y-100168466D01*
X192152037Y-99998627D01*
X192134641Y-99822000D01*
X192152037Y-99645373D01*
X192203557Y-99475534D01*
X192287222Y-99319009D01*
X192316552Y-99283271D01*
X192399814Y-99181814D01*
X192501271Y-99098552D01*
X192537009Y-99069222D01*
X192693534Y-98985557D01*
X192863373Y-98934037D01*
X192929557Y-98927519D01*
X192995740Y-98921000D01*
X193084260Y-98921000D01*
X193150442Y-98927518D01*
X193150442Y-98927518D01*
G37*
G36*
X177910442Y-96768518D02*
G01*
X177976627Y-96775037D01*
X178146466Y-96826557D01*
X178302991Y-96910222D01*
X178338729Y-96939552D01*
X178440186Y-97022814D01*
X178523448Y-97124271D01*
X178552778Y-97160009D01*
X178636443Y-97316534D01*
X178687963Y-97486373D01*
X178705359Y-97663000D01*
X178687963Y-97839627D01*
X178636443Y-98009466D01*
X178552778Y-98165991D01*
X178538819Y-98183000D01*
X178440186Y-98303186D01*
X178338729Y-98386448D01*
X178302991Y-98415778D01*
X178146466Y-98499443D01*
X177976627Y-98550963D01*
X177910442Y-98557482D01*
X177844260Y-98564000D01*
X177755740Y-98564000D01*
X177689558Y-98557482D01*
X177623373Y-98550963D01*
X177453534Y-98499443D01*
X177297009Y-98415778D01*
X177261271Y-98386448D01*
X177159814Y-98303186D01*
X177061181Y-98183000D01*
X177047222Y-98165991D01*
X176963557Y-98009466D01*
X176912037Y-97839627D01*
X176894641Y-97663000D01*
X176912037Y-97486373D01*
X176963557Y-97316534D01*
X177047222Y-97160009D01*
X177076552Y-97124271D01*
X177159814Y-97022814D01*
X177261271Y-96939552D01*
X177297009Y-96910222D01*
X177453534Y-96826557D01*
X177623373Y-96775037D01*
X177689558Y-96768518D01*
X177755740Y-96762000D01*
X177844260Y-96762000D01*
X177910442Y-96768518D01*
X177910442Y-96768518D01*
G37*
G36*
X154415442Y-96768518D02*
G01*
X154481627Y-96775037D01*
X154651466Y-96826557D01*
X154807991Y-96910222D01*
X154843729Y-96939552D01*
X154945186Y-97022814D01*
X155028448Y-97124271D01*
X155057778Y-97160009D01*
X155141443Y-97316534D01*
X155192963Y-97486373D01*
X155210359Y-97663000D01*
X155192963Y-97839627D01*
X155141443Y-98009466D01*
X155057778Y-98165991D01*
X155043819Y-98183000D01*
X154945186Y-98303186D01*
X154843729Y-98386448D01*
X154807991Y-98415778D01*
X154651466Y-98499443D01*
X154481627Y-98550963D01*
X154415442Y-98557482D01*
X154349260Y-98564000D01*
X154260740Y-98564000D01*
X154194558Y-98557482D01*
X154128373Y-98550963D01*
X153958534Y-98499443D01*
X153802009Y-98415778D01*
X153766271Y-98386448D01*
X153664814Y-98303186D01*
X153566181Y-98183000D01*
X153552222Y-98165991D01*
X153468557Y-98009466D01*
X153417037Y-97839627D01*
X153399641Y-97663000D01*
X153417037Y-97486373D01*
X153468557Y-97316534D01*
X153552222Y-97160009D01*
X153581552Y-97124271D01*
X153664814Y-97022814D01*
X153766271Y-96939552D01*
X153802009Y-96910222D01*
X153958534Y-96826557D01*
X154128373Y-96775037D01*
X154194558Y-96768518D01*
X154260740Y-96762000D01*
X154349260Y-96762000D01*
X154415442Y-96768518D01*
X154415442Y-96768518D01*
G37*
G36*
X193941000Y-98183000D02*
G01*
X192139000Y-98183000D01*
X192139000Y-96381000D01*
X193941000Y-96381000D01*
X193941000Y-98183000D01*
X193941000Y-98183000D01*
G37*
G36*
X186067000Y-97167000D02*
G01*
X184265000Y-97167000D01*
X184265000Y-95365000D01*
X186067000Y-95365000D01*
X186067000Y-97167000D01*
X186067000Y-97167000D01*
G37*
G36*
X182736443Y-95371519D02*
G01*
X182802627Y-95378037D01*
X182972466Y-95429557D01*
X183128991Y-95513222D01*
X183164729Y-95542552D01*
X183266186Y-95625814D01*
X183349448Y-95727271D01*
X183378778Y-95763009D01*
X183462443Y-95919534D01*
X183513963Y-96089373D01*
X183531359Y-96266000D01*
X183513963Y-96442627D01*
X183462443Y-96612466D01*
X183378778Y-96768991D01*
X183373816Y-96775037D01*
X183266186Y-96906186D01*
X183164729Y-96989448D01*
X183128991Y-97018778D01*
X182972466Y-97102443D01*
X182802627Y-97153963D01*
X182736443Y-97160481D01*
X182670260Y-97167000D01*
X182581740Y-97167000D01*
X182515557Y-97160481D01*
X182449373Y-97153963D01*
X182279534Y-97102443D01*
X182123009Y-97018778D01*
X182087271Y-96989448D01*
X181985814Y-96906186D01*
X181878184Y-96775037D01*
X181873222Y-96768991D01*
X181789557Y-96612466D01*
X181738037Y-96442627D01*
X181720641Y-96266000D01*
X181738037Y-96089373D01*
X181789557Y-95919534D01*
X181873222Y-95763009D01*
X181902552Y-95727271D01*
X181985814Y-95625814D01*
X182087271Y-95542552D01*
X182123009Y-95513222D01*
X182279534Y-95429557D01*
X182449373Y-95378037D01*
X182515557Y-95371519D01*
X182581740Y-95365000D01*
X182670260Y-95365000D01*
X182736443Y-95371519D01*
X182736443Y-95371519D01*
G37*
G36*
X177910443Y-94228519D02*
G01*
X177976627Y-94235037D01*
X178146466Y-94286557D01*
X178302991Y-94370222D01*
X178338729Y-94399552D01*
X178440186Y-94482814D01*
X178523448Y-94584271D01*
X178552778Y-94620009D01*
X178636443Y-94776534D01*
X178687963Y-94946373D01*
X178705359Y-95123000D01*
X178687963Y-95299627D01*
X178636443Y-95469466D01*
X178552778Y-95625991D01*
X178523448Y-95661729D01*
X178440186Y-95763186D01*
X178338729Y-95846448D01*
X178302991Y-95875778D01*
X178146466Y-95959443D01*
X177976627Y-96010963D01*
X177910443Y-96017481D01*
X177844260Y-96024000D01*
X177755740Y-96024000D01*
X177689557Y-96017481D01*
X177623373Y-96010963D01*
X177453534Y-95959443D01*
X177297009Y-95875778D01*
X177261271Y-95846448D01*
X177159814Y-95763186D01*
X177076552Y-95661729D01*
X177047222Y-95625991D01*
X176963557Y-95469466D01*
X176912037Y-95299627D01*
X176894641Y-95123000D01*
X176912037Y-94946373D01*
X176963557Y-94776534D01*
X177047222Y-94620009D01*
X177076552Y-94584271D01*
X177159814Y-94482814D01*
X177261271Y-94399552D01*
X177297009Y-94370222D01*
X177453534Y-94286557D01*
X177623373Y-94235037D01*
X177689557Y-94228519D01*
X177755740Y-94222000D01*
X177844260Y-94222000D01*
X177910443Y-94228519D01*
X177910443Y-94228519D01*
G37*
G36*
X154415443Y-94228519D02*
G01*
X154481627Y-94235037D01*
X154651466Y-94286557D01*
X154807991Y-94370222D01*
X154843729Y-94399552D01*
X154945186Y-94482814D01*
X155028448Y-94584271D01*
X155057778Y-94620009D01*
X155141443Y-94776534D01*
X155192963Y-94946373D01*
X155210359Y-95123000D01*
X155192963Y-95299627D01*
X155141443Y-95469466D01*
X155057778Y-95625991D01*
X155028448Y-95661729D01*
X154945186Y-95763186D01*
X154843729Y-95846448D01*
X154807991Y-95875778D01*
X154651466Y-95959443D01*
X154481627Y-96010963D01*
X154415443Y-96017481D01*
X154349260Y-96024000D01*
X154260740Y-96024000D01*
X154194557Y-96017481D01*
X154128373Y-96010963D01*
X153958534Y-95959443D01*
X153802009Y-95875778D01*
X153766271Y-95846448D01*
X153664814Y-95763186D01*
X153581552Y-95661729D01*
X153552222Y-95625991D01*
X153468557Y-95469466D01*
X153417037Y-95299627D01*
X153399641Y-95123000D01*
X153417037Y-94946373D01*
X153468557Y-94776534D01*
X153552222Y-94620009D01*
X153581552Y-94584271D01*
X153664814Y-94482814D01*
X153766271Y-94399552D01*
X153802009Y-94370222D01*
X153958534Y-94286557D01*
X154128373Y-94235037D01*
X154194557Y-94228519D01*
X154260740Y-94222000D01*
X154349260Y-94222000D01*
X154415443Y-94228519D01*
X154415443Y-94228519D01*
G37*
G36*
X177910443Y-91688519D02*
G01*
X177976627Y-91695037D01*
X178146466Y-91746557D01*
X178302991Y-91830222D01*
X178337778Y-91858771D01*
X178440186Y-91942814D01*
X178523448Y-92044271D01*
X178552778Y-92080009D01*
X178552779Y-92080011D01*
X178612006Y-92190815D01*
X178636443Y-92236534D01*
X178687963Y-92406373D01*
X178705359Y-92583000D01*
X178687963Y-92759627D01*
X178636443Y-92929466D01*
X178552778Y-93085991D01*
X178523448Y-93121729D01*
X178440186Y-93223186D01*
X178338729Y-93306448D01*
X178302991Y-93335778D01*
X178146466Y-93419443D01*
X177976627Y-93470963D01*
X177910443Y-93477481D01*
X177844260Y-93484000D01*
X177755740Y-93484000D01*
X177689557Y-93477481D01*
X177623373Y-93470963D01*
X177453534Y-93419443D01*
X177297009Y-93335778D01*
X177261271Y-93306448D01*
X177159814Y-93223186D01*
X177076552Y-93121729D01*
X177047222Y-93085991D01*
X176963557Y-92929466D01*
X176912037Y-92759627D01*
X176894641Y-92583000D01*
X176912037Y-92406373D01*
X176963557Y-92236534D01*
X176987995Y-92190815D01*
X177047221Y-92080011D01*
X177047222Y-92080009D01*
X177076552Y-92044271D01*
X177159814Y-91942814D01*
X177262222Y-91858771D01*
X177297009Y-91830222D01*
X177453534Y-91746557D01*
X177623373Y-91695037D01*
X177689558Y-91688518D01*
X177755740Y-91682000D01*
X177844260Y-91682000D01*
X177910443Y-91688519D01*
X177910443Y-91688519D01*
G37*
G36*
X155206000Y-93484000D02*
G01*
X153404000Y-93484000D01*
X153404000Y-91682000D01*
X155206000Y-91682000D01*
X155206000Y-93484000D01*
X155206000Y-93484000D01*
G37*
G36*
X91898228Y-91288703D02*
G01*
X92053100Y-91352853D01*
X92192481Y-91445985D01*
X92311015Y-91564519D01*
X92404147Y-91703900D01*
X92468297Y-91858772D01*
X92501000Y-92023184D01*
X92501000Y-92190816D01*
X92468297Y-92355228D01*
X92404147Y-92510100D01*
X92311015Y-92649481D01*
X92192481Y-92768015D01*
X92053100Y-92861147D01*
X91898228Y-92925297D01*
X91733816Y-92958000D01*
X91566184Y-92958000D01*
X91401772Y-92925297D01*
X91246900Y-92861147D01*
X91107519Y-92768015D01*
X90988985Y-92649481D01*
X90895853Y-92510100D01*
X90831703Y-92355228D01*
X90799000Y-92190816D01*
X90799000Y-92023184D01*
X90831703Y-91858772D01*
X90895853Y-91703900D01*
X90988985Y-91564519D01*
X91107519Y-91445985D01*
X91246900Y-91352853D01*
X91401772Y-91288703D01*
X91566184Y-91256000D01*
X91733816Y-91256000D01*
X91898228Y-91288703D01*
X91898228Y-91288703D01*
G37*
G36*
X193150442Y-89021518D02*
G01*
X193216627Y-89028037D01*
X193386466Y-89079557D01*
X193542991Y-89163222D01*
X193578729Y-89192552D01*
X193680186Y-89275814D01*
X193743550Y-89353025D01*
X193792778Y-89413009D01*
X193876443Y-89569534D01*
X193927963Y-89739373D01*
X193945359Y-89916000D01*
X193927963Y-90092627D01*
X193876443Y-90262466D01*
X193792778Y-90418991D01*
X193763448Y-90454729D01*
X193680186Y-90556186D01*
X193578729Y-90639448D01*
X193542991Y-90668778D01*
X193386466Y-90752443D01*
X193216627Y-90803963D01*
X193150443Y-90810481D01*
X193084260Y-90817000D01*
X192995740Y-90817000D01*
X192929557Y-90810481D01*
X192863373Y-90803963D01*
X192693534Y-90752443D01*
X192537009Y-90668778D01*
X192501271Y-90639448D01*
X192399814Y-90556186D01*
X192316552Y-90454729D01*
X192287222Y-90418991D01*
X192203557Y-90262466D01*
X192152037Y-90092627D01*
X192134641Y-89916000D01*
X192152037Y-89739373D01*
X192203557Y-89569534D01*
X192287222Y-89413009D01*
X192336450Y-89353025D01*
X192399814Y-89275814D01*
X192501271Y-89192552D01*
X192537009Y-89163222D01*
X192693534Y-89079557D01*
X192863373Y-89028037D01*
X192929558Y-89021518D01*
X192995740Y-89015000D01*
X193084260Y-89015000D01*
X193150442Y-89021518D01*
X193150442Y-89021518D01*
G37*
G36*
X103545331Y-86025211D02*
G01*
X103873092Y-86160974D01*
X104168070Y-86358072D01*
X104418928Y-86608930D01*
X104616026Y-86903908D01*
X104751789Y-87231669D01*
X104821000Y-87579616D01*
X104821000Y-87934384D01*
X104751789Y-88282331D01*
X104616026Y-88610092D01*
X104418928Y-88905070D01*
X104168070Y-89155928D01*
X103873092Y-89353026D01*
X103545331Y-89488789D01*
X103197384Y-89558000D01*
X102842616Y-89558000D01*
X102494669Y-89488789D01*
X102166908Y-89353026D01*
X101871930Y-89155928D01*
X101621072Y-88905070D01*
X101423974Y-88610092D01*
X101288211Y-88282331D01*
X101219000Y-87934384D01*
X101219000Y-87579616D01*
X101288211Y-87231669D01*
X101423974Y-86903908D01*
X101621072Y-86608930D01*
X101871930Y-86358072D01*
X102166908Y-86160974D01*
X102494669Y-86025211D01*
X102842616Y-85956000D01*
X103197384Y-85956000D01*
X103545331Y-86025211D01*
X103545331Y-86025211D01*
G37*
G36*
X95625331Y-86025211D02*
G01*
X95953092Y-86160974D01*
X96248070Y-86358072D01*
X96498928Y-86608930D01*
X96696026Y-86903908D01*
X96831789Y-87231669D01*
X96901000Y-87579616D01*
X96901000Y-87934384D01*
X96831789Y-88282331D01*
X96696026Y-88610092D01*
X96498928Y-88905070D01*
X96248070Y-89155928D01*
X95953092Y-89353026D01*
X95625331Y-89488789D01*
X95277384Y-89558000D01*
X94922616Y-89558000D01*
X94574669Y-89488789D01*
X94246908Y-89353026D01*
X93951930Y-89155928D01*
X93701072Y-88905070D01*
X93503974Y-88610092D01*
X93368211Y-88282331D01*
X93299000Y-87934384D01*
X93299000Y-87579616D01*
X93368211Y-87231669D01*
X93503974Y-86903908D01*
X93701072Y-86608930D01*
X93951930Y-86358072D01*
X94246908Y-86160974D01*
X94574669Y-86025211D01*
X94922616Y-85956000D01*
X95277384Y-85956000D01*
X95625331Y-86025211D01*
X95625331Y-86025211D01*
G37*
G36*
X193941000Y-88277000D02*
G01*
X192139000Y-88277000D01*
X192139000Y-86475000D01*
X193941000Y-86475000D01*
X193941000Y-88277000D01*
X193941000Y-88277000D01*
G37*
G36*
X127139000Y-86245000D02*
G01*
X125337000Y-86245000D01*
X125337000Y-84443000D01*
X127139000Y-84443000D01*
X127139000Y-86245000D01*
X127139000Y-86245000D01*
G37*
G36*
X144671936Y-76725340D02*
G01*
X144770220Y-76735020D01*
X144959381Y-76792401D01*
X145133712Y-76885583D01*
X145286515Y-77010985D01*
X145411917Y-77163788D01*
X145505099Y-77338119D01*
X145562480Y-77527280D01*
X145581855Y-77724000D01*
X145562480Y-77920720D01*
X145505099Y-78109881D01*
X145411917Y-78284212D01*
X145286515Y-78437015D01*
X145133712Y-78562417D01*
X144959381Y-78655599D01*
X144770220Y-78712980D01*
X144671936Y-78722660D01*
X144622795Y-78727500D01*
X144429205Y-78727500D01*
X144380064Y-78722660D01*
X144281780Y-78712980D01*
X144092619Y-78655599D01*
X143918288Y-78562417D01*
X143765485Y-78437015D01*
X143640083Y-78284212D01*
X143546901Y-78109881D01*
X143489520Y-77920720D01*
X143470145Y-77724000D01*
X143489520Y-77527280D01*
X143546901Y-77338119D01*
X143640083Y-77163788D01*
X143765485Y-77010985D01*
X143918288Y-76885583D01*
X144092619Y-76792401D01*
X144281780Y-76735020D01*
X144380064Y-76725340D01*
X144429205Y-76720500D01*
X144622795Y-76720500D01*
X144671936Y-76725340D01*
X144671936Y-76725340D01*
G37*
G36*
X91898228Y-76048703D02*
G01*
X92053100Y-76112853D01*
X92192481Y-76205985D01*
X92311015Y-76324519D01*
X92404147Y-76463900D01*
X92468297Y-76618772D01*
X92501000Y-76783184D01*
X92501000Y-76950816D01*
X92468297Y-77115228D01*
X92404147Y-77270100D01*
X92311015Y-77409481D01*
X92192481Y-77528015D01*
X92053100Y-77621147D01*
X91898228Y-77685297D01*
X91733816Y-77718000D01*
X91566184Y-77718000D01*
X91401772Y-77685297D01*
X91246900Y-77621147D01*
X91107519Y-77528015D01*
X90988985Y-77409481D01*
X90895853Y-77270100D01*
X90831703Y-77115228D01*
X90799000Y-76950816D01*
X90799000Y-76783184D01*
X90831703Y-76618772D01*
X90895853Y-76463900D01*
X90988985Y-76324519D01*
X91107519Y-76205985D01*
X91246900Y-76112853D01*
X91401772Y-76048703D01*
X91566184Y-76016000D01*
X91733816Y-76016000D01*
X91898228Y-76048703D01*
X91898228Y-76048703D01*
G37*
G36*
X144671936Y-74185340D02*
G01*
X144770220Y-74195020D01*
X144959381Y-74252401D01*
X145133712Y-74345583D01*
X145286515Y-74470985D01*
X145411917Y-74623788D01*
X145505099Y-74798119D01*
X145562480Y-74987280D01*
X145581855Y-75184000D01*
X145562480Y-75380720D01*
X145505099Y-75569881D01*
X145411917Y-75744212D01*
X145286515Y-75897015D01*
X145133712Y-76022417D01*
X144959381Y-76115599D01*
X144770220Y-76172980D01*
X144671936Y-76182660D01*
X144622795Y-76187500D01*
X144429205Y-76187500D01*
X144380064Y-76182660D01*
X144281780Y-76172980D01*
X144092619Y-76115599D01*
X143918288Y-76022417D01*
X143765485Y-75897015D01*
X143640083Y-75744212D01*
X143546901Y-75569881D01*
X143489520Y-75380720D01*
X143470145Y-75184000D01*
X143489520Y-74987280D01*
X143546901Y-74798119D01*
X143640083Y-74623788D01*
X143765485Y-74470985D01*
X143918288Y-74345583D01*
X144092619Y-74252401D01*
X144281780Y-74195020D01*
X144380064Y-74185340D01*
X144429205Y-74180500D01*
X144622795Y-74180500D01*
X144671936Y-74185340D01*
X144671936Y-74185340D01*
G37*
G36*
X103545331Y-70785211D02*
G01*
X103873092Y-70920974D01*
X104168070Y-71118072D01*
X104418928Y-71368930D01*
X104616026Y-71663908D01*
X104751789Y-71991669D01*
X104821000Y-72339616D01*
X104821000Y-72694384D01*
X104751789Y-73042331D01*
X104616026Y-73370092D01*
X104418928Y-73665070D01*
X104168070Y-73915928D01*
X103873092Y-74113026D01*
X103545331Y-74248789D01*
X103197384Y-74318000D01*
X102842616Y-74318000D01*
X102494669Y-74248789D01*
X102166908Y-74113026D01*
X101871930Y-73915928D01*
X101621072Y-73665070D01*
X101423974Y-73370092D01*
X101288211Y-73042331D01*
X101219000Y-72694384D01*
X101219000Y-72339616D01*
X101288211Y-71991669D01*
X101423974Y-71663908D01*
X101621072Y-71368930D01*
X101871930Y-71118072D01*
X102166908Y-70920974D01*
X102494669Y-70785211D01*
X102842616Y-70716000D01*
X103197384Y-70716000D01*
X103545331Y-70785211D01*
X103545331Y-70785211D01*
G37*
G36*
X95625331Y-70785211D02*
G01*
X95953092Y-70920974D01*
X96248070Y-71118072D01*
X96498928Y-71368930D01*
X96696026Y-71663908D01*
X96831789Y-71991669D01*
X96901000Y-72339616D01*
X96901000Y-72694384D01*
X96831789Y-73042331D01*
X96696026Y-73370092D01*
X96498928Y-73665070D01*
X96248070Y-73915928D01*
X95953092Y-74113026D01*
X95625331Y-74248789D01*
X95277384Y-74318000D01*
X94922616Y-74318000D01*
X94574669Y-74248789D01*
X94246908Y-74113026D01*
X93951930Y-73915928D01*
X93701072Y-73665070D01*
X93503974Y-73370092D01*
X93368211Y-73042331D01*
X93299000Y-72694384D01*
X93299000Y-72339616D01*
X93368211Y-71991669D01*
X93503974Y-71663908D01*
X93701072Y-71368930D01*
X93951930Y-71118072D01*
X94246908Y-70920974D01*
X94574669Y-70785211D01*
X94922616Y-70716000D01*
X95277384Y-70716000D01*
X95625331Y-70785211D01*
X95625331Y-70785211D01*
G37*
G36*
X145577000Y-73647500D02*
G01*
X143475000Y-73647500D01*
X143475000Y-71640500D01*
X145577000Y-71640500D01*
X145577000Y-73647500D01*
X145577000Y-73647500D01*
G37*
G36*
X82998903Y-65815213D02*
G01*
X83221177Y-65859426D01*
X83639932Y-66032880D01*
X84016802Y-66284696D01*
X84337304Y-66605198D01*
X84589120Y-66982068D01*
X84762574Y-67400823D01*
X84851000Y-67845371D01*
X84851000Y-68298629D01*
X84762574Y-68743177D01*
X84589120Y-69161932D01*
X84337304Y-69538802D01*
X84016802Y-69859304D01*
X83639932Y-70111120D01*
X83221177Y-70284574D01*
X82998903Y-70328787D01*
X82776630Y-70373000D01*
X82323370Y-70373000D01*
X82101097Y-70328787D01*
X81878823Y-70284574D01*
X81460068Y-70111120D01*
X81083198Y-69859304D01*
X80762696Y-69538802D01*
X80510880Y-69161932D01*
X80337426Y-68743177D01*
X80249000Y-68298629D01*
X80249000Y-67845371D01*
X80337426Y-67400823D01*
X80510880Y-66982068D01*
X80762696Y-66605198D01*
X81083198Y-66284696D01*
X81460068Y-66032880D01*
X81878823Y-65859426D01*
X82101097Y-65815213D01*
X82323370Y-65771000D01*
X82776630Y-65771000D01*
X82998903Y-65815213D01*
X82998903Y-65815213D01*
G37*
G36*
X194758903Y-65815213D02*
G01*
X194981177Y-65859426D01*
X195399932Y-66032880D01*
X195776802Y-66284696D01*
X196097304Y-66605198D01*
X196349120Y-66982068D01*
X196522574Y-67400823D01*
X196611000Y-67845371D01*
X196611000Y-68298629D01*
X196522574Y-68743177D01*
X196349120Y-69161932D01*
X196097304Y-69538802D01*
X195776802Y-69859304D01*
X195399932Y-70111120D01*
X194981177Y-70284574D01*
X194758903Y-70328787D01*
X194536630Y-70373000D01*
X194083370Y-70373000D01*
X193861097Y-70328787D01*
X193638823Y-70284574D01*
X193220068Y-70111120D01*
X192843198Y-69859304D01*
X192522696Y-69538802D01*
X192270880Y-69161932D01*
X192097426Y-68743177D01*
X192009000Y-68298629D01*
X192009000Y-67845371D01*
X192097426Y-67400823D01*
X192270880Y-66982068D01*
X192522696Y-66605198D01*
X192843198Y-66284696D01*
X193220068Y-66032880D01*
X193638823Y-65859426D01*
X193861097Y-65815213D01*
X194083370Y-65771000D01*
X194536630Y-65771000D01*
X194758903Y-65815213D01*
X194758903Y-65815213D01*
G37*
G36*
X139331000Y-67957000D02*
G01*
X137529000Y-67957000D01*
X137529000Y-66155000D01*
X139331000Y-66155000D01*
X139331000Y-67957000D01*
X139331000Y-67957000D01*
G37*
G36*
X133743000Y-67957000D02*
G01*
X131941000Y-67957000D01*
X131941000Y-66155000D01*
X133743000Y-66155000D01*
X133743000Y-67957000D01*
X133743000Y-67957000D01*
G37*
G36*
X161175000Y-67830000D02*
G01*
X159373000Y-67830000D01*
X159373000Y-66028000D01*
X161175000Y-66028000D01*
X161175000Y-67830000D01*
X161175000Y-67830000D01*
G37*
M02*
