M48
; DRILL file {KiCad (5.1.4)-1} date 10/17/2019 4:47:12 PM
; FORMAT={-:-/ absolute / inch / decimal}
; #@! TF.CreationDate,2019-10-17T16:47:12-04:00
; #@! TF.GenerationSoftware,Kicad,Pcbnew,(5.1.4)-1
; #@! TF.FileFunction,Plated,1,2,PTH
FMAT,2
INCH
T1C0.0157
T2C0.0394
T3C0.0433
T4C0.0453
T5C0.0669
T6C0.0811
T7C0.0866
%
G90
G05
T1
X4.34Y-5.69
X4.43Y-3.56
X4.43Y-3.6
X4.43Y-3.64
X4.43Y-3.68
X4.47Y-3.56
X4.47Y-3.6
X4.47Y-3.64
X4.47Y-3.68
X4.51Y-3.56
X4.51Y-3.6
X4.51Y-3.64
X4.51Y-3.68
X4.55Y-3.56
X4.55Y-3.6
X4.55Y-3.64
X4.55Y-3.68
X4.65Y-3.1
X4.75Y-3.1
X4.84Y-3.33
X4.845Y-2.68
X4.845Y-2.715
X4.845Y-2.75
X4.845Y-2.785
X4.85Y-3.56
X4.85Y-3.6
X4.85Y-3.64
X4.85Y-3.68
X4.88Y-2.68
X4.88Y-2.715
X4.88Y-2.75
X4.88Y-2.785
X4.89Y-3.56
X4.89Y-3.6
X4.89Y-3.64
X4.89Y-3.68
X4.915Y-2.715
X4.915Y-2.75
X4.915Y-2.785
X4.93Y-3.56
X4.93Y-3.6
X4.93Y-3.64
X4.93Y-3.68
X4.95Y-2.75
X4.97Y-3.56
X4.97Y-3.6
X4.97Y-3.64
X4.97Y-3.68
X5.13Y-3.285
X5.29Y-3.285
X5.31Y-2.93
X5.37Y-5.69
X5.51Y-3.38
X5.51Y-3.52
X5.55Y-2.91
X5.55Y-3.01
X5.94Y-3.65
X5.96Y-5.1
X5.96Y-5.14
X6.04Y-5.18
X6.06Y-3.14
X6.06Y-3.26
X6.14Y-5.25
X6.27Y-3.37
X6.27Y-3.51
X6.27Y-5.19
X6.29Y-5.05
X6.325Y-3.37
X6.325Y-3.51
X6.5Y-5.19
X6.545Y-3.215
X6.84Y-3.52
X7.15Y-4.92
X7.39Y-3.28
X7.42Y-4.42
X7.45Y-3.85
X7.52Y-3.54
X7.68Y-4.71
T2
X7.31Y-4.3
X7.6Y-3.83
X7.6Y-3.93
X7.6Y-4.03
X7.6Y-4.13
X7.6Y-3.44
X7.6Y-3.54
X7.19Y-3.79
X7.29Y-3.79
X5.45Y-2.64
X6.31Y-2.635
X7.6Y-4.33
X7.6Y-4.43
X7.6Y-4.53
X7.6Y-4.63
X7.6Y-4.73
X7.6Y-4.83
X6.075Y-3.645
X6.075Y-3.745
X6.075Y-3.845
X6.075Y-3.945
X6.075Y-4.045
X6.075Y-4.145
X6.075Y-4.245
X6.075Y-4.345
X6.075Y-4.445
X6.075Y-4.545
X6.075Y-4.645
X6.075Y-4.745
X6.075Y-4.845
X6.075Y-4.945
X6.075Y-5.045
X7.0Y-3.645
X7.0Y-3.745
X7.0Y-3.845
X7.0Y-3.945
X7.0Y-4.045
X7.0Y-4.145
X7.0Y-4.245
X7.0Y-4.345
X7.0Y-4.445
X7.0Y-4.545
X7.0Y-4.645
X7.0Y-4.745
X7.0Y-4.845
X7.0Y-4.945
X7.0Y-5.045
X5.23Y-2.64
X4.97Y-3.36
T3
X5.69Y-2.86
X5.69Y-2.96
X5.69Y-3.06
T4
X5.125Y-4.83
X5.525Y-4.83
X3.825Y-4.83
X4.225Y-4.83
T5
X3.7441Y-3.455
X4.0559Y-3.455
X3.7441Y-2.855
X4.0559Y-2.855
T6
X4.975Y-4.33
X3.675Y-4.33
T7
X5.675Y-4.23
X4.375Y-4.23
T2
G00X4.9955Y-5.43
M15
G01X5.0545Y-5.43
M16
G05
G00X3.6955Y-5.43
M15
G01X3.7545Y-5.43
M16
G05
T0
M30
