G04 #@! TF.GenerationSoftware,KiCad,Pcbnew,(5.1.4)-1*
G04 #@! TF.CreationDate,2019-10-17T16:47:07-04:00*
G04 #@! TF.ProjectId,SegMan,5365674d-616e-42e6-9b69-6361645f7063,1.0*
G04 #@! TF.SameCoordinates,Original*
G04 #@! TF.FileFunction,Copper,L2,Bot*
G04 #@! TF.FilePolarity,Positive*
%FSLAX46Y46*%
G04 Gerber Fmt 4.6, Leading zero omitted, Abs format (unit mm)*
G04 Created by KiCad (PCBNEW (5.1.4)-1) date 2019-10-17 16:47:07*
%MOMM*%
%LPD*%
G04 APERTURE LIST*
%ADD10C,3.500000*%
%ADD11O,1.700000X1.700000*%
%ADD12R,1.700000X1.700000*%
%ADD13R,2.000000X1.905000*%
%ADD14O,2.000000X1.905000*%
%ADD15C,0.100000*%
%ADD16C,2.000000*%
%ADD17C,4.000000*%
%ADD18C,0.800000*%
%ADD19C,0.500000*%
%ADD20C,0.250000*%
%ADD21C,0.254000*%
G04 APERTURE END LIST*
D10*
X95100000Y-87757000D03*
X103020000Y-87757000D03*
X95100000Y-72517000D03*
X103020000Y-72517000D03*
D11*
X154305000Y-97663000D03*
X154305000Y-115443000D03*
X154305000Y-125603000D03*
X154305000Y-123063000D03*
X154305000Y-95123000D03*
X154305000Y-102743000D03*
D12*
X154305000Y-92583000D03*
D11*
X154305000Y-128143000D03*
X154305000Y-120523000D03*
X154305000Y-117983000D03*
X154305000Y-107823000D03*
X154305000Y-110363000D03*
X154305000Y-105283000D03*
X154305000Y-112903000D03*
X154305000Y-100203000D03*
X177800000Y-123063000D03*
X177800000Y-100203000D03*
X177800000Y-95123000D03*
X177800000Y-117983000D03*
X177800000Y-97663000D03*
X177800000Y-115443000D03*
X177800000Y-92583000D03*
X177800000Y-125603000D03*
X177800000Y-110363000D03*
X177800000Y-120523000D03*
X177800000Y-102743000D03*
X177800000Y-112903000D03*
X177800000Y-128143000D03*
X177800000Y-105283000D03*
X177800000Y-107823000D03*
X193040000Y-89916000D03*
D12*
X193040000Y-87376000D03*
X132842000Y-67056000D03*
X138430000Y-67056000D03*
X126238000Y-85344000D03*
X185674000Y-109220000D03*
X160274000Y-66929000D03*
D11*
X182626000Y-96266000D03*
D12*
X185166000Y-96266000D03*
D13*
X144526000Y-72644000D03*
D14*
X144526000Y-75184000D03*
X144526000Y-77724000D03*
D15*
G36*
X128845765Y-136176213D02*
G01*
X128930704Y-136188813D01*
X129013999Y-136209677D01*
X129094848Y-136238605D01*
X129172472Y-136275319D01*
X129246124Y-136319464D01*
X129315094Y-136370616D01*
X129378718Y-136428282D01*
X129436384Y-136491906D01*
X129487536Y-136560876D01*
X129531681Y-136634528D01*
X129568395Y-136712152D01*
X129597323Y-136793001D01*
X129618187Y-136876296D01*
X129630787Y-136961235D01*
X129635000Y-137047000D01*
X129635000Y-138797000D01*
X129630787Y-138882765D01*
X129618187Y-138967704D01*
X129597323Y-139050999D01*
X129568395Y-139131848D01*
X129531681Y-139209472D01*
X129487536Y-139283124D01*
X129436384Y-139352094D01*
X129378718Y-139415718D01*
X129315094Y-139473384D01*
X129246124Y-139524536D01*
X129172472Y-139568681D01*
X129094848Y-139605395D01*
X129013999Y-139634323D01*
X128930704Y-139655187D01*
X128845765Y-139667787D01*
X128760000Y-139672000D01*
X126510000Y-139672000D01*
X126424235Y-139667787D01*
X126339296Y-139655187D01*
X126256001Y-139634323D01*
X126175152Y-139605395D01*
X126097528Y-139568681D01*
X126023876Y-139524536D01*
X125954906Y-139473384D01*
X125891282Y-139415718D01*
X125833616Y-139352094D01*
X125782464Y-139283124D01*
X125738319Y-139209472D01*
X125701605Y-139131848D01*
X125672677Y-139050999D01*
X125651813Y-138967704D01*
X125639213Y-138882765D01*
X125635000Y-138797000D01*
X125635000Y-137047000D01*
X125639213Y-136961235D01*
X125651813Y-136876296D01*
X125672677Y-136793001D01*
X125701605Y-136712152D01*
X125738319Y-136634528D01*
X125782464Y-136560876D01*
X125833616Y-136491906D01*
X125891282Y-136428282D01*
X125954906Y-136370616D01*
X126023876Y-136319464D01*
X126097528Y-136275319D01*
X126175152Y-136238605D01*
X126256001Y-136209677D01*
X126339296Y-136188813D01*
X126424235Y-136176213D01*
X126510000Y-136172000D01*
X128760000Y-136172000D01*
X128845765Y-136176213D01*
X128845765Y-136176213D01*
G37*
D10*
X127635000Y-137922000D03*
D15*
G36*
X95825765Y-136176213D02*
G01*
X95910704Y-136188813D01*
X95993999Y-136209677D01*
X96074848Y-136238605D01*
X96152472Y-136275319D01*
X96226124Y-136319464D01*
X96295094Y-136370616D01*
X96358718Y-136428282D01*
X96416384Y-136491906D01*
X96467536Y-136560876D01*
X96511681Y-136634528D01*
X96548395Y-136712152D01*
X96577323Y-136793001D01*
X96598187Y-136876296D01*
X96610787Y-136961235D01*
X96615000Y-137047000D01*
X96615000Y-138797000D01*
X96610787Y-138882765D01*
X96598187Y-138967704D01*
X96577323Y-139050999D01*
X96548395Y-139131848D01*
X96511681Y-139209472D01*
X96467536Y-139283124D01*
X96416384Y-139352094D01*
X96358718Y-139415718D01*
X96295094Y-139473384D01*
X96226124Y-139524536D01*
X96152472Y-139568681D01*
X96074848Y-139605395D01*
X95993999Y-139634323D01*
X95910704Y-139655187D01*
X95825765Y-139667787D01*
X95740000Y-139672000D01*
X93490000Y-139672000D01*
X93404235Y-139667787D01*
X93319296Y-139655187D01*
X93236001Y-139634323D01*
X93155152Y-139605395D01*
X93077528Y-139568681D01*
X93003876Y-139524536D01*
X92934906Y-139473384D01*
X92871282Y-139415718D01*
X92813616Y-139352094D01*
X92762464Y-139283124D01*
X92718319Y-139209472D01*
X92681605Y-139131848D01*
X92652677Y-139050999D01*
X92631813Y-138967704D01*
X92619213Y-138882765D01*
X92615000Y-138797000D01*
X92615000Y-137047000D01*
X92619213Y-136961235D01*
X92631813Y-136876296D01*
X92652677Y-136793001D01*
X92681605Y-136712152D01*
X92718319Y-136634528D01*
X92762464Y-136560876D01*
X92813616Y-136491906D01*
X92871282Y-136428282D01*
X92934906Y-136370616D01*
X93003876Y-136319464D01*
X93077528Y-136275319D01*
X93155152Y-136238605D01*
X93236001Y-136209677D01*
X93319296Y-136188813D01*
X93404235Y-136176213D01*
X93490000Y-136172000D01*
X95740000Y-136172000D01*
X95825765Y-136176213D01*
X95825765Y-136176213D01*
G37*
D10*
X94615000Y-137922000D03*
D16*
X140335000Y-122682000D03*
X130175000Y-122682000D03*
D17*
X126365000Y-109982000D03*
X144145000Y-107442000D03*
X111125000Y-107442000D03*
X93345000Y-109982000D03*
D16*
X97155000Y-122682000D03*
X107315000Y-122682000D03*
D12*
X193040000Y-97282000D03*
D11*
X193040000Y-99822000D03*
X193040000Y-102362000D03*
X193040000Y-104902000D03*
D12*
X193040000Y-109982000D03*
D11*
X193040000Y-112522000D03*
X193040000Y-115062000D03*
X193040000Y-117602000D03*
X193040000Y-120142000D03*
X193040000Y-122682000D03*
D18*
X155956000Y-133350000D03*
X188468000Y-112268000D03*
X189230000Y-97790000D03*
X191008000Y-89916000D03*
X150876000Y-92710000D03*
X153924000Y-82804000D03*
X153924000Y-79756000D03*
X166243000Y-81661000D03*
X140970000Y-73914000D03*
X140970000Y-76454000D03*
X134874000Y-74422000D03*
X122936000Y-84582000D03*
X120650000Y-78740000D03*
X118110000Y-78740000D03*
X151384000Y-130556000D03*
X151384000Y-129540000D03*
X187706000Y-83312000D03*
X153416000Y-131572000D03*
X123063000Y-69850000D03*
X123063000Y-68961000D03*
X123063000Y-68072000D03*
X123952000Y-69850000D03*
X123952000Y-68072000D03*
X123952000Y-68961000D03*
X124841000Y-69850000D03*
X124841000Y-68961000D03*
X125730000Y-69850000D03*
X123063000Y-70739000D03*
X123952000Y-70739000D03*
X124841000Y-70739000D03*
X134366000Y-83439000D03*
X130302000Y-83439000D03*
X139954000Y-85852000D03*
X139954000Y-89408000D03*
X110236000Y-144526000D03*
X136398000Y-144526000D03*
X115570000Y-90424000D03*
X115570000Y-91440000D03*
X115570000Y-92456000D03*
X115570000Y-93472000D03*
X114554000Y-93472000D03*
X114554000Y-92456000D03*
X114554000Y-91440000D03*
X114554000Y-90424000D03*
X113538000Y-90424000D03*
X113538000Y-91440000D03*
X113538000Y-92456000D03*
X113538000Y-93472000D03*
X112522000Y-90424000D03*
X112522000Y-91440000D03*
X112522000Y-92456000D03*
X112522000Y-93472000D03*
X123190000Y-90424000D03*
X123190000Y-91440000D03*
X123190000Y-92456000D03*
X123190000Y-93472000D03*
X124206000Y-93472000D03*
X124206000Y-92456000D03*
X124206000Y-91440000D03*
X124206000Y-90424000D03*
X125222000Y-90424000D03*
X125222000Y-91440000D03*
X125222000Y-92456000D03*
X125222000Y-93472000D03*
X126238000Y-93472000D03*
X126238000Y-92456000D03*
X126238000Y-91440000D03*
X126238000Y-90424000D03*
X159258000Y-131826000D03*
X165100000Y-131826000D03*
X173736000Y-89408000D03*
X159766000Y-128270000D03*
X195072000Y-119634000D03*
X181610000Y-124968000D03*
X160655000Y-89154000D03*
X160655000Y-85598000D03*
X159258000Y-89154000D03*
X159258000Y-85598000D03*
D19*
X154305000Y-115443000D02*
X156591000Y-115443000D01*
X154305000Y-115443000D02*
X152019000Y-115443000D01*
X154305000Y-125603000D02*
X152273000Y-125603000D01*
X154305000Y-125603000D02*
X155829000Y-125603000D01*
X155829000Y-125603000D02*
X156210000Y-125984000D01*
X176597919Y-125603000D02*
X175514000Y-126686919D01*
X177800000Y-125603000D02*
X176597919Y-125603000D01*
X179002081Y-125603000D02*
X179832000Y-126432919D01*
X177800000Y-125603000D02*
X179002081Y-125603000D01*
X179002081Y-107823000D02*
X180086000Y-108906919D01*
X177800000Y-107823000D02*
X179002081Y-107823000D01*
X144526000Y-75184000D02*
X146812000Y-75184000D01*
X146812000Y-75184000D02*
X147066000Y-75438000D01*
X144526000Y-75184000D02*
X142494000Y-75184000D01*
X142494000Y-75184000D02*
X142240000Y-75438000D01*
X160274000Y-66929000D02*
X160274000Y-68279000D01*
X160274000Y-68279000D02*
X160274000Y-70612000D01*
D20*
X134366000Y-83439000D02*
X130302000Y-83439000D01*
D19*
X139954000Y-86417685D02*
X139954000Y-85852000D01*
X139954000Y-89408000D02*
X139954000Y-86417685D01*
D20*
X128397000Y-85344000D02*
X130302000Y-83439000D01*
X126238000Y-85344000D02*
X128397000Y-85344000D01*
D19*
X110236000Y-144526000D02*
X136398000Y-144526000D01*
D20*
X159258000Y-131826000D02*
X165100000Y-131826000D01*
X182626000Y-99314000D02*
X182626000Y-96266000D01*
X193040000Y-102362000D02*
X185674000Y-102362000D01*
X185674000Y-102362000D02*
X182626000Y-99314000D01*
X185166000Y-98806000D02*
X185166000Y-96266000D01*
X193040000Y-99822000D02*
X186182000Y-99822000D01*
X186182000Y-99822000D02*
X185166000Y-98806000D01*
X177800000Y-115443000D02*
X175768000Y-113411000D01*
X175768000Y-113411000D02*
X175768000Y-91440000D01*
X175768000Y-91440000D02*
X173736000Y-89408000D01*
X154559000Y-123063000D02*
X154305000Y-123063000D01*
X159766000Y-128270000D02*
X154559000Y-123063000D01*
X193040000Y-117602000D02*
X195072000Y-119634000D01*
X179705000Y-124968000D02*
X177800000Y-123063000D01*
X181610000Y-124968000D02*
X179705000Y-124968000D01*
X195834000Y-108966000D02*
X195834000Y-112268000D01*
X194818000Y-107950000D02*
X195834000Y-108966000D01*
X195834000Y-112268000D02*
X193040000Y-115062000D01*
X187452000Y-111506000D02*
X191008000Y-107950000D01*
X191008000Y-107950000D02*
X194818000Y-107950000D01*
X187452000Y-111506000D02*
X183896000Y-111506000D01*
X183896000Y-111506000D02*
X183134000Y-110744000D01*
X183134000Y-108077000D02*
X177800000Y-102743000D01*
X183134000Y-110744000D02*
X183134000Y-108077000D01*
X160655000Y-89154000D02*
X160655000Y-85598000D01*
X159258000Y-89154000D02*
X159258000Y-85598000D01*
D21*
G36*
X97016646Y-105047263D02*
G01*
X97334266Y-105101228D01*
X97643818Y-105190409D01*
X97941468Y-105313700D01*
X98223421Y-105469529D01*
X98486156Y-105655951D01*
X98726376Y-105870624D01*
X98941049Y-106110844D01*
X99127471Y-106373579D01*
X99283300Y-106655532D01*
X99406591Y-106953182D01*
X99495772Y-107262734D01*
X99549737Y-107580354D01*
X99568000Y-107905560D01*
X99568000Y-115085799D01*
X99549737Y-115411006D01*
X99495772Y-115728625D01*
X99406591Y-116038177D01*
X99283300Y-116335828D01*
X99127471Y-116617781D01*
X98941049Y-116880516D01*
X98724001Y-117123393D01*
X95403877Y-120443517D01*
X95398983Y-120448694D01*
X95174809Y-120699545D01*
X95165930Y-120710680D01*
X94971251Y-120985053D01*
X94963674Y-120997112D01*
X94800940Y-121291557D01*
X94794760Y-121304388D01*
X94666017Y-121615203D01*
X94661314Y-121628646D01*
X94568180Y-121951920D01*
X94565010Y-121965805D01*
X94508657Y-122297474D01*
X94507063Y-122311626D01*
X94488200Y-122647520D01*
X94488000Y-122654641D01*
X94488000Y-122709359D01*
X94488200Y-122716480D01*
X94507063Y-123052374D01*
X94508657Y-123066526D01*
X94565010Y-123398195D01*
X94568180Y-123412080D01*
X94661314Y-123735354D01*
X94666017Y-123748797D01*
X94794760Y-124059612D01*
X94800940Y-124072443D01*
X94963674Y-124366888D01*
X94971251Y-124378947D01*
X95165930Y-124653320D01*
X95174809Y-124664455D01*
X95398983Y-124915306D01*
X95403877Y-124920483D01*
X98724001Y-128240607D01*
X98941049Y-128483484D01*
X99127471Y-128746219D01*
X99283300Y-129028172D01*
X99406591Y-129325823D01*
X99495772Y-129635375D01*
X99549737Y-129952994D01*
X99568000Y-130278201D01*
X99568000Y-136675799D01*
X99549737Y-137001006D01*
X99495772Y-137318625D01*
X99406591Y-137628177D01*
X99283300Y-137925828D01*
X99127471Y-138207781D01*
X98941049Y-138470516D01*
X98724001Y-138713393D01*
X97946393Y-139491001D01*
X97703516Y-139708049D01*
X97440781Y-139894471D01*
X97158828Y-140050300D01*
X96861177Y-140173591D01*
X96551625Y-140262772D01*
X96234006Y-140316737D01*
X95908799Y-140335000D01*
X93321201Y-140335000D01*
X92995994Y-140316737D01*
X92678375Y-140262772D01*
X92368823Y-140173591D01*
X92071172Y-140050300D01*
X91789219Y-139894471D01*
X91526484Y-139708049D01*
X91283607Y-139491001D01*
X90505999Y-138713393D01*
X90288951Y-138470516D01*
X90102529Y-138207781D01*
X89946700Y-137925828D01*
X89823409Y-137628177D01*
X89734228Y-137318625D01*
X89680263Y-137001006D01*
X89662000Y-136675799D01*
X89662000Y-107905560D01*
X89680263Y-107580354D01*
X89734228Y-107262734D01*
X89823409Y-106953182D01*
X89946700Y-106655532D01*
X90102529Y-106373579D01*
X90288951Y-106110844D01*
X90503624Y-105870624D01*
X90743844Y-105655951D01*
X91006579Y-105469529D01*
X91288532Y-105313700D01*
X91586182Y-105190409D01*
X91895734Y-105101228D01*
X92213354Y-105047263D01*
X92538560Y-105029000D01*
X96691440Y-105029000D01*
X97016646Y-105047263D01*
X97016646Y-105047263D01*
G37*
X97016646Y-105047263D02*
X97334266Y-105101228D01*
X97643818Y-105190409D01*
X97941468Y-105313700D01*
X98223421Y-105469529D01*
X98486156Y-105655951D01*
X98726376Y-105870624D01*
X98941049Y-106110844D01*
X99127471Y-106373579D01*
X99283300Y-106655532D01*
X99406591Y-106953182D01*
X99495772Y-107262734D01*
X99549737Y-107580354D01*
X99568000Y-107905560D01*
X99568000Y-115085799D01*
X99549737Y-115411006D01*
X99495772Y-115728625D01*
X99406591Y-116038177D01*
X99283300Y-116335828D01*
X99127471Y-116617781D01*
X98941049Y-116880516D01*
X98724001Y-117123393D01*
X95403877Y-120443517D01*
X95398983Y-120448694D01*
X95174809Y-120699545D01*
X95165930Y-120710680D01*
X94971251Y-120985053D01*
X94963674Y-120997112D01*
X94800940Y-121291557D01*
X94794760Y-121304388D01*
X94666017Y-121615203D01*
X94661314Y-121628646D01*
X94568180Y-121951920D01*
X94565010Y-121965805D01*
X94508657Y-122297474D01*
X94507063Y-122311626D01*
X94488200Y-122647520D01*
X94488000Y-122654641D01*
X94488000Y-122709359D01*
X94488200Y-122716480D01*
X94507063Y-123052374D01*
X94508657Y-123066526D01*
X94565010Y-123398195D01*
X94568180Y-123412080D01*
X94661314Y-123735354D01*
X94666017Y-123748797D01*
X94794760Y-124059612D01*
X94800940Y-124072443D01*
X94963674Y-124366888D01*
X94971251Y-124378947D01*
X95165930Y-124653320D01*
X95174809Y-124664455D01*
X95398983Y-124915306D01*
X95403877Y-124920483D01*
X98724001Y-128240607D01*
X98941049Y-128483484D01*
X99127471Y-128746219D01*
X99283300Y-129028172D01*
X99406591Y-129325823D01*
X99495772Y-129635375D01*
X99549737Y-129952994D01*
X99568000Y-130278201D01*
X99568000Y-136675799D01*
X99549737Y-137001006D01*
X99495772Y-137318625D01*
X99406591Y-137628177D01*
X99283300Y-137925828D01*
X99127471Y-138207781D01*
X98941049Y-138470516D01*
X98724001Y-138713393D01*
X97946393Y-139491001D01*
X97703516Y-139708049D01*
X97440781Y-139894471D01*
X97158828Y-140050300D01*
X96861177Y-140173591D01*
X96551625Y-140262772D01*
X96234006Y-140316737D01*
X95908799Y-140335000D01*
X93321201Y-140335000D01*
X92995994Y-140316737D01*
X92678375Y-140262772D01*
X92368823Y-140173591D01*
X92071172Y-140050300D01*
X91789219Y-139894471D01*
X91526484Y-139708049D01*
X91283607Y-139491001D01*
X90505999Y-138713393D01*
X90288951Y-138470516D01*
X90102529Y-138207781D01*
X89946700Y-137925828D01*
X89823409Y-137628177D01*
X89734228Y-137318625D01*
X89680263Y-137001006D01*
X89662000Y-136675799D01*
X89662000Y-107905560D01*
X89680263Y-107580354D01*
X89734228Y-107262734D01*
X89823409Y-106953182D01*
X89946700Y-106655532D01*
X90102529Y-106373579D01*
X90288951Y-106110844D01*
X90503624Y-105870624D01*
X90743844Y-105655951D01*
X91006579Y-105469529D01*
X91288532Y-105313700D01*
X91586182Y-105190409D01*
X91895734Y-105101228D01*
X92213354Y-105047263D01*
X92538560Y-105029000D01*
X96691440Y-105029000D01*
X97016646Y-105047263D01*
G36*
X130036646Y-105047263D02*
G01*
X130354266Y-105101228D01*
X130663818Y-105190409D01*
X130961468Y-105313700D01*
X131243421Y-105469529D01*
X131506156Y-105655951D01*
X131746376Y-105870624D01*
X131961049Y-106110844D01*
X132147471Y-106373579D01*
X132303300Y-106655532D01*
X132426591Y-106953182D01*
X132515772Y-107262734D01*
X132569737Y-107580354D01*
X132588000Y-107905560D01*
X132588000Y-115085799D01*
X132569737Y-115411006D01*
X132515772Y-115728625D01*
X132426591Y-116038177D01*
X132303300Y-116335828D01*
X132147471Y-116617781D01*
X131961049Y-116880516D01*
X131744001Y-117123393D01*
X128423877Y-120443517D01*
X128418983Y-120448694D01*
X128194809Y-120699545D01*
X128185930Y-120710680D01*
X127991251Y-120985053D01*
X127983674Y-120997112D01*
X127820940Y-121291557D01*
X127814760Y-121304388D01*
X127686017Y-121615203D01*
X127681314Y-121628646D01*
X127588180Y-121951920D01*
X127585010Y-121965805D01*
X127528657Y-122297474D01*
X127527063Y-122311626D01*
X127508200Y-122647520D01*
X127508000Y-122654641D01*
X127508000Y-122709359D01*
X127508200Y-122716480D01*
X127527063Y-123052374D01*
X127528657Y-123066526D01*
X127585010Y-123398195D01*
X127588180Y-123412080D01*
X127681314Y-123735354D01*
X127686017Y-123748797D01*
X127814760Y-124059612D01*
X127820940Y-124072443D01*
X127983674Y-124366888D01*
X127991251Y-124378947D01*
X128185930Y-124653320D01*
X128194809Y-124664455D01*
X128418983Y-124915306D01*
X128423877Y-124920483D01*
X131744001Y-128240607D01*
X131961049Y-128483484D01*
X132147471Y-128746219D01*
X132303300Y-129028172D01*
X132426591Y-129325823D01*
X132515772Y-129635375D01*
X132569737Y-129952994D01*
X132588000Y-130278201D01*
X132588000Y-136675799D01*
X132569737Y-137001006D01*
X132515772Y-137318625D01*
X132426591Y-137628177D01*
X132303300Y-137925828D01*
X132147471Y-138207781D01*
X131961049Y-138470516D01*
X131744001Y-138713393D01*
X130966393Y-139491001D01*
X130723516Y-139708049D01*
X130460781Y-139894471D01*
X130178828Y-140050300D01*
X129881177Y-140173591D01*
X129571625Y-140262772D01*
X129254006Y-140316737D01*
X128928799Y-140335000D01*
X126341201Y-140335000D01*
X126015994Y-140316737D01*
X125698375Y-140262772D01*
X125388823Y-140173591D01*
X125091172Y-140050300D01*
X124809219Y-139894471D01*
X124546484Y-139708049D01*
X124303607Y-139491001D01*
X123525999Y-138713393D01*
X123308951Y-138470516D01*
X123122529Y-138207781D01*
X122966700Y-137925828D01*
X122843409Y-137628177D01*
X122754228Y-137318625D01*
X122700263Y-137001006D01*
X122682000Y-136675799D01*
X122682000Y-107905560D01*
X122700263Y-107580354D01*
X122754228Y-107262734D01*
X122843409Y-106953182D01*
X122966700Y-106655532D01*
X123122529Y-106373579D01*
X123308951Y-106110844D01*
X123523624Y-105870624D01*
X123763844Y-105655951D01*
X124026579Y-105469529D01*
X124308532Y-105313700D01*
X124606182Y-105190409D01*
X124915734Y-105101228D01*
X125233354Y-105047263D01*
X125558560Y-105029000D01*
X129711440Y-105029000D01*
X130036646Y-105047263D01*
X130036646Y-105047263D01*
G37*
X130036646Y-105047263D02*
X130354266Y-105101228D01*
X130663818Y-105190409D01*
X130961468Y-105313700D01*
X131243421Y-105469529D01*
X131506156Y-105655951D01*
X131746376Y-105870624D01*
X131961049Y-106110844D01*
X132147471Y-106373579D01*
X132303300Y-106655532D01*
X132426591Y-106953182D01*
X132515772Y-107262734D01*
X132569737Y-107580354D01*
X132588000Y-107905560D01*
X132588000Y-115085799D01*
X132569737Y-115411006D01*
X132515772Y-115728625D01*
X132426591Y-116038177D01*
X132303300Y-116335828D01*
X132147471Y-116617781D01*
X131961049Y-116880516D01*
X131744001Y-117123393D01*
X128423877Y-120443517D01*
X128418983Y-120448694D01*
X128194809Y-120699545D01*
X128185930Y-120710680D01*
X127991251Y-120985053D01*
X127983674Y-120997112D01*
X127820940Y-121291557D01*
X127814760Y-121304388D01*
X127686017Y-121615203D01*
X127681314Y-121628646D01*
X127588180Y-121951920D01*
X127585010Y-121965805D01*
X127528657Y-122297474D01*
X127527063Y-122311626D01*
X127508200Y-122647520D01*
X127508000Y-122654641D01*
X127508000Y-122709359D01*
X127508200Y-122716480D01*
X127527063Y-123052374D01*
X127528657Y-123066526D01*
X127585010Y-123398195D01*
X127588180Y-123412080D01*
X127681314Y-123735354D01*
X127686017Y-123748797D01*
X127814760Y-124059612D01*
X127820940Y-124072443D01*
X127983674Y-124366888D01*
X127991251Y-124378947D01*
X128185930Y-124653320D01*
X128194809Y-124664455D01*
X128418983Y-124915306D01*
X128423877Y-124920483D01*
X131744001Y-128240607D01*
X131961049Y-128483484D01*
X132147471Y-128746219D01*
X132303300Y-129028172D01*
X132426591Y-129325823D01*
X132515772Y-129635375D01*
X132569737Y-129952994D01*
X132588000Y-130278201D01*
X132588000Y-136675799D01*
X132569737Y-137001006D01*
X132515772Y-137318625D01*
X132426591Y-137628177D01*
X132303300Y-137925828D01*
X132147471Y-138207781D01*
X131961049Y-138470516D01*
X131744001Y-138713393D01*
X130966393Y-139491001D01*
X130723516Y-139708049D01*
X130460781Y-139894471D01*
X130178828Y-140050300D01*
X129881177Y-140173591D01*
X129571625Y-140262772D01*
X129254006Y-140316737D01*
X128928799Y-140335000D01*
X126341201Y-140335000D01*
X126015994Y-140316737D01*
X125698375Y-140262772D01*
X125388823Y-140173591D01*
X125091172Y-140050300D01*
X124809219Y-139894471D01*
X124546484Y-139708049D01*
X124303607Y-139491001D01*
X123525999Y-138713393D01*
X123308951Y-138470516D01*
X123122529Y-138207781D01*
X122966700Y-137925828D01*
X122843409Y-137628177D01*
X122754228Y-137318625D01*
X122700263Y-137001006D01*
X122682000Y-136675799D01*
X122682000Y-107905560D01*
X122700263Y-107580354D01*
X122754228Y-107262734D01*
X122843409Y-106953182D01*
X122966700Y-106655532D01*
X123122529Y-106373579D01*
X123308951Y-106110844D01*
X123523624Y-105870624D01*
X123763844Y-105655951D01*
X124026579Y-105469529D01*
X124308532Y-105313700D01*
X124606182Y-105190409D01*
X124915734Y-105101228D01*
X125233354Y-105047263D01*
X125558560Y-105029000D01*
X129711440Y-105029000D01*
X130036646Y-105047263D01*
G36*
X105759006Y-84727263D02*
G01*
X106076625Y-84781228D01*
X106386177Y-84870409D01*
X106683828Y-84993700D01*
X106965781Y-85149529D01*
X107228516Y-85335951D01*
X107471393Y-85552999D01*
X110537517Y-88619123D01*
X110542694Y-88624017D01*
X110793545Y-88848191D01*
X110804680Y-88857070D01*
X111079053Y-89051749D01*
X111091112Y-89059326D01*
X111385557Y-89222060D01*
X111398388Y-89228240D01*
X111709203Y-89356983D01*
X111722646Y-89361686D01*
X112045920Y-89454820D01*
X112059805Y-89457990D01*
X112391474Y-89514343D01*
X112405626Y-89515937D01*
X112741520Y-89534800D01*
X112748641Y-89535000D01*
X113914844Y-89535000D01*
X114217346Y-89554827D01*
X114510591Y-89613157D01*
X114793707Y-89709263D01*
X115061865Y-89841503D01*
X115310461Y-90007609D01*
X115535254Y-90204746D01*
X115732391Y-90429539D01*
X115898497Y-90678135D01*
X116030737Y-90946293D01*
X116126843Y-91229409D01*
X116185173Y-91522654D01*
X116205000Y-91825156D01*
X116205000Y-91944168D01*
X116187177Y-92238821D01*
X116134657Y-92525412D01*
X116047974Y-92803586D01*
X115928401Y-93069267D01*
X115777668Y-93318610D01*
X115597988Y-93547955D01*
X115391955Y-93753988D01*
X115162610Y-93933668D01*
X114913267Y-94084401D01*
X114647586Y-94203974D01*
X114369412Y-94290657D01*
X114082821Y-94343177D01*
X113788168Y-94361000D01*
X104370201Y-94361000D01*
X104044994Y-94342737D01*
X103727375Y-94288772D01*
X103417823Y-94199591D01*
X103120172Y-94076300D01*
X102838219Y-93920471D01*
X102575484Y-93734049D01*
X102332607Y-93517001D01*
X101300999Y-92485393D01*
X101083951Y-92242516D01*
X100897529Y-91979781D01*
X100741700Y-91697828D01*
X100618409Y-91400177D01*
X100529228Y-91090625D01*
X100475263Y-90773006D01*
X100457000Y-90447799D01*
X100457000Y-86754182D01*
X100474731Y-86483657D01*
X100526811Y-86221836D01*
X100612615Y-85969066D01*
X100730682Y-85729648D01*
X100878986Y-85507695D01*
X101054995Y-85306995D01*
X101255695Y-85130986D01*
X101477648Y-84982682D01*
X101717066Y-84864615D01*
X101969836Y-84778811D01*
X102231657Y-84726731D01*
X102502182Y-84709000D01*
X105433799Y-84709000D01*
X105759006Y-84727263D01*
X105759006Y-84727263D01*
G37*
X105759006Y-84727263D02*
X106076625Y-84781228D01*
X106386177Y-84870409D01*
X106683828Y-84993700D01*
X106965781Y-85149529D01*
X107228516Y-85335951D01*
X107471393Y-85552999D01*
X110537517Y-88619123D01*
X110542694Y-88624017D01*
X110793545Y-88848191D01*
X110804680Y-88857070D01*
X111079053Y-89051749D01*
X111091112Y-89059326D01*
X111385557Y-89222060D01*
X111398388Y-89228240D01*
X111709203Y-89356983D01*
X111722646Y-89361686D01*
X112045920Y-89454820D01*
X112059805Y-89457990D01*
X112391474Y-89514343D01*
X112405626Y-89515937D01*
X112741520Y-89534800D01*
X112748641Y-89535000D01*
X113914844Y-89535000D01*
X114217346Y-89554827D01*
X114510591Y-89613157D01*
X114793707Y-89709263D01*
X115061865Y-89841503D01*
X115310461Y-90007609D01*
X115535254Y-90204746D01*
X115732391Y-90429539D01*
X115898497Y-90678135D01*
X116030737Y-90946293D01*
X116126843Y-91229409D01*
X116185173Y-91522654D01*
X116205000Y-91825156D01*
X116205000Y-91944168D01*
X116187177Y-92238821D01*
X116134657Y-92525412D01*
X116047974Y-92803586D01*
X115928401Y-93069267D01*
X115777668Y-93318610D01*
X115597988Y-93547955D01*
X115391955Y-93753988D01*
X115162610Y-93933668D01*
X114913267Y-94084401D01*
X114647586Y-94203974D01*
X114369412Y-94290657D01*
X114082821Y-94343177D01*
X113788168Y-94361000D01*
X104370201Y-94361000D01*
X104044994Y-94342737D01*
X103727375Y-94288772D01*
X103417823Y-94199591D01*
X103120172Y-94076300D01*
X102838219Y-93920471D01*
X102575484Y-93734049D01*
X102332607Y-93517001D01*
X101300999Y-92485393D01*
X101083951Y-92242516D01*
X100897529Y-91979781D01*
X100741700Y-91697828D01*
X100618409Y-91400177D01*
X100529228Y-91090625D01*
X100475263Y-90773006D01*
X100457000Y-90447799D01*
X100457000Y-86754182D01*
X100474731Y-86483657D01*
X100526811Y-86221836D01*
X100612615Y-85969066D01*
X100730682Y-85729648D01*
X100878986Y-85507695D01*
X101054995Y-85306995D01*
X101255695Y-85130986D01*
X101477648Y-84982682D01*
X101717066Y-84864615D01*
X101969836Y-84778811D01*
X102231657Y-84726731D01*
X102502182Y-84709000D01*
X105433799Y-84709000D01*
X105759006Y-84727263D01*
G36*
X118999000Y-91641394D02*
G01*
X116279394Y-94361000D01*
X113919000Y-94361000D01*
X113919000Y-89535000D01*
X118999000Y-89535000D01*
X118999000Y-91641394D01*
X118999000Y-91641394D01*
G37*
X118999000Y-91641394D02*
X116279394Y-94361000D01*
X113919000Y-94361000D01*
X113919000Y-89535000D01*
X118999000Y-89535000D01*
X118999000Y-91641394D01*
G36*
X133191006Y-89553263D02*
G01*
X133508625Y-89607228D01*
X133818177Y-89696409D01*
X134115828Y-89819700D01*
X134397781Y-89975529D01*
X134660516Y-90161951D01*
X134903393Y-90378999D01*
X146349001Y-101824607D01*
X146566049Y-102067484D01*
X146752471Y-102330219D01*
X146908300Y-102612172D01*
X147031591Y-102909823D01*
X147120772Y-103219375D01*
X147174737Y-103536994D01*
X147193000Y-103862201D01*
X147193000Y-108317818D01*
X147175269Y-108588343D01*
X147123189Y-108850164D01*
X147037385Y-109102934D01*
X146919318Y-109342352D01*
X146771014Y-109564305D01*
X146595005Y-109765005D01*
X146394305Y-109941014D01*
X146172352Y-110089318D01*
X145932934Y-110207385D01*
X145680164Y-110293189D01*
X145418343Y-110345269D01*
X145147818Y-110363000D01*
X143740201Y-110363000D01*
X143414994Y-110344737D01*
X143097375Y-110290772D01*
X142787823Y-110201591D01*
X142490172Y-110078300D01*
X142208219Y-109922471D01*
X141945484Y-109736049D01*
X141702607Y-109519001D01*
X127460483Y-95276877D01*
X127455306Y-95271983D01*
X127204455Y-95047809D01*
X127193320Y-95038930D01*
X126918947Y-94844251D01*
X126906888Y-94836674D01*
X126612443Y-94673940D01*
X126599612Y-94667760D01*
X126288797Y-94539017D01*
X126275354Y-94534314D01*
X125952080Y-94441180D01*
X125938195Y-94438010D01*
X125606526Y-94381657D01*
X125592374Y-94380063D01*
X125256480Y-94361200D01*
X125249359Y-94361000D01*
X124591530Y-94361000D01*
X124334016Y-94342582D01*
X124086171Y-94288667D01*
X123848524Y-94200029D01*
X123625916Y-94078476D01*
X123422873Y-93926480D01*
X123243520Y-93747127D01*
X123091524Y-93544084D01*
X122969971Y-93321476D01*
X122881333Y-93083829D01*
X122827418Y-92835984D01*
X122809000Y-92578470D01*
X122809000Y-91951832D01*
X122826823Y-91657179D01*
X122879343Y-91370588D01*
X122966026Y-91092414D01*
X123085599Y-90826733D01*
X123236332Y-90577390D01*
X123416012Y-90348045D01*
X123622045Y-90142012D01*
X123851390Y-89962332D01*
X124100733Y-89811599D01*
X124366414Y-89692026D01*
X124644588Y-89605343D01*
X124931179Y-89552823D01*
X125225832Y-89535000D01*
X132865799Y-89535000D01*
X133191006Y-89553263D01*
X133191006Y-89553263D01*
G37*
X133191006Y-89553263D02*
X133508625Y-89607228D01*
X133818177Y-89696409D01*
X134115828Y-89819700D01*
X134397781Y-89975529D01*
X134660516Y-90161951D01*
X134903393Y-90378999D01*
X146349001Y-101824607D01*
X146566049Y-102067484D01*
X146752471Y-102330219D01*
X146908300Y-102612172D01*
X147031591Y-102909823D01*
X147120772Y-103219375D01*
X147174737Y-103536994D01*
X147193000Y-103862201D01*
X147193000Y-108317818D01*
X147175269Y-108588343D01*
X147123189Y-108850164D01*
X147037385Y-109102934D01*
X146919318Y-109342352D01*
X146771014Y-109564305D01*
X146595005Y-109765005D01*
X146394305Y-109941014D01*
X146172352Y-110089318D01*
X145932934Y-110207385D01*
X145680164Y-110293189D01*
X145418343Y-110345269D01*
X145147818Y-110363000D01*
X143740201Y-110363000D01*
X143414994Y-110344737D01*
X143097375Y-110290772D01*
X142787823Y-110201591D01*
X142490172Y-110078300D01*
X142208219Y-109922471D01*
X141945484Y-109736049D01*
X141702607Y-109519001D01*
X127460483Y-95276877D01*
X127455306Y-95271983D01*
X127204455Y-95047809D01*
X127193320Y-95038930D01*
X126918947Y-94844251D01*
X126906888Y-94836674D01*
X126612443Y-94673940D01*
X126599612Y-94667760D01*
X126288797Y-94539017D01*
X126275354Y-94534314D01*
X125952080Y-94441180D01*
X125938195Y-94438010D01*
X125606526Y-94381657D01*
X125592374Y-94380063D01*
X125256480Y-94361200D01*
X125249359Y-94361000D01*
X124591530Y-94361000D01*
X124334016Y-94342582D01*
X124086171Y-94288667D01*
X123848524Y-94200029D01*
X123625916Y-94078476D01*
X123422873Y-93926480D01*
X123243520Y-93747127D01*
X123091524Y-93544084D01*
X122969971Y-93321476D01*
X122881333Y-93083829D01*
X122827418Y-92835984D01*
X122809000Y-92578470D01*
X122809000Y-91951832D01*
X122826823Y-91657179D01*
X122879343Y-91370588D01*
X122966026Y-91092414D01*
X123085599Y-90826733D01*
X123236332Y-90577390D01*
X123416012Y-90348045D01*
X123622045Y-90142012D01*
X123851390Y-89962332D01*
X124100733Y-89811599D01*
X124366414Y-89692026D01*
X124644588Y-89605343D01*
X124931179Y-89552823D01*
X125225832Y-89535000D01*
X132865799Y-89535000D01*
X133191006Y-89553263D01*
G36*
X125603000Y-94361000D02*
G01*
X122480606Y-94361000D01*
X119761000Y-91641394D01*
X119761000Y-89535000D01*
X125603000Y-89535000D01*
X125603000Y-94361000D01*
X125603000Y-94361000D01*
G37*
X125603000Y-94361000D02*
X122480606Y-94361000D01*
X119761000Y-91641394D01*
X119761000Y-89535000D01*
X125603000Y-89535000D01*
X125603000Y-94361000D01*
G36*
X95888343Y-84726731D02*
G01*
X96150164Y-84778811D01*
X96402934Y-84864615D01*
X96642352Y-84982682D01*
X96864305Y-85130986D01*
X97065005Y-85306995D01*
X97241014Y-85507695D01*
X97389318Y-85729648D01*
X97507385Y-85969066D01*
X97593189Y-86221836D01*
X97645269Y-86483657D01*
X97663000Y-86754182D01*
X97663000Y-93499359D01*
X97663200Y-93506480D01*
X97682063Y-93842374D01*
X97683657Y-93856526D01*
X97740010Y-94188195D01*
X97743180Y-94202080D01*
X97836314Y-94525354D01*
X97841017Y-94538797D01*
X97969760Y-94849612D01*
X97975940Y-94862443D01*
X98138674Y-95156888D01*
X98146251Y-95168947D01*
X98340930Y-95443320D01*
X98349809Y-95454455D01*
X98573983Y-95705306D01*
X98578877Y-95710483D01*
X99361517Y-96493123D01*
X99366694Y-96498017D01*
X99617545Y-96722191D01*
X99628680Y-96731070D01*
X99903053Y-96925749D01*
X99915112Y-96933326D01*
X100209557Y-97096060D01*
X100222388Y-97102240D01*
X100533203Y-97230983D01*
X100546646Y-97235686D01*
X100869920Y-97328820D01*
X100883805Y-97331990D01*
X101215474Y-97388343D01*
X101229626Y-97389937D01*
X101565520Y-97408800D01*
X101572641Y-97409000D01*
X105433799Y-97409000D01*
X105759006Y-97427263D01*
X106076625Y-97481228D01*
X106386177Y-97570409D01*
X106683828Y-97693700D01*
X106965781Y-97849529D01*
X107228516Y-98035951D01*
X107471393Y-98252999D01*
X114599001Y-105380607D01*
X114816049Y-105623484D01*
X115002471Y-105886219D01*
X115158300Y-106168172D01*
X115281591Y-106465823D01*
X115370772Y-106775375D01*
X115424737Y-107092994D01*
X115443000Y-107418201D01*
X115443000Y-107465799D01*
X115424737Y-107791006D01*
X115370772Y-108108625D01*
X115281591Y-108418177D01*
X115158300Y-108715828D01*
X115002471Y-108997781D01*
X114816049Y-109260516D01*
X114599001Y-109503393D01*
X113821393Y-110281001D01*
X113578516Y-110498049D01*
X113315781Y-110684471D01*
X113033828Y-110840300D01*
X112736177Y-110963591D01*
X112426625Y-111052772D01*
X112109006Y-111106737D01*
X111783799Y-111125000D01*
X110466201Y-111125000D01*
X110140994Y-111106737D01*
X109823375Y-111052772D01*
X109513823Y-110963591D01*
X109216172Y-110840300D01*
X108934219Y-110684471D01*
X108671484Y-110498049D01*
X108428607Y-110281001D01*
X101298483Y-103150877D01*
X101293306Y-103145983D01*
X101042455Y-102921809D01*
X101031320Y-102912930D01*
X100756947Y-102718251D01*
X100744888Y-102710674D01*
X100450443Y-102547940D01*
X100437612Y-102541760D01*
X100126797Y-102413017D01*
X100113354Y-102408314D01*
X99790080Y-102315180D01*
X99776195Y-102312010D01*
X99444526Y-102255657D01*
X99430374Y-102254063D01*
X99094480Y-102235200D01*
X99087359Y-102235000D01*
X95425434Y-102235000D01*
X95100774Y-102216799D01*
X94783690Y-102163019D01*
X94474618Y-102074138D01*
X94177415Y-101951267D01*
X93895793Y-101795939D01*
X93633316Y-101610119D01*
X93393240Y-101396116D01*
X93176211Y-101153965D01*
X89658800Y-96757201D01*
X89469497Y-96491202D01*
X89312981Y-96208779D01*
X89189146Y-95910574D01*
X89099557Y-95600352D01*
X89045347Y-95282043D01*
X89027000Y-94956091D01*
X89027000Y-91965665D01*
X90215000Y-91965665D01*
X90215000Y-92248335D01*
X90270147Y-92525574D01*
X90378320Y-92786727D01*
X90535363Y-93021759D01*
X90735241Y-93221637D01*
X90970273Y-93378680D01*
X91231426Y-93486853D01*
X91508665Y-93542000D01*
X91791335Y-93542000D01*
X92068574Y-93486853D01*
X92329727Y-93378680D01*
X92564759Y-93221637D01*
X92764637Y-93021759D01*
X92921680Y-92786727D01*
X93029853Y-92525574D01*
X93085000Y-92248335D01*
X93085000Y-91965665D01*
X93029853Y-91688426D01*
X92921680Y-91427273D01*
X92764637Y-91192241D01*
X92564759Y-90992363D01*
X92329727Y-90835320D01*
X92068574Y-90727147D01*
X91791335Y-90672000D01*
X91508665Y-90672000D01*
X91231426Y-90727147D01*
X90970273Y-90835320D01*
X90735241Y-90992363D01*
X90535363Y-91192241D01*
X90378320Y-91427273D01*
X90270147Y-91688426D01*
X90215000Y-91965665D01*
X89027000Y-91965665D01*
X89027000Y-90908201D01*
X89045263Y-90582994D01*
X89099228Y-90265375D01*
X89188409Y-89955823D01*
X89311700Y-89658172D01*
X89467529Y-89376219D01*
X89653951Y-89113484D01*
X89870999Y-88870607D01*
X93431867Y-85309739D01*
X93635695Y-85130986D01*
X93857648Y-84982682D01*
X94097066Y-84864615D01*
X94349836Y-84778811D01*
X94611657Y-84726731D01*
X94882182Y-84709000D01*
X95617818Y-84709000D01*
X95888343Y-84726731D01*
X95888343Y-84726731D01*
G37*
X95888343Y-84726731D02*
X96150164Y-84778811D01*
X96402934Y-84864615D01*
X96642352Y-84982682D01*
X96864305Y-85130986D01*
X97065005Y-85306995D01*
X97241014Y-85507695D01*
X97389318Y-85729648D01*
X97507385Y-85969066D01*
X97593189Y-86221836D01*
X97645269Y-86483657D01*
X97663000Y-86754182D01*
X97663000Y-93499359D01*
X97663200Y-93506480D01*
X97682063Y-93842374D01*
X97683657Y-93856526D01*
X97740010Y-94188195D01*
X97743180Y-94202080D01*
X97836314Y-94525354D01*
X97841017Y-94538797D01*
X97969760Y-94849612D01*
X97975940Y-94862443D01*
X98138674Y-95156888D01*
X98146251Y-95168947D01*
X98340930Y-95443320D01*
X98349809Y-95454455D01*
X98573983Y-95705306D01*
X98578877Y-95710483D01*
X99361517Y-96493123D01*
X99366694Y-96498017D01*
X99617545Y-96722191D01*
X99628680Y-96731070D01*
X99903053Y-96925749D01*
X99915112Y-96933326D01*
X100209557Y-97096060D01*
X100222388Y-97102240D01*
X100533203Y-97230983D01*
X100546646Y-97235686D01*
X100869920Y-97328820D01*
X100883805Y-97331990D01*
X101215474Y-97388343D01*
X101229626Y-97389937D01*
X101565520Y-97408800D01*
X101572641Y-97409000D01*
X105433799Y-97409000D01*
X105759006Y-97427263D01*
X106076625Y-97481228D01*
X106386177Y-97570409D01*
X106683828Y-97693700D01*
X106965781Y-97849529D01*
X107228516Y-98035951D01*
X107471393Y-98252999D01*
X114599001Y-105380607D01*
X114816049Y-105623484D01*
X115002471Y-105886219D01*
X115158300Y-106168172D01*
X115281591Y-106465823D01*
X115370772Y-106775375D01*
X115424737Y-107092994D01*
X115443000Y-107418201D01*
X115443000Y-107465799D01*
X115424737Y-107791006D01*
X115370772Y-108108625D01*
X115281591Y-108418177D01*
X115158300Y-108715828D01*
X115002471Y-108997781D01*
X114816049Y-109260516D01*
X114599001Y-109503393D01*
X113821393Y-110281001D01*
X113578516Y-110498049D01*
X113315781Y-110684471D01*
X113033828Y-110840300D01*
X112736177Y-110963591D01*
X112426625Y-111052772D01*
X112109006Y-111106737D01*
X111783799Y-111125000D01*
X110466201Y-111125000D01*
X110140994Y-111106737D01*
X109823375Y-111052772D01*
X109513823Y-110963591D01*
X109216172Y-110840300D01*
X108934219Y-110684471D01*
X108671484Y-110498049D01*
X108428607Y-110281001D01*
X101298483Y-103150877D01*
X101293306Y-103145983D01*
X101042455Y-102921809D01*
X101031320Y-102912930D01*
X100756947Y-102718251D01*
X100744888Y-102710674D01*
X100450443Y-102547940D01*
X100437612Y-102541760D01*
X100126797Y-102413017D01*
X100113354Y-102408314D01*
X99790080Y-102315180D01*
X99776195Y-102312010D01*
X99444526Y-102255657D01*
X99430374Y-102254063D01*
X99094480Y-102235200D01*
X99087359Y-102235000D01*
X95425434Y-102235000D01*
X95100774Y-102216799D01*
X94783690Y-102163019D01*
X94474618Y-102074138D01*
X94177415Y-101951267D01*
X93895793Y-101795939D01*
X93633316Y-101610119D01*
X93393240Y-101396116D01*
X93176211Y-101153965D01*
X89658800Y-96757201D01*
X89469497Y-96491202D01*
X89312981Y-96208779D01*
X89189146Y-95910574D01*
X89099557Y-95600352D01*
X89045347Y-95282043D01*
X89027000Y-94956091D01*
X89027000Y-91965665D01*
X90215000Y-91965665D01*
X90215000Y-92248335D01*
X90270147Y-92525574D01*
X90378320Y-92786727D01*
X90535363Y-93021759D01*
X90735241Y-93221637D01*
X90970273Y-93378680D01*
X91231426Y-93486853D01*
X91508665Y-93542000D01*
X91791335Y-93542000D01*
X92068574Y-93486853D01*
X92329727Y-93378680D01*
X92564759Y-93221637D01*
X92764637Y-93021759D01*
X92921680Y-92786727D01*
X93029853Y-92525574D01*
X93085000Y-92248335D01*
X93085000Y-91965665D01*
X93029853Y-91688426D01*
X92921680Y-91427273D01*
X92764637Y-91192241D01*
X92564759Y-90992363D01*
X92329727Y-90835320D01*
X92068574Y-90727147D01*
X91791335Y-90672000D01*
X91508665Y-90672000D01*
X91231426Y-90727147D01*
X90970273Y-90835320D01*
X90735241Y-90992363D01*
X90535363Y-91192241D01*
X90378320Y-91427273D01*
X90270147Y-91688426D01*
X90215000Y-91965665D01*
X89027000Y-91965665D01*
X89027000Y-90908201D01*
X89045263Y-90582994D01*
X89099228Y-90265375D01*
X89188409Y-89955823D01*
X89311700Y-89658172D01*
X89467529Y-89376219D01*
X89653951Y-89113484D01*
X89870999Y-88870607D01*
X93431867Y-85309739D01*
X93635695Y-85130986D01*
X93857648Y-84982682D01*
X94097066Y-84864615D01*
X94349836Y-84778811D01*
X94611657Y-84726731D01*
X94882182Y-84709000D01*
X95617818Y-84709000D01*
X95888343Y-84726731D01*
G36*
X126402197Y-69685803D02*
G01*
X126421443Y-69701597D01*
X126443399Y-69713333D01*
X126467224Y-69720560D01*
X126492000Y-69723000D01*
X163703000Y-69723000D01*
X163703000Y-78740000D01*
X163705440Y-78764776D01*
X163712667Y-78788601D01*
X163724403Y-78810557D01*
X163740197Y-78829803D01*
X163759443Y-78845597D01*
X163781399Y-78857333D01*
X163805224Y-78864560D01*
X163830000Y-78867000D01*
X196215000Y-78867000D01*
X196215000Y-108272198D01*
X195381804Y-107439002D01*
X195358001Y-107409999D01*
X195242276Y-107315026D01*
X195110247Y-107244454D01*
X194966986Y-107200997D01*
X194855333Y-107190000D01*
X194855322Y-107190000D01*
X194818000Y-107186324D01*
X194780678Y-107190000D01*
X191045322Y-107190000D01*
X191007999Y-107186324D01*
X190970676Y-107190000D01*
X190970667Y-107190000D01*
X190859014Y-107200997D01*
X190715753Y-107244454D01*
X190583724Y-107315026D01*
X190583722Y-107315027D01*
X190583723Y-107315027D01*
X190496996Y-107386201D01*
X190496992Y-107386205D01*
X190467999Y-107409999D01*
X190444205Y-107438992D01*
X187137199Y-110746000D01*
X184210802Y-110746000D01*
X183894000Y-110429199D01*
X183894000Y-108370000D01*
X184185928Y-108370000D01*
X184185928Y-110070000D01*
X184198188Y-110194482D01*
X184234498Y-110314180D01*
X184293463Y-110424494D01*
X184372815Y-110521185D01*
X184469506Y-110600537D01*
X184579820Y-110659502D01*
X184699518Y-110695812D01*
X184824000Y-110708072D01*
X186524000Y-110708072D01*
X186648482Y-110695812D01*
X186768180Y-110659502D01*
X186878494Y-110600537D01*
X186975185Y-110521185D01*
X187054537Y-110424494D01*
X187113502Y-110314180D01*
X187149812Y-110194482D01*
X187162072Y-110070000D01*
X187162072Y-108370000D01*
X187149812Y-108245518D01*
X187113502Y-108125820D01*
X187054537Y-108015506D01*
X186975185Y-107918815D01*
X186878494Y-107839463D01*
X186768180Y-107780498D01*
X186648482Y-107744188D01*
X186524000Y-107731928D01*
X184824000Y-107731928D01*
X184699518Y-107744188D01*
X184579820Y-107780498D01*
X184469506Y-107839463D01*
X184372815Y-107918815D01*
X184293463Y-108015506D01*
X184234498Y-108125820D01*
X184198188Y-108245518D01*
X184185928Y-108370000D01*
X183894000Y-108370000D01*
X183894000Y-108114322D01*
X183897676Y-108076999D01*
X183894000Y-108039676D01*
X183894000Y-108039667D01*
X183883003Y-107928014D01*
X183839546Y-107784753D01*
X183771663Y-107657754D01*
X183768974Y-107652723D01*
X183697799Y-107565997D01*
X183674001Y-107536999D01*
X183645003Y-107513201D01*
X179705000Y-103573199D01*
X179705000Y-96266000D01*
X181133815Y-96266000D01*
X181162487Y-96557111D01*
X181247401Y-96837034D01*
X181385294Y-97095014D01*
X181570866Y-97321134D01*
X181796986Y-97506706D01*
X181866001Y-97543595D01*
X181866000Y-99276677D01*
X181862324Y-99314000D01*
X181866000Y-99351322D01*
X181866000Y-99351332D01*
X181876997Y-99462985D01*
X181904910Y-99555003D01*
X181920454Y-99606246D01*
X181991026Y-99738276D01*
X182030871Y-99786826D01*
X182085999Y-99854001D01*
X182115003Y-99877804D01*
X185110201Y-102873003D01*
X185133999Y-102902001D01*
X185162997Y-102925799D01*
X185249723Y-102996974D01*
X185381753Y-103067546D01*
X185525014Y-103111003D01*
X185636667Y-103122000D01*
X185636677Y-103122000D01*
X185674000Y-103125676D01*
X185711323Y-103122000D01*
X191762405Y-103122000D01*
X191799294Y-103191014D01*
X191984866Y-103417134D01*
X192210986Y-103602706D01*
X192265791Y-103632000D01*
X192210986Y-103661294D01*
X191984866Y-103846866D01*
X191799294Y-104072986D01*
X191661401Y-104330966D01*
X191576487Y-104610889D01*
X191547815Y-104902000D01*
X191576487Y-105193111D01*
X191661401Y-105473034D01*
X191799294Y-105731014D01*
X191984866Y-105957134D01*
X192210986Y-106142706D01*
X192468966Y-106280599D01*
X192748889Y-106365513D01*
X192967050Y-106387000D01*
X193112950Y-106387000D01*
X193331111Y-106365513D01*
X193611034Y-106280599D01*
X193869014Y-106142706D01*
X194095134Y-105957134D01*
X194280706Y-105731014D01*
X194418599Y-105473034D01*
X194503513Y-105193111D01*
X194532185Y-104902000D01*
X194503513Y-104610889D01*
X194418599Y-104330966D01*
X194280706Y-104072986D01*
X194095134Y-103846866D01*
X193869014Y-103661294D01*
X193814209Y-103632000D01*
X193869014Y-103602706D01*
X194095134Y-103417134D01*
X194280706Y-103191014D01*
X194418599Y-102933034D01*
X194503513Y-102653111D01*
X194532185Y-102362000D01*
X194503513Y-102070889D01*
X194418599Y-101790966D01*
X194280706Y-101532986D01*
X194095134Y-101306866D01*
X193869014Y-101121294D01*
X193814209Y-101092000D01*
X193869014Y-101062706D01*
X194095134Y-100877134D01*
X194280706Y-100651014D01*
X194418599Y-100393034D01*
X194503513Y-100113111D01*
X194532185Y-99822000D01*
X194503513Y-99530889D01*
X194418599Y-99250966D01*
X194280706Y-98992986D01*
X194095134Y-98766866D01*
X194065313Y-98742393D01*
X194134180Y-98721502D01*
X194244494Y-98662537D01*
X194341185Y-98583185D01*
X194420537Y-98486494D01*
X194479502Y-98376180D01*
X194515812Y-98256482D01*
X194528072Y-98132000D01*
X194525000Y-97567750D01*
X194366250Y-97409000D01*
X193167000Y-97409000D01*
X193167000Y-97429000D01*
X192913000Y-97429000D01*
X192913000Y-97409000D01*
X191713750Y-97409000D01*
X191555000Y-97567750D01*
X191551928Y-98132000D01*
X191564188Y-98256482D01*
X191600498Y-98376180D01*
X191659463Y-98486494D01*
X191738815Y-98583185D01*
X191835506Y-98662537D01*
X191945820Y-98721502D01*
X192014687Y-98742393D01*
X191984866Y-98766866D01*
X191799294Y-98992986D01*
X191762405Y-99062000D01*
X186496802Y-99062000D01*
X185926000Y-98491199D01*
X185926000Y-97754072D01*
X186016000Y-97754072D01*
X186140482Y-97741812D01*
X186260180Y-97705502D01*
X186370494Y-97646537D01*
X186467185Y-97567185D01*
X186546537Y-97470494D01*
X186605502Y-97360180D01*
X186641812Y-97240482D01*
X186654072Y-97116000D01*
X186654072Y-96432000D01*
X191551928Y-96432000D01*
X191555000Y-96996250D01*
X191713750Y-97155000D01*
X192913000Y-97155000D01*
X192913000Y-95955750D01*
X193167000Y-95955750D01*
X193167000Y-97155000D01*
X194366250Y-97155000D01*
X194525000Y-96996250D01*
X194528072Y-96432000D01*
X194515812Y-96307518D01*
X194479502Y-96187820D01*
X194420537Y-96077506D01*
X194341185Y-95980815D01*
X194244494Y-95901463D01*
X194134180Y-95842498D01*
X194014482Y-95806188D01*
X193890000Y-95793928D01*
X193325750Y-95797000D01*
X193167000Y-95955750D01*
X192913000Y-95955750D01*
X192754250Y-95797000D01*
X192190000Y-95793928D01*
X192065518Y-95806188D01*
X191945820Y-95842498D01*
X191835506Y-95901463D01*
X191738815Y-95980815D01*
X191659463Y-96077506D01*
X191600498Y-96187820D01*
X191564188Y-96307518D01*
X191551928Y-96432000D01*
X186654072Y-96432000D01*
X186654072Y-95416000D01*
X186641812Y-95291518D01*
X186605502Y-95171820D01*
X186546537Y-95061506D01*
X186467185Y-94964815D01*
X186370494Y-94885463D01*
X186260180Y-94826498D01*
X186140482Y-94790188D01*
X186016000Y-94777928D01*
X184316000Y-94777928D01*
X184191518Y-94790188D01*
X184071820Y-94826498D01*
X183961506Y-94885463D01*
X183864815Y-94964815D01*
X183785463Y-95061506D01*
X183726498Y-95171820D01*
X183705607Y-95240687D01*
X183681134Y-95210866D01*
X183455014Y-95025294D01*
X183197034Y-94887401D01*
X182917111Y-94802487D01*
X182698950Y-94781000D01*
X182553050Y-94781000D01*
X182334889Y-94802487D01*
X182054966Y-94887401D01*
X181796986Y-95025294D01*
X181570866Y-95210866D01*
X181385294Y-95436986D01*
X181247401Y-95694966D01*
X181162487Y-95974889D01*
X181133815Y-96266000D01*
X179705000Y-96266000D01*
X179705000Y-90932000D01*
X179702560Y-90907224D01*
X179695333Y-90883399D01*
X179683597Y-90861443D01*
X179667803Y-90842197D01*
X179648557Y-90826403D01*
X179626601Y-90814667D01*
X179602776Y-90807440D01*
X179578000Y-90805000D01*
X176207802Y-90805000D01*
X175318802Y-89916000D01*
X191547815Y-89916000D01*
X191576487Y-90207111D01*
X191661401Y-90487034D01*
X191799294Y-90745014D01*
X191984866Y-90971134D01*
X192210986Y-91156706D01*
X192468966Y-91294599D01*
X192748889Y-91379513D01*
X192967050Y-91401000D01*
X193112950Y-91401000D01*
X193331111Y-91379513D01*
X193611034Y-91294599D01*
X193869014Y-91156706D01*
X194095134Y-90971134D01*
X194280706Y-90745014D01*
X194418599Y-90487034D01*
X194503513Y-90207111D01*
X194532185Y-89916000D01*
X194503513Y-89624889D01*
X194418599Y-89344966D01*
X194280706Y-89086986D01*
X194095134Y-88860866D01*
X194065313Y-88836393D01*
X194134180Y-88815502D01*
X194244494Y-88756537D01*
X194341185Y-88677185D01*
X194420537Y-88580494D01*
X194479502Y-88470180D01*
X194515812Y-88350482D01*
X194528072Y-88226000D01*
X194528072Y-86526000D01*
X194515812Y-86401518D01*
X194479502Y-86281820D01*
X194420537Y-86171506D01*
X194341185Y-86074815D01*
X194244494Y-85995463D01*
X194134180Y-85936498D01*
X194014482Y-85900188D01*
X193890000Y-85887928D01*
X192190000Y-85887928D01*
X192065518Y-85900188D01*
X191945820Y-85936498D01*
X191835506Y-85995463D01*
X191738815Y-86074815D01*
X191659463Y-86171506D01*
X191600498Y-86281820D01*
X191564188Y-86401518D01*
X191551928Y-86526000D01*
X191551928Y-88226000D01*
X191564188Y-88350482D01*
X191600498Y-88470180D01*
X191659463Y-88580494D01*
X191738815Y-88677185D01*
X191835506Y-88756537D01*
X191945820Y-88815502D01*
X192014687Y-88836393D01*
X191984866Y-88860866D01*
X191799294Y-89086986D01*
X191661401Y-89344966D01*
X191576487Y-89624889D01*
X191547815Y-89916000D01*
X175318802Y-89916000D01*
X174771000Y-89368199D01*
X174771000Y-89306061D01*
X174731226Y-89106102D01*
X174653205Y-88917744D01*
X174539937Y-88748226D01*
X174395774Y-88604063D01*
X174226256Y-88490795D01*
X174037898Y-88412774D01*
X173837939Y-88373000D01*
X173634061Y-88373000D01*
X173434102Y-88412774D01*
X173245744Y-88490795D01*
X173076226Y-88604063D01*
X172932063Y-88748226D01*
X172818795Y-88917744D01*
X172740774Y-89106102D01*
X172701000Y-89306061D01*
X172701000Y-89509939D01*
X172740774Y-89709898D01*
X172818795Y-89898256D01*
X172932063Y-90067774D01*
X173076226Y-90211937D01*
X173245744Y-90325205D01*
X173434102Y-90403226D01*
X173634061Y-90443000D01*
X173696199Y-90443000D01*
X175008001Y-91754803D01*
X175008000Y-113373678D01*
X175004324Y-113411000D01*
X175008000Y-113448322D01*
X175008000Y-113448332D01*
X175018997Y-113559985D01*
X175056434Y-113683401D01*
X175062454Y-113703246D01*
X175133026Y-113835276D01*
X175172871Y-113883826D01*
X175227999Y-113951001D01*
X175257003Y-113974804D01*
X175895000Y-114612802D01*
X175895000Y-129540000D01*
X175897440Y-129564776D01*
X175904667Y-129588601D01*
X175916403Y-129610557D01*
X175932197Y-129629803D01*
X175951443Y-129645597D01*
X175973399Y-129657333D01*
X175997224Y-129664560D01*
X176022000Y-129667000D01*
X179578000Y-129667000D01*
X179602776Y-129664560D01*
X179626601Y-129657333D01*
X179648557Y-129645597D01*
X179667803Y-129629803D01*
X179683597Y-129610557D01*
X179695333Y-129588601D01*
X179702560Y-129564776D01*
X179705000Y-129540000D01*
X179705000Y-125731676D01*
X179742323Y-125728000D01*
X180906289Y-125728000D01*
X180950226Y-125771937D01*
X181119744Y-125885205D01*
X181308102Y-125963226D01*
X181508061Y-126003000D01*
X181711939Y-126003000D01*
X181911898Y-125963226D01*
X182100256Y-125885205D01*
X182269774Y-125771937D01*
X182413937Y-125627774D01*
X182527205Y-125458256D01*
X182605226Y-125269898D01*
X182645000Y-125069939D01*
X182645000Y-124866061D01*
X182605226Y-124666102D01*
X182527205Y-124477744D01*
X182413937Y-124308226D01*
X182269774Y-124164063D01*
X182100256Y-124050795D01*
X181911898Y-123972774D01*
X181711939Y-123933000D01*
X181508061Y-123933000D01*
X181308102Y-123972774D01*
X181119744Y-124050795D01*
X180950226Y-124164063D01*
X180906289Y-124208000D01*
X180019802Y-124208000D01*
X179705000Y-123893198D01*
X179705000Y-123038890D01*
X191598524Y-123038890D01*
X191643175Y-123186099D01*
X191768359Y-123448920D01*
X191942412Y-123682269D01*
X192158645Y-123877178D01*
X192408748Y-124026157D01*
X192683109Y-124123481D01*
X192913000Y-124002814D01*
X192913000Y-122809000D01*
X193167000Y-122809000D01*
X193167000Y-124002814D01*
X193396891Y-124123481D01*
X193671252Y-124026157D01*
X193921355Y-123877178D01*
X194137588Y-123682269D01*
X194311641Y-123448920D01*
X194436825Y-123186099D01*
X194481476Y-123038890D01*
X194360155Y-122809000D01*
X193167000Y-122809000D01*
X192913000Y-122809000D01*
X191719845Y-122809000D01*
X191598524Y-123038890D01*
X179705000Y-123038890D01*
X179705000Y-105722802D01*
X182374001Y-108391803D01*
X182374000Y-110706677D01*
X182370324Y-110744000D01*
X182374000Y-110781322D01*
X182374000Y-110781332D01*
X182384997Y-110892985D01*
X182415942Y-110994998D01*
X182428454Y-111036246D01*
X182499026Y-111168276D01*
X182536348Y-111213753D01*
X182593999Y-111284001D01*
X182623002Y-111307803D01*
X183332201Y-112017002D01*
X183355999Y-112046001D01*
X183471724Y-112140974D01*
X183603753Y-112211546D01*
X183747014Y-112255003D01*
X183858667Y-112266000D01*
X183858675Y-112266000D01*
X183896000Y-112269676D01*
X183933325Y-112266000D01*
X187414678Y-112266000D01*
X187452000Y-112269676D01*
X187489322Y-112266000D01*
X187489333Y-112266000D01*
X187600986Y-112255003D01*
X187744247Y-112211546D01*
X187876276Y-112140974D01*
X187992001Y-112046001D01*
X188015804Y-112016997D01*
X191322803Y-108710000D01*
X191714864Y-108710000D01*
X191659463Y-108777506D01*
X191600498Y-108887820D01*
X191564188Y-109007518D01*
X191551928Y-109132000D01*
X191551928Y-110832000D01*
X191564188Y-110956482D01*
X191600498Y-111076180D01*
X191659463Y-111186494D01*
X191738815Y-111283185D01*
X191835506Y-111362537D01*
X191945820Y-111421502D01*
X192014687Y-111442393D01*
X191984866Y-111466866D01*
X191799294Y-111692986D01*
X191661401Y-111950966D01*
X191576487Y-112230889D01*
X191547815Y-112522000D01*
X191576487Y-112813111D01*
X191661401Y-113093034D01*
X191799294Y-113351014D01*
X191984866Y-113577134D01*
X192210986Y-113762706D01*
X192265791Y-113792000D01*
X192210986Y-113821294D01*
X191984866Y-114006866D01*
X191799294Y-114232986D01*
X191661401Y-114490966D01*
X191576487Y-114770889D01*
X191547815Y-115062000D01*
X191576487Y-115353111D01*
X191661401Y-115633034D01*
X191799294Y-115891014D01*
X191984866Y-116117134D01*
X192210986Y-116302706D01*
X192265791Y-116332000D01*
X192210986Y-116361294D01*
X191984866Y-116546866D01*
X191799294Y-116772986D01*
X191661401Y-117030966D01*
X191576487Y-117310889D01*
X191547815Y-117602000D01*
X191576487Y-117893111D01*
X191661401Y-118173034D01*
X191799294Y-118431014D01*
X191984866Y-118657134D01*
X192210986Y-118842706D01*
X192265791Y-118872000D01*
X192210986Y-118901294D01*
X191984866Y-119086866D01*
X191799294Y-119312986D01*
X191661401Y-119570966D01*
X191576487Y-119850889D01*
X191547815Y-120142000D01*
X191576487Y-120433111D01*
X191661401Y-120713034D01*
X191799294Y-120971014D01*
X191984866Y-121197134D01*
X192210986Y-121382706D01*
X192275523Y-121417201D01*
X192158645Y-121486822D01*
X191942412Y-121681731D01*
X191768359Y-121915080D01*
X191643175Y-122177901D01*
X191598524Y-122325110D01*
X191719845Y-122555000D01*
X192913000Y-122555000D01*
X192913000Y-122535000D01*
X193167000Y-122535000D01*
X193167000Y-122555000D01*
X194360155Y-122555000D01*
X194481476Y-122325110D01*
X194436825Y-122177901D01*
X194311641Y-121915080D01*
X194137588Y-121681731D01*
X193921355Y-121486822D01*
X193804477Y-121417201D01*
X193869014Y-121382706D01*
X194095134Y-121197134D01*
X194280706Y-120971014D01*
X194418599Y-120713034D01*
X194486911Y-120487840D01*
X194581744Y-120551205D01*
X194770102Y-120629226D01*
X194970061Y-120669000D01*
X195173939Y-120669000D01*
X195373898Y-120629226D01*
X195562256Y-120551205D01*
X195731774Y-120437937D01*
X195875937Y-120293774D01*
X195989205Y-120124256D01*
X196067226Y-119935898D01*
X196107000Y-119735939D01*
X196107000Y-119532061D01*
X196067226Y-119332102D01*
X195989205Y-119143744D01*
X195875937Y-118974226D01*
X195731774Y-118830063D01*
X195562256Y-118716795D01*
X195373898Y-118638774D01*
X195173939Y-118599000D01*
X195111802Y-118599000D01*
X194480797Y-117967996D01*
X194503513Y-117893111D01*
X194532185Y-117602000D01*
X194503513Y-117310889D01*
X194418599Y-117030966D01*
X194280706Y-116772986D01*
X194095134Y-116546866D01*
X193869014Y-116361294D01*
X193814209Y-116332000D01*
X193869014Y-116302706D01*
X194095134Y-116117134D01*
X194280706Y-115891014D01*
X194418599Y-115633034D01*
X194503513Y-115353111D01*
X194532185Y-115062000D01*
X194503513Y-114770889D01*
X194480797Y-114696004D01*
X196215000Y-112961802D01*
X196215000Y-125857000D01*
X185420000Y-125857000D01*
X185395224Y-125859440D01*
X185371399Y-125866667D01*
X185349443Y-125878403D01*
X185330197Y-125894197D01*
X185314403Y-125913443D01*
X185302667Y-125935399D01*
X185295440Y-125959224D01*
X185293000Y-125984000D01*
X185293000Y-136017000D01*
X150495000Y-136017000D01*
X150495000Y-131724061D01*
X158223000Y-131724061D01*
X158223000Y-131927939D01*
X158262774Y-132127898D01*
X158340795Y-132316256D01*
X158454063Y-132485774D01*
X158598226Y-132629937D01*
X158767744Y-132743205D01*
X158956102Y-132821226D01*
X159156061Y-132861000D01*
X159359939Y-132861000D01*
X159559898Y-132821226D01*
X159748256Y-132743205D01*
X159917774Y-132629937D01*
X159961711Y-132586000D01*
X164396289Y-132586000D01*
X164440226Y-132629937D01*
X164609744Y-132743205D01*
X164798102Y-132821226D01*
X164998061Y-132861000D01*
X165201939Y-132861000D01*
X165401898Y-132821226D01*
X165590256Y-132743205D01*
X165759774Y-132629937D01*
X165903937Y-132485774D01*
X166017205Y-132316256D01*
X166095226Y-132127898D01*
X166135000Y-131927939D01*
X166135000Y-131724061D01*
X166095226Y-131524102D01*
X166017205Y-131335744D01*
X165903937Y-131166226D01*
X165759774Y-131022063D01*
X165590256Y-130908795D01*
X165401898Y-130830774D01*
X165201939Y-130791000D01*
X164998061Y-130791000D01*
X164798102Y-130830774D01*
X164609744Y-130908795D01*
X164440226Y-131022063D01*
X164396289Y-131066000D01*
X159961711Y-131066000D01*
X159917774Y-131022063D01*
X159748256Y-130908795D01*
X159559898Y-130830774D01*
X159359939Y-130791000D01*
X159156061Y-130791000D01*
X158956102Y-130830774D01*
X158767744Y-130908795D01*
X158598226Y-131022063D01*
X158454063Y-131166226D01*
X158340795Y-131335744D01*
X158262774Y-131524102D01*
X158223000Y-131724061D01*
X150495000Y-131724061D01*
X150495000Y-96266000D01*
X150492560Y-96241224D01*
X150485333Y-96217399D01*
X150473597Y-96195443D01*
X150457803Y-96176197D01*
X145213606Y-90932000D01*
X152273000Y-90932000D01*
X152273000Y-129540000D01*
X152275440Y-129564776D01*
X152282667Y-129588601D01*
X152294403Y-129610557D01*
X152310197Y-129629803D01*
X152329443Y-129645597D01*
X152351399Y-129657333D01*
X152375224Y-129664560D01*
X152400000Y-129667000D01*
X155956000Y-129667000D01*
X155980776Y-129664560D01*
X156004601Y-129657333D01*
X156026557Y-129645597D01*
X156045803Y-129629803D01*
X156061597Y-129610557D01*
X156073333Y-129588601D01*
X156080560Y-129564776D01*
X156083000Y-129540000D01*
X156083000Y-125661801D01*
X158731000Y-128309802D01*
X158731000Y-128371939D01*
X158770774Y-128571898D01*
X158848795Y-128760256D01*
X158962063Y-128929774D01*
X159106226Y-129073937D01*
X159275744Y-129187205D01*
X159464102Y-129265226D01*
X159664061Y-129305000D01*
X159867939Y-129305000D01*
X160067898Y-129265226D01*
X160256256Y-129187205D01*
X160425774Y-129073937D01*
X160569937Y-128929774D01*
X160683205Y-128760256D01*
X160761226Y-128571898D01*
X160801000Y-128371939D01*
X160801000Y-128168061D01*
X160761226Y-127968102D01*
X160683205Y-127779744D01*
X160569937Y-127610226D01*
X160425774Y-127466063D01*
X160256256Y-127352795D01*
X160067898Y-127274774D01*
X159867939Y-127235000D01*
X159805802Y-127235000D01*
X156083000Y-123512199D01*
X156083000Y-90932000D01*
X156080560Y-90907224D01*
X156073333Y-90883399D01*
X156061597Y-90861443D01*
X156045803Y-90842197D01*
X156026557Y-90826403D01*
X156004601Y-90814667D01*
X155980776Y-90807440D01*
X155956000Y-90805000D01*
X152400000Y-90805000D01*
X152375224Y-90807440D01*
X152351399Y-90814667D01*
X152329443Y-90826403D01*
X152310197Y-90842197D01*
X152294403Y-90861443D01*
X152282667Y-90883399D01*
X152275440Y-90907224D01*
X152273000Y-90932000D01*
X145213606Y-90932000D01*
X140839000Y-86557394D01*
X140839000Y-86390454D01*
X140871205Y-86342256D01*
X140949226Y-86153898D01*
X140989000Y-85953939D01*
X140989000Y-85750061D01*
X140949226Y-85550102D01*
X140926842Y-85496061D01*
X158223000Y-85496061D01*
X158223000Y-85699939D01*
X158262774Y-85899898D01*
X158340795Y-86088256D01*
X158454063Y-86257774D01*
X158498001Y-86301712D01*
X158498000Y-88450289D01*
X158454063Y-88494226D01*
X158340795Y-88663744D01*
X158262774Y-88852102D01*
X158223000Y-89052061D01*
X158223000Y-89255939D01*
X158262774Y-89455898D01*
X158340795Y-89644256D01*
X158454063Y-89813774D01*
X158598226Y-89957937D01*
X158767744Y-90071205D01*
X158956102Y-90149226D01*
X159156061Y-90189000D01*
X159359939Y-90189000D01*
X159559898Y-90149226D01*
X159748256Y-90071205D01*
X159917774Y-89957937D01*
X159956500Y-89919211D01*
X159995226Y-89957937D01*
X160164744Y-90071205D01*
X160353102Y-90149226D01*
X160553061Y-90189000D01*
X160756939Y-90189000D01*
X160956898Y-90149226D01*
X161145256Y-90071205D01*
X161314774Y-89957937D01*
X161458937Y-89813774D01*
X161572205Y-89644256D01*
X161650226Y-89455898D01*
X161690000Y-89255939D01*
X161690000Y-89052061D01*
X161650226Y-88852102D01*
X161572205Y-88663744D01*
X161458937Y-88494226D01*
X161415000Y-88450289D01*
X161415000Y-86301711D01*
X161458937Y-86257774D01*
X161572205Y-86088256D01*
X161650226Y-85899898D01*
X161690000Y-85699939D01*
X161690000Y-85496061D01*
X161650226Y-85296102D01*
X161572205Y-85107744D01*
X161458937Y-84938226D01*
X161314774Y-84794063D01*
X161145256Y-84680795D01*
X160956898Y-84602774D01*
X160756939Y-84563000D01*
X160553061Y-84563000D01*
X160353102Y-84602774D01*
X160164744Y-84680795D01*
X159995226Y-84794063D01*
X159956500Y-84832789D01*
X159917774Y-84794063D01*
X159748256Y-84680795D01*
X159559898Y-84602774D01*
X159359939Y-84563000D01*
X159156061Y-84563000D01*
X158956102Y-84602774D01*
X158767744Y-84680795D01*
X158598226Y-84794063D01*
X158454063Y-84938226D01*
X158340795Y-85107744D01*
X158262774Y-85296102D01*
X158223000Y-85496061D01*
X140926842Y-85496061D01*
X140871205Y-85361744D01*
X140757937Y-85192226D01*
X140613774Y-85048063D01*
X140444256Y-84934795D01*
X140255898Y-84856774D01*
X140055939Y-84817000D01*
X139852061Y-84817000D01*
X139652102Y-84856774D01*
X139463744Y-84934795D01*
X139294226Y-85048063D01*
X139150063Y-85192226D01*
X139036795Y-85361744D01*
X138958774Y-85550102D01*
X138919000Y-85750061D01*
X138919000Y-85953939D01*
X138958774Y-86153898D01*
X138991539Y-86233000D01*
X127722231Y-86233000D01*
X127726072Y-86194000D01*
X127726072Y-86104000D01*
X128359678Y-86104000D01*
X128397000Y-86107676D01*
X128434322Y-86104000D01*
X128434333Y-86104000D01*
X128545986Y-86093003D01*
X128689247Y-86049546D01*
X128821276Y-85978974D01*
X128937001Y-85884001D01*
X128960804Y-85854997D01*
X130341802Y-84474000D01*
X130403939Y-84474000D01*
X130603898Y-84434226D01*
X130792256Y-84356205D01*
X130961774Y-84242937D01*
X131005711Y-84199000D01*
X133662289Y-84199000D01*
X133706226Y-84242937D01*
X133875744Y-84356205D01*
X134064102Y-84434226D01*
X134264061Y-84474000D01*
X134467939Y-84474000D01*
X134667898Y-84434226D01*
X134856256Y-84356205D01*
X135025774Y-84242937D01*
X135169937Y-84098774D01*
X135283205Y-83929256D01*
X135361226Y-83740898D01*
X135401000Y-83540939D01*
X135401000Y-83337061D01*
X135361226Y-83137102D01*
X135283205Y-82948744D01*
X135169937Y-82779226D01*
X135025774Y-82635063D01*
X134856256Y-82521795D01*
X134667898Y-82443774D01*
X134467939Y-82404000D01*
X134264061Y-82404000D01*
X134064102Y-82443774D01*
X133875744Y-82521795D01*
X133706226Y-82635063D01*
X133662289Y-82679000D01*
X131005711Y-82679000D01*
X130961774Y-82635063D01*
X130792256Y-82521795D01*
X130603898Y-82443774D01*
X130403939Y-82404000D01*
X130200061Y-82404000D01*
X130000102Y-82443774D01*
X129811744Y-82521795D01*
X129642226Y-82635063D01*
X129498063Y-82779226D01*
X129384795Y-82948744D01*
X129306774Y-83137102D01*
X129267000Y-83337061D01*
X129267000Y-83399198D01*
X128082199Y-84584000D01*
X127726072Y-84584000D01*
X127726072Y-84494000D01*
X127713812Y-84369518D01*
X127677502Y-84249820D01*
X127618537Y-84139506D01*
X127539185Y-84042815D01*
X127442494Y-83963463D01*
X127332180Y-83904498D01*
X127212482Y-83868188D01*
X127088000Y-83855928D01*
X125388000Y-83855928D01*
X125263518Y-83868188D01*
X125143820Y-83904498D01*
X125033506Y-83963463D01*
X124936815Y-84042815D01*
X124857463Y-84139506D01*
X124798498Y-84249820D01*
X124762188Y-84369518D01*
X124749928Y-84494000D01*
X124749928Y-86194000D01*
X124753769Y-86233000D01*
X115697000Y-86233000D01*
X115697000Y-77597000D01*
X121412000Y-77597000D01*
X121436776Y-77594560D01*
X121460601Y-77587333D01*
X121482557Y-77575597D01*
X121501803Y-77559803D01*
X121517597Y-77540557D01*
X121529333Y-77518601D01*
X121536560Y-77494776D01*
X121539000Y-77470000D01*
X121539000Y-70866000D01*
X142621000Y-70866000D01*
X142621000Y-79502000D01*
X142623440Y-79526776D01*
X142630667Y-79550601D01*
X142642403Y-79572557D01*
X142658197Y-79591803D01*
X142677443Y-79607597D01*
X142699399Y-79619333D01*
X142723224Y-79626560D01*
X142748000Y-79629000D01*
X146304000Y-79629000D01*
X146328776Y-79626560D01*
X146352601Y-79619333D01*
X146374557Y-79607597D01*
X146393803Y-79591803D01*
X146409597Y-79572557D01*
X146421333Y-79550601D01*
X146428560Y-79526776D01*
X146431000Y-79502000D01*
X146431000Y-70866000D01*
X146428560Y-70841224D01*
X146421333Y-70817399D01*
X146409597Y-70795443D01*
X146393803Y-70776197D01*
X146374557Y-70760403D01*
X146352601Y-70748667D01*
X146328776Y-70741440D01*
X146304000Y-70739000D01*
X142748000Y-70739000D01*
X142723224Y-70741440D01*
X142699399Y-70748667D01*
X142677443Y-70760403D01*
X142658197Y-70776197D01*
X142642403Y-70795443D01*
X142630667Y-70817399D01*
X142623440Y-70841224D01*
X142621000Y-70866000D01*
X121539000Y-70866000D01*
X121539000Y-67310000D01*
X124026394Y-67310000D01*
X126402197Y-69685803D01*
X126402197Y-69685803D01*
G37*
X126402197Y-69685803D02*
X126421443Y-69701597D01*
X126443399Y-69713333D01*
X126467224Y-69720560D01*
X126492000Y-69723000D01*
X163703000Y-69723000D01*
X163703000Y-78740000D01*
X163705440Y-78764776D01*
X163712667Y-78788601D01*
X163724403Y-78810557D01*
X163740197Y-78829803D01*
X163759443Y-78845597D01*
X163781399Y-78857333D01*
X163805224Y-78864560D01*
X163830000Y-78867000D01*
X196215000Y-78867000D01*
X196215000Y-108272198D01*
X195381804Y-107439002D01*
X195358001Y-107409999D01*
X195242276Y-107315026D01*
X195110247Y-107244454D01*
X194966986Y-107200997D01*
X194855333Y-107190000D01*
X194855322Y-107190000D01*
X194818000Y-107186324D01*
X194780678Y-107190000D01*
X191045322Y-107190000D01*
X191007999Y-107186324D01*
X190970676Y-107190000D01*
X190970667Y-107190000D01*
X190859014Y-107200997D01*
X190715753Y-107244454D01*
X190583724Y-107315026D01*
X190583722Y-107315027D01*
X190583723Y-107315027D01*
X190496996Y-107386201D01*
X190496992Y-107386205D01*
X190467999Y-107409999D01*
X190444205Y-107438992D01*
X187137199Y-110746000D01*
X184210802Y-110746000D01*
X183894000Y-110429199D01*
X183894000Y-108370000D01*
X184185928Y-108370000D01*
X184185928Y-110070000D01*
X184198188Y-110194482D01*
X184234498Y-110314180D01*
X184293463Y-110424494D01*
X184372815Y-110521185D01*
X184469506Y-110600537D01*
X184579820Y-110659502D01*
X184699518Y-110695812D01*
X184824000Y-110708072D01*
X186524000Y-110708072D01*
X186648482Y-110695812D01*
X186768180Y-110659502D01*
X186878494Y-110600537D01*
X186975185Y-110521185D01*
X187054537Y-110424494D01*
X187113502Y-110314180D01*
X187149812Y-110194482D01*
X187162072Y-110070000D01*
X187162072Y-108370000D01*
X187149812Y-108245518D01*
X187113502Y-108125820D01*
X187054537Y-108015506D01*
X186975185Y-107918815D01*
X186878494Y-107839463D01*
X186768180Y-107780498D01*
X186648482Y-107744188D01*
X186524000Y-107731928D01*
X184824000Y-107731928D01*
X184699518Y-107744188D01*
X184579820Y-107780498D01*
X184469506Y-107839463D01*
X184372815Y-107918815D01*
X184293463Y-108015506D01*
X184234498Y-108125820D01*
X184198188Y-108245518D01*
X184185928Y-108370000D01*
X183894000Y-108370000D01*
X183894000Y-108114322D01*
X183897676Y-108076999D01*
X183894000Y-108039676D01*
X183894000Y-108039667D01*
X183883003Y-107928014D01*
X183839546Y-107784753D01*
X183771663Y-107657754D01*
X183768974Y-107652723D01*
X183697799Y-107565997D01*
X183674001Y-107536999D01*
X183645003Y-107513201D01*
X179705000Y-103573199D01*
X179705000Y-96266000D01*
X181133815Y-96266000D01*
X181162487Y-96557111D01*
X181247401Y-96837034D01*
X181385294Y-97095014D01*
X181570866Y-97321134D01*
X181796986Y-97506706D01*
X181866001Y-97543595D01*
X181866000Y-99276677D01*
X181862324Y-99314000D01*
X181866000Y-99351322D01*
X181866000Y-99351332D01*
X181876997Y-99462985D01*
X181904910Y-99555003D01*
X181920454Y-99606246D01*
X181991026Y-99738276D01*
X182030871Y-99786826D01*
X182085999Y-99854001D01*
X182115003Y-99877804D01*
X185110201Y-102873003D01*
X185133999Y-102902001D01*
X185162997Y-102925799D01*
X185249723Y-102996974D01*
X185381753Y-103067546D01*
X185525014Y-103111003D01*
X185636667Y-103122000D01*
X185636677Y-103122000D01*
X185674000Y-103125676D01*
X185711323Y-103122000D01*
X191762405Y-103122000D01*
X191799294Y-103191014D01*
X191984866Y-103417134D01*
X192210986Y-103602706D01*
X192265791Y-103632000D01*
X192210986Y-103661294D01*
X191984866Y-103846866D01*
X191799294Y-104072986D01*
X191661401Y-104330966D01*
X191576487Y-104610889D01*
X191547815Y-104902000D01*
X191576487Y-105193111D01*
X191661401Y-105473034D01*
X191799294Y-105731014D01*
X191984866Y-105957134D01*
X192210986Y-106142706D01*
X192468966Y-106280599D01*
X192748889Y-106365513D01*
X192967050Y-106387000D01*
X193112950Y-106387000D01*
X193331111Y-106365513D01*
X193611034Y-106280599D01*
X193869014Y-106142706D01*
X194095134Y-105957134D01*
X194280706Y-105731014D01*
X194418599Y-105473034D01*
X194503513Y-105193111D01*
X194532185Y-104902000D01*
X194503513Y-104610889D01*
X194418599Y-104330966D01*
X194280706Y-104072986D01*
X194095134Y-103846866D01*
X193869014Y-103661294D01*
X193814209Y-103632000D01*
X193869014Y-103602706D01*
X194095134Y-103417134D01*
X194280706Y-103191014D01*
X194418599Y-102933034D01*
X194503513Y-102653111D01*
X194532185Y-102362000D01*
X194503513Y-102070889D01*
X194418599Y-101790966D01*
X194280706Y-101532986D01*
X194095134Y-101306866D01*
X193869014Y-101121294D01*
X193814209Y-101092000D01*
X193869014Y-101062706D01*
X194095134Y-100877134D01*
X194280706Y-100651014D01*
X194418599Y-100393034D01*
X194503513Y-100113111D01*
X194532185Y-99822000D01*
X194503513Y-99530889D01*
X194418599Y-99250966D01*
X194280706Y-98992986D01*
X194095134Y-98766866D01*
X194065313Y-98742393D01*
X194134180Y-98721502D01*
X194244494Y-98662537D01*
X194341185Y-98583185D01*
X194420537Y-98486494D01*
X194479502Y-98376180D01*
X194515812Y-98256482D01*
X194528072Y-98132000D01*
X194525000Y-97567750D01*
X194366250Y-97409000D01*
X193167000Y-97409000D01*
X193167000Y-97429000D01*
X192913000Y-97429000D01*
X192913000Y-97409000D01*
X191713750Y-97409000D01*
X191555000Y-97567750D01*
X191551928Y-98132000D01*
X191564188Y-98256482D01*
X191600498Y-98376180D01*
X191659463Y-98486494D01*
X191738815Y-98583185D01*
X191835506Y-98662537D01*
X191945820Y-98721502D01*
X192014687Y-98742393D01*
X191984866Y-98766866D01*
X191799294Y-98992986D01*
X191762405Y-99062000D01*
X186496802Y-99062000D01*
X185926000Y-98491199D01*
X185926000Y-97754072D01*
X186016000Y-97754072D01*
X186140482Y-97741812D01*
X186260180Y-97705502D01*
X186370494Y-97646537D01*
X186467185Y-97567185D01*
X186546537Y-97470494D01*
X186605502Y-97360180D01*
X186641812Y-97240482D01*
X186654072Y-97116000D01*
X186654072Y-96432000D01*
X191551928Y-96432000D01*
X191555000Y-96996250D01*
X191713750Y-97155000D01*
X192913000Y-97155000D01*
X192913000Y-95955750D01*
X193167000Y-95955750D01*
X193167000Y-97155000D01*
X194366250Y-97155000D01*
X194525000Y-96996250D01*
X194528072Y-96432000D01*
X194515812Y-96307518D01*
X194479502Y-96187820D01*
X194420537Y-96077506D01*
X194341185Y-95980815D01*
X194244494Y-95901463D01*
X194134180Y-95842498D01*
X194014482Y-95806188D01*
X193890000Y-95793928D01*
X193325750Y-95797000D01*
X193167000Y-95955750D01*
X192913000Y-95955750D01*
X192754250Y-95797000D01*
X192190000Y-95793928D01*
X192065518Y-95806188D01*
X191945820Y-95842498D01*
X191835506Y-95901463D01*
X191738815Y-95980815D01*
X191659463Y-96077506D01*
X191600498Y-96187820D01*
X191564188Y-96307518D01*
X191551928Y-96432000D01*
X186654072Y-96432000D01*
X186654072Y-95416000D01*
X186641812Y-95291518D01*
X186605502Y-95171820D01*
X186546537Y-95061506D01*
X186467185Y-94964815D01*
X186370494Y-94885463D01*
X186260180Y-94826498D01*
X186140482Y-94790188D01*
X186016000Y-94777928D01*
X184316000Y-94777928D01*
X184191518Y-94790188D01*
X184071820Y-94826498D01*
X183961506Y-94885463D01*
X183864815Y-94964815D01*
X183785463Y-95061506D01*
X183726498Y-95171820D01*
X183705607Y-95240687D01*
X183681134Y-95210866D01*
X183455014Y-95025294D01*
X183197034Y-94887401D01*
X182917111Y-94802487D01*
X182698950Y-94781000D01*
X182553050Y-94781000D01*
X182334889Y-94802487D01*
X182054966Y-94887401D01*
X181796986Y-95025294D01*
X181570866Y-95210866D01*
X181385294Y-95436986D01*
X181247401Y-95694966D01*
X181162487Y-95974889D01*
X181133815Y-96266000D01*
X179705000Y-96266000D01*
X179705000Y-90932000D01*
X179702560Y-90907224D01*
X179695333Y-90883399D01*
X179683597Y-90861443D01*
X179667803Y-90842197D01*
X179648557Y-90826403D01*
X179626601Y-90814667D01*
X179602776Y-90807440D01*
X179578000Y-90805000D01*
X176207802Y-90805000D01*
X175318802Y-89916000D01*
X191547815Y-89916000D01*
X191576487Y-90207111D01*
X191661401Y-90487034D01*
X191799294Y-90745014D01*
X191984866Y-90971134D01*
X192210986Y-91156706D01*
X192468966Y-91294599D01*
X192748889Y-91379513D01*
X192967050Y-91401000D01*
X193112950Y-91401000D01*
X193331111Y-91379513D01*
X193611034Y-91294599D01*
X193869014Y-91156706D01*
X194095134Y-90971134D01*
X194280706Y-90745014D01*
X194418599Y-90487034D01*
X194503513Y-90207111D01*
X194532185Y-89916000D01*
X194503513Y-89624889D01*
X194418599Y-89344966D01*
X194280706Y-89086986D01*
X194095134Y-88860866D01*
X194065313Y-88836393D01*
X194134180Y-88815502D01*
X194244494Y-88756537D01*
X194341185Y-88677185D01*
X194420537Y-88580494D01*
X194479502Y-88470180D01*
X194515812Y-88350482D01*
X194528072Y-88226000D01*
X194528072Y-86526000D01*
X194515812Y-86401518D01*
X194479502Y-86281820D01*
X194420537Y-86171506D01*
X194341185Y-86074815D01*
X194244494Y-85995463D01*
X194134180Y-85936498D01*
X194014482Y-85900188D01*
X193890000Y-85887928D01*
X192190000Y-85887928D01*
X192065518Y-85900188D01*
X191945820Y-85936498D01*
X191835506Y-85995463D01*
X191738815Y-86074815D01*
X191659463Y-86171506D01*
X191600498Y-86281820D01*
X191564188Y-86401518D01*
X191551928Y-86526000D01*
X191551928Y-88226000D01*
X191564188Y-88350482D01*
X191600498Y-88470180D01*
X191659463Y-88580494D01*
X191738815Y-88677185D01*
X191835506Y-88756537D01*
X191945820Y-88815502D01*
X192014687Y-88836393D01*
X191984866Y-88860866D01*
X191799294Y-89086986D01*
X191661401Y-89344966D01*
X191576487Y-89624889D01*
X191547815Y-89916000D01*
X175318802Y-89916000D01*
X174771000Y-89368199D01*
X174771000Y-89306061D01*
X174731226Y-89106102D01*
X174653205Y-88917744D01*
X174539937Y-88748226D01*
X174395774Y-88604063D01*
X174226256Y-88490795D01*
X174037898Y-88412774D01*
X173837939Y-88373000D01*
X173634061Y-88373000D01*
X173434102Y-88412774D01*
X173245744Y-88490795D01*
X173076226Y-88604063D01*
X172932063Y-88748226D01*
X172818795Y-88917744D01*
X172740774Y-89106102D01*
X172701000Y-89306061D01*
X172701000Y-89509939D01*
X172740774Y-89709898D01*
X172818795Y-89898256D01*
X172932063Y-90067774D01*
X173076226Y-90211937D01*
X173245744Y-90325205D01*
X173434102Y-90403226D01*
X173634061Y-90443000D01*
X173696199Y-90443000D01*
X175008001Y-91754803D01*
X175008000Y-113373678D01*
X175004324Y-113411000D01*
X175008000Y-113448322D01*
X175008000Y-113448332D01*
X175018997Y-113559985D01*
X175056434Y-113683401D01*
X175062454Y-113703246D01*
X175133026Y-113835276D01*
X175172871Y-113883826D01*
X175227999Y-113951001D01*
X175257003Y-113974804D01*
X175895000Y-114612802D01*
X175895000Y-129540000D01*
X175897440Y-129564776D01*
X175904667Y-129588601D01*
X175916403Y-129610557D01*
X175932197Y-129629803D01*
X175951443Y-129645597D01*
X175973399Y-129657333D01*
X175997224Y-129664560D01*
X176022000Y-129667000D01*
X179578000Y-129667000D01*
X179602776Y-129664560D01*
X179626601Y-129657333D01*
X179648557Y-129645597D01*
X179667803Y-129629803D01*
X179683597Y-129610557D01*
X179695333Y-129588601D01*
X179702560Y-129564776D01*
X179705000Y-129540000D01*
X179705000Y-125731676D01*
X179742323Y-125728000D01*
X180906289Y-125728000D01*
X180950226Y-125771937D01*
X181119744Y-125885205D01*
X181308102Y-125963226D01*
X181508061Y-126003000D01*
X181711939Y-126003000D01*
X181911898Y-125963226D01*
X182100256Y-125885205D01*
X182269774Y-125771937D01*
X182413937Y-125627774D01*
X182527205Y-125458256D01*
X182605226Y-125269898D01*
X182645000Y-125069939D01*
X182645000Y-124866061D01*
X182605226Y-124666102D01*
X182527205Y-124477744D01*
X182413937Y-124308226D01*
X182269774Y-124164063D01*
X182100256Y-124050795D01*
X181911898Y-123972774D01*
X181711939Y-123933000D01*
X181508061Y-123933000D01*
X181308102Y-123972774D01*
X181119744Y-124050795D01*
X180950226Y-124164063D01*
X180906289Y-124208000D01*
X180019802Y-124208000D01*
X179705000Y-123893198D01*
X179705000Y-123038890D01*
X191598524Y-123038890D01*
X191643175Y-123186099D01*
X191768359Y-123448920D01*
X191942412Y-123682269D01*
X192158645Y-123877178D01*
X192408748Y-124026157D01*
X192683109Y-124123481D01*
X192913000Y-124002814D01*
X192913000Y-122809000D01*
X193167000Y-122809000D01*
X193167000Y-124002814D01*
X193396891Y-124123481D01*
X193671252Y-124026157D01*
X193921355Y-123877178D01*
X194137588Y-123682269D01*
X194311641Y-123448920D01*
X194436825Y-123186099D01*
X194481476Y-123038890D01*
X194360155Y-122809000D01*
X193167000Y-122809000D01*
X192913000Y-122809000D01*
X191719845Y-122809000D01*
X191598524Y-123038890D01*
X179705000Y-123038890D01*
X179705000Y-105722802D01*
X182374001Y-108391803D01*
X182374000Y-110706677D01*
X182370324Y-110744000D01*
X182374000Y-110781322D01*
X182374000Y-110781332D01*
X182384997Y-110892985D01*
X182415942Y-110994998D01*
X182428454Y-111036246D01*
X182499026Y-111168276D01*
X182536348Y-111213753D01*
X182593999Y-111284001D01*
X182623002Y-111307803D01*
X183332201Y-112017002D01*
X183355999Y-112046001D01*
X183471724Y-112140974D01*
X183603753Y-112211546D01*
X183747014Y-112255003D01*
X183858667Y-112266000D01*
X183858675Y-112266000D01*
X183896000Y-112269676D01*
X183933325Y-112266000D01*
X187414678Y-112266000D01*
X187452000Y-112269676D01*
X187489322Y-112266000D01*
X187489333Y-112266000D01*
X187600986Y-112255003D01*
X187744247Y-112211546D01*
X187876276Y-112140974D01*
X187992001Y-112046001D01*
X188015804Y-112016997D01*
X191322803Y-108710000D01*
X191714864Y-108710000D01*
X191659463Y-108777506D01*
X191600498Y-108887820D01*
X191564188Y-109007518D01*
X191551928Y-109132000D01*
X191551928Y-110832000D01*
X191564188Y-110956482D01*
X191600498Y-111076180D01*
X191659463Y-111186494D01*
X191738815Y-111283185D01*
X191835506Y-111362537D01*
X191945820Y-111421502D01*
X192014687Y-111442393D01*
X191984866Y-111466866D01*
X191799294Y-111692986D01*
X191661401Y-111950966D01*
X191576487Y-112230889D01*
X191547815Y-112522000D01*
X191576487Y-112813111D01*
X191661401Y-113093034D01*
X191799294Y-113351014D01*
X191984866Y-113577134D01*
X192210986Y-113762706D01*
X192265791Y-113792000D01*
X192210986Y-113821294D01*
X191984866Y-114006866D01*
X191799294Y-114232986D01*
X191661401Y-114490966D01*
X191576487Y-114770889D01*
X191547815Y-115062000D01*
X191576487Y-115353111D01*
X191661401Y-115633034D01*
X191799294Y-115891014D01*
X191984866Y-116117134D01*
X192210986Y-116302706D01*
X192265791Y-116332000D01*
X192210986Y-116361294D01*
X191984866Y-116546866D01*
X191799294Y-116772986D01*
X191661401Y-117030966D01*
X191576487Y-117310889D01*
X191547815Y-117602000D01*
X191576487Y-117893111D01*
X191661401Y-118173034D01*
X191799294Y-118431014D01*
X191984866Y-118657134D01*
X192210986Y-118842706D01*
X192265791Y-118872000D01*
X192210986Y-118901294D01*
X191984866Y-119086866D01*
X191799294Y-119312986D01*
X191661401Y-119570966D01*
X191576487Y-119850889D01*
X191547815Y-120142000D01*
X191576487Y-120433111D01*
X191661401Y-120713034D01*
X191799294Y-120971014D01*
X191984866Y-121197134D01*
X192210986Y-121382706D01*
X192275523Y-121417201D01*
X192158645Y-121486822D01*
X191942412Y-121681731D01*
X191768359Y-121915080D01*
X191643175Y-122177901D01*
X191598524Y-122325110D01*
X191719845Y-122555000D01*
X192913000Y-122555000D01*
X192913000Y-122535000D01*
X193167000Y-122535000D01*
X193167000Y-122555000D01*
X194360155Y-122555000D01*
X194481476Y-122325110D01*
X194436825Y-122177901D01*
X194311641Y-121915080D01*
X194137588Y-121681731D01*
X193921355Y-121486822D01*
X193804477Y-121417201D01*
X193869014Y-121382706D01*
X194095134Y-121197134D01*
X194280706Y-120971014D01*
X194418599Y-120713034D01*
X194486911Y-120487840D01*
X194581744Y-120551205D01*
X194770102Y-120629226D01*
X194970061Y-120669000D01*
X195173939Y-120669000D01*
X195373898Y-120629226D01*
X195562256Y-120551205D01*
X195731774Y-120437937D01*
X195875937Y-120293774D01*
X195989205Y-120124256D01*
X196067226Y-119935898D01*
X196107000Y-119735939D01*
X196107000Y-119532061D01*
X196067226Y-119332102D01*
X195989205Y-119143744D01*
X195875937Y-118974226D01*
X195731774Y-118830063D01*
X195562256Y-118716795D01*
X195373898Y-118638774D01*
X195173939Y-118599000D01*
X195111802Y-118599000D01*
X194480797Y-117967996D01*
X194503513Y-117893111D01*
X194532185Y-117602000D01*
X194503513Y-117310889D01*
X194418599Y-117030966D01*
X194280706Y-116772986D01*
X194095134Y-116546866D01*
X193869014Y-116361294D01*
X193814209Y-116332000D01*
X193869014Y-116302706D01*
X194095134Y-116117134D01*
X194280706Y-115891014D01*
X194418599Y-115633034D01*
X194503513Y-115353111D01*
X194532185Y-115062000D01*
X194503513Y-114770889D01*
X194480797Y-114696004D01*
X196215000Y-112961802D01*
X196215000Y-125857000D01*
X185420000Y-125857000D01*
X185395224Y-125859440D01*
X185371399Y-125866667D01*
X185349443Y-125878403D01*
X185330197Y-125894197D01*
X185314403Y-125913443D01*
X185302667Y-125935399D01*
X185295440Y-125959224D01*
X185293000Y-125984000D01*
X185293000Y-136017000D01*
X150495000Y-136017000D01*
X150495000Y-131724061D01*
X158223000Y-131724061D01*
X158223000Y-131927939D01*
X158262774Y-132127898D01*
X158340795Y-132316256D01*
X158454063Y-132485774D01*
X158598226Y-132629937D01*
X158767744Y-132743205D01*
X158956102Y-132821226D01*
X159156061Y-132861000D01*
X159359939Y-132861000D01*
X159559898Y-132821226D01*
X159748256Y-132743205D01*
X159917774Y-132629937D01*
X159961711Y-132586000D01*
X164396289Y-132586000D01*
X164440226Y-132629937D01*
X164609744Y-132743205D01*
X164798102Y-132821226D01*
X164998061Y-132861000D01*
X165201939Y-132861000D01*
X165401898Y-132821226D01*
X165590256Y-132743205D01*
X165759774Y-132629937D01*
X165903937Y-132485774D01*
X166017205Y-132316256D01*
X166095226Y-132127898D01*
X166135000Y-131927939D01*
X166135000Y-131724061D01*
X166095226Y-131524102D01*
X166017205Y-131335744D01*
X165903937Y-131166226D01*
X165759774Y-131022063D01*
X165590256Y-130908795D01*
X165401898Y-130830774D01*
X165201939Y-130791000D01*
X164998061Y-130791000D01*
X164798102Y-130830774D01*
X164609744Y-130908795D01*
X164440226Y-131022063D01*
X164396289Y-131066000D01*
X159961711Y-131066000D01*
X159917774Y-131022063D01*
X159748256Y-130908795D01*
X159559898Y-130830774D01*
X159359939Y-130791000D01*
X159156061Y-130791000D01*
X158956102Y-130830774D01*
X158767744Y-130908795D01*
X158598226Y-131022063D01*
X158454063Y-131166226D01*
X158340795Y-131335744D01*
X158262774Y-131524102D01*
X158223000Y-131724061D01*
X150495000Y-131724061D01*
X150495000Y-96266000D01*
X150492560Y-96241224D01*
X150485333Y-96217399D01*
X150473597Y-96195443D01*
X150457803Y-96176197D01*
X145213606Y-90932000D01*
X152273000Y-90932000D01*
X152273000Y-129540000D01*
X152275440Y-129564776D01*
X152282667Y-129588601D01*
X152294403Y-129610557D01*
X152310197Y-129629803D01*
X152329443Y-129645597D01*
X152351399Y-129657333D01*
X152375224Y-129664560D01*
X152400000Y-129667000D01*
X155956000Y-129667000D01*
X155980776Y-129664560D01*
X156004601Y-129657333D01*
X156026557Y-129645597D01*
X156045803Y-129629803D01*
X156061597Y-129610557D01*
X156073333Y-129588601D01*
X156080560Y-129564776D01*
X156083000Y-129540000D01*
X156083000Y-125661801D01*
X158731000Y-128309802D01*
X158731000Y-128371939D01*
X158770774Y-128571898D01*
X158848795Y-128760256D01*
X158962063Y-128929774D01*
X159106226Y-129073937D01*
X159275744Y-129187205D01*
X159464102Y-129265226D01*
X159664061Y-129305000D01*
X159867939Y-129305000D01*
X160067898Y-129265226D01*
X160256256Y-129187205D01*
X160425774Y-129073937D01*
X160569937Y-128929774D01*
X160683205Y-128760256D01*
X160761226Y-128571898D01*
X160801000Y-128371939D01*
X160801000Y-128168061D01*
X160761226Y-127968102D01*
X160683205Y-127779744D01*
X160569937Y-127610226D01*
X160425774Y-127466063D01*
X160256256Y-127352795D01*
X160067898Y-127274774D01*
X159867939Y-127235000D01*
X159805802Y-127235000D01*
X156083000Y-123512199D01*
X156083000Y-90932000D01*
X156080560Y-90907224D01*
X156073333Y-90883399D01*
X156061597Y-90861443D01*
X156045803Y-90842197D01*
X156026557Y-90826403D01*
X156004601Y-90814667D01*
X155980776Y-90807440D01*
X155956000Y-90805000D01*
X152400000Y-90805000D01*
X152375224Y-90807440D01*
X152351399Y-90814667D01*
X152329443Y-90826403D01*
X152310197Y-90842197D01*
X152294403Y-90861443D01*
X152282667Y-90883399D01*
X152275440Y-90907224D01*
X152273000Y-90932000D01*
X145213606Y-90932000D01*
X140839000Y-86557394D01*
X140839000Y-86390454D01*
X140871205Y-86342256D01*
X140949226Y-86153898D01*
X140989000Y-85953939D01*
X140989000Y-85750061D01*
X140949226Y-85550102D01*
X140926842Y-85496061D01*
X158223000Y-85496061D01*
X158223000Y-85699939D01*
X158262774Y-85899898D01*
X158340795Y-86088256D01*
X158454063Y-86257774D01*
X158498001Y-86301712D01*
X158498000Y-88450289D01*
X158454063Y-88494226D01*
X158340795Y-88663744D01*
X158262774Y-88852102D01*
X158223000Y-89052061D01*
X158223000Y-89255939D01*
X158262774Y-89455898D01*
X158340795Y-89644256D01*
X158454063Y-89813774D01*
X158598226Y-89957937D01*
X158767744Y-90071205D01*
X158956102Y-90149226D01*
X159156061Y-90189000D01*
X159359939Y-90189000D01*
X159559898Y-90149226D01*
X159748256Y-90071205D01*
X159917774Y-89957937D01*
X159956500Y-89919211D01*
X159995226Y-89957937D01*
X160164744Y-90071205D01*
X160353102Y-90149226D01*
X160553061Y-90189000D01*
X160756939Y-90189000D01*
X160956898Y-90149226D01*
X161145256Y-90071205D01*
X161314774Y-89957937D01*
X161458937Y-89813774D01*
X161572205Y-89644256D01*
X161650226Y-89455898D01*
X161690000Y-89255939D01*
X161690000Y-89052061D01*
X161650226Y-88852102D01*
X161572205Y-88663744D01*
X161458937Y-88494226D01*
X161415000Y-88450289D01*
X161415000Y-86301711D01*
X161458937Y-86257774D01*
X161572205Y-86088256D01*
X161650226Y-85899898D01*
X161690000Y-85699939D01*
X161690000Y-85496061D01*
X161650226Y-85296102D01*
X161572205Y-85107744D01*
X161458937Y-84938226D01*
X161314774Y-84794063D01*
X161145256Y-84680795D01*
X160956898Y-84602774D01*
X160756939Y-84563000D01*
X160553061Y-84563000D01*
X160353102Y-84602774D01*
X160164744Y-84680795D01*
X159995226Y-84794063D01*
X159956500Y-84832789D01*
X159917774Y-84794063D01*
X159748256Y-84680795D01*
X159559898Y-84602774D01*
X159359939Y-84563000D01*
X159156061Y-84563000D01*
X158956102Y-84602774D01*
X158767744Y-84680795D01*
X158598226Y-84794063D01*
X158454063Y-84938226D01*
X158340795Y-85107744D01*
X158262774Y-85296102D01*
X158223000Y-85496061D01*
X140926842Y-85496061D01*
X140871205Y-85361744D01*
X140757937Y-85192226D01*
X140613774Y-85048063D01*
X140444256Y-84934795D01*
X140255898Y-84856774D01*
X140055939Y-84817000D01*
X139852061Y-84817000D01*
X139652102Y-84856774D01*
X139463744Y-84934795D01*
X139294226Y-85048063D01*
X139150063Y-85192226D01*
X139036795Y-85361744D01*
X138958774Y-85550102D01*
X138919000Y-85750061D01*
X138919000Y-85953939D01*
X138958774Y-86153898D01*
X138991539Y-86233000D01*
X127722231Y-86233000D01*
X127726072Y-86194000D01*
X127726072Y-86104000D01*
X128359678Y-86104000D01*
X128397000Y-86107676D01*
X128434322Y-86104000D01*
X128434333Y-86104000D01*
X128545986Y-86093003D01*
X128689247Y-86049546D01*
X128821276Y-85978974D01*
X128937001Y-85884001D01*
X128960804Y-85854997D01*
X130341802Y-84474000D01*
X130403939Y-84474000D01*
X130603898Y-84434226D01*
X130792256Y-84356205D01*
X130961774Y-84242937D01*
X131005711Y-84199000D01*
X133662289Y-84199000D01*
X133706226Y-84242937D01*
X133875744Y-84356205D01*
X134064102Y-84434226D01*
X134264061Y-84474000D01*
X134467939Y-84474000D01*
X134667898Y-84434226D01*
X134856256Y-84356205D01*
X135025774Y-84242937D01*
X135169937Y-84098774D01*
X135283205Y-83929256D01*
X135361226Y-83740898D01*
X135401000Y-83540939D01*
X135401000Y-83337061D01*
X135361226Y-83137102D01*
X135283205Y-82948744D01*
X135169937Y-82779226D01*
X135025774Y-82635063D01*
X134856256Y-82521795D01*
X134667898Y-82443774D01*
X134467939Y-82404000D01*
X134264061Y-82404000D01*
X134064102Y-82443774D01*
X133875744Y-82521795D01*
X133706226Y-82635063D01*
X133662289Y-82679000D01*
X131005711Y-82679000D01*
X130961774Y-82635063D01*
X130792256Y-82521795D01*
X130603898Y-82443774D01*
X130403939Y-82404000D01*
X130200061Y-82404000D01*
X130000102Y-82443774D01*
X129811744Y-82521795D01*
X129642226Y-82635063D01*
X129498063Y-82779226D01*
X129384795Y-82948744D01*
X129306774Y-83137102D01*
X129267000Y-83337061D01*
X129267000Y-83399198D01*
X128082199Y-84584000D01*
X127726072Y-84584000D01*
X127726072Y-84494000D01*
X127713812Y-84369518D01*
X127677502Y-84249820D01*
X127618537Y-84139506D01*
X127539185Y-84042815D01*
X127442494Y-83963463D01*
X127332180Y-83904498D01*
X127212482Y-83868188D01*
X127088000Y-83855928D01*
X125388000Y-83855928D01*
X125263518Y-83868188D01*
X125143820Y-83904498D01*
X125033506Y-83963463D01*
X124936815Y-84042815D01*
X124857463Y-84139506D01*
X124798498Y-84249820D01*
X124762188Y-84369518D01*
X124749928Y-84494000D01*
X124749928Y-86194000D01*
X124753769Y-86233000D01*
X115697000Y-86233000D01*
X115697000Y-77597000D01*
X121412000Y-77597000D01*
X121436776Y-77594560D01*
X121460601Y-77587333D01*
X121482557Y-77575597D01*
X121501803Y-77559803D01*
X121517597Y-77540557D01*
X121529333Y-77518601D01*
X121536560Y-77494776D01*
X121539000Y-77470000D01*
X121539000Y-70866000D01*
X142621000Y-70866000D01*
X142621000Y-79502000D01*
X142623440Y-79526776D01*
X142630667Y-79550601D01*
X142642403Y-79572557D01*
X142658197Y-79591803D01*
X142677443Y-79607597D01*
X142699399Y-79619333D01*
X142723224Y-79626560D01*
X142748000Y-79629000D01*
X146304000Y-79629000D01*
X146328776Y-79626560D01*
X146352601Y-79619333D01*
X146374557Y-79607597D01*
X146393803Y-79591803D01*
X146409597Y-79572557D01*
X146421333Y-79550601D01*
X146428560Y-79526776D01*
X146431000Y-79502000D01*
X146431000Y-70866000D01*
X146428560Y-70841224D01*
X146421333Y-70817399D01*
X146409597Y-70795443D01*
X146393803Y-70776197D01*
X146374557Y-70760403D01*
X146352601Y-70748667D01*
X146328776Y-70741440D01*
X146304000Y-70739000D01*
X142748000Y-70739000D01*
X142723224Y-70741440D01*
X142699399Y-70748667D01*
X142677443Y-70760403D01*
X142658197Y-70776197D01*
X142642403Y-70795443D01*
X142630667Y-70817399D01*
X142623440Y-70841224D01*
X142621000Y-70866000D01*
X121539000Y-70866000D01*
X121539000Y-67310000D01*
X124026394Y-67310000D01*
X126402197Y-69685803D01*
M02*
